<svg xmlns="http://www.w3.org/2000/svg" xmlns:xlink="http://www.w3.org/1999/xlink" viewBox="0 0 1920 1080"><defs><style>.cls-1,.cls-43,.cls-57,.cls-61{fill:none;}.cls-2{isolation:isolate;}.cls-3{clip-path:url(#clip-path);}.cls-4{fill:#fcf9e8;}.cls-5{fill:#fcebd6;}.cls-6{fill:#f9d9a6;}.cls-7{fill:#241734;}.cls-8{fill:#274459;}.cls-9{fill:#fbead5;}.cls-10{fill:#32526e;}.cls-11{fill:#801d15;}.cls-12{fill:#be113f;}.cls-13{fill:#b95007;}.cls-14{fill:#f8a52f;}.cls-15{fill:#2664e4;opacity:0.11;}.cls-15,.cls-29,.cls-36{mix-blend-mode:multiply;}.cls-16{fill:#026a9e;}.cls-17{fill:#fdfafa;}.cls-18,.cls-59,.cls-63{fill:#fff;}.cls-19{fill:#0d7fc6;}.cls-20{fill:#3a3a3a;}.cls-21{fill:#b7bbbc;}.cls-22{fill:#c4b5fc;}.cls-23{fill:#dcd5f9;}.cls-24{fill:#f86f6b;}.cls-25{fill:#faa4a0;}.cls-26{fill:#294860;}.cls-27{fill:#b5abb6;}.cls-28{clip-path:url(#clip-path-2);}.cls-29{fill:#cdc3d0;opacity:0.5;}.cls-30{fill:#a3a3a3;}.cls-31{fill:#a9a9a9;}.cls-32{fill:#101014;}.cls-33{fill:#ffbf99;}.cls-34{fill:#f7aa84;}.cls-35{fill:#703e03;}.cls-36{fill:#b3b3b3;}.cls-37{fill:#c18f7e;}.cls-38{fill:#121214;}.cls-38,.cls-46,.cls-50{opacity:0.3;}.cls-39{fill:#dae6ea;}.cls-40{fill:#c3d4d8;}.cls-41{fill:#026a9d;}.cls-42{fill:#f5fbfb;}.cls-43{stroke:#bcbdbe;stroke-width:1.15px;}.cls-43,.cls-61{stroke-miterlimit:10;}.cls-44{fill:#28b3ea;}.cls-45{fill:#39b9f8;}.cls-47{fill:#ffe590;}.cls-48{fill:#f9960d;}.cls-49{fill:#ffc654;}.cls-51{fill:#ba6000;}.cls-52{fill:#383838;}.cls-53{fill:#f57319;}.cls-54{fill:#d62821;}.cls-55{fill:#bcbec0;}.cls-56{fill:#517fa2;}.cls-57{stroke:#383838;stroke-linecap:round;stroke-linejoin:round;stroke-width:4px;}.cls-58{fill:#1b42a7;}.cls-59{font-size:21.05px;}.cls-59,.cls-60,.cls-63{font-family:OpenSans-SemiBold, Open Sans;font-weight:600;}.cls-60{font-size:43.72px;}.cls-61{stroke:#000;stroke-width:2.17px;}.cls-62{fill:#162b64;}.cls-63{font-size:28.16px;}.cls-64{fill:#303033;}.cls-65{fill:#fff6bf;}.cls-66{fill:#ff9d26;}.cls-67{fill:#a7a9ac;}.cls-68{fill:#939598;}.cls-69{fill:#92201a;}</style><clipPath id="clip-path"><polyline class="cls-1" points="1920 0 1920 1080 0 1080 0 0"/></clipPath><clipPath id="clip-path-2"><path class="cls-1" d="M1017.11,490.14s12,6.93,18.05,7.46a8.84,8.84,0,0,0,4.29-.74c1.47-.73,2.35-2.2,1.78-5.16l-2.57-12.82s-11.56-10.17-16.68-4.26S1015.39,486.22,1017.11,490.14Z"/></clipPath></defs><g class="cls-2"><g id="Mixed_Fraction" data-name="Mixed Fraction"><g class="cls-3"><polyline class="cls-4" points="1920 0 1920 1080 0 1080 0 0"/><polygon class="cls-5" points="0 338.81 586.21 0 1433.51 0 1920 284.87 1920 739.66 1335.13 1079.94 0 1080 0 338.81"/><path class="cls-6" d="M0,758.23l53.26-28.59V457L813.6-1.09l373.95,75.75,126.3,72.85L1063.3,294.57,1211.89,385,1040.32,484.7l106.44,51.23s10.5,14-2.27,25.2-67.92,32.68-67.92,32.68l110.3,63.32L1219.55,601s17.36-17.36,44.94-3.07,69.45,46,69.45,46l58.21-31.66,18.38,8.17,109.28-81.7,120.51,88.85-28.6,257.36-171.91,137.19L1340.06,1080h-528l-80.68-60.32s-90.89,16.34-146-20.42L554.7,966.57,362.7,1080H0Z"/><polygon class="cls-7" points="1653.34 895.6 1335.13 1079.94 1428.74 1079.94 1532.32 1079.43 1702.36 922.4 1653.34 895.6"/><polygon class="cls-8" points="1098.53 388.9 1098.53 394.12 905.44 505.62 616.83 338.38 616.83 334.89 1098.53 388.9"/><polygon class="cls-9" points="1098.53 380.19 1098.53 390.64 905.44 502.13 616.83 334.89 616.83 320.96 1098.53 380.19"/><polygon class="cls-8" points="1098.53 377.26 1098.53 380.19 905.44 491.68 616.83 324.44 616.83 320.96 1098.53 377.26"/><polygon class="cls-10" points="1098.53 377.26 808.4 209.75 616.83 320.96 905.44 488.76 1098.53 377.26"/><polygon class="cls-9" points="808.89 251.27 712.34 307.02 748.55 327.93 845.1 272.18 808.89 251.27"/><polygon class="cls-8" points="1098.53 377.26 1098.53 394.12 1094.54 396.43 1094.54 379.67 1098.53 377.26"/><polygon class="cls-11" points="1066.43 380.22 1066.43 385.45 873.33 496.94 584.72 329.7 584.72 326.22 1066.43 380.22"/><polygon class="cls-9" points="1066.43 371.51 1066.43 381.97 873.33 493.46 584.72 326.22 584.72 312.28 1066.43 371.51"/><polygon class="cls-11" points="1066.43 368.59 1066.43 371.51 873.33 483.01 584.72 315.77 584.72 312.28 1066.43 368.59"/><polygon class="cls-12" points="1066.43 368.59 776.3 201.07 584.72 312.28 873.33 480.08 1066.43 368.59"/><polygon class="cls-9" points="776.79 242.6 680.24 298.35 716.44 319.25 812.99 263.5 776.79 242.6"/><polygon class="cls-11" points="1066.43 368.59 1066.43 385.45 1062.43 387.76 1062.43 371 1066.43 368.59"/><polygon class="cls-13" points="1085.95 341.47 1085.95 346.7 892.85 458.19 604.24 290.95 604.24 287.47 1085.95 341.47"/><polygon class="cls-9" points="1085.95 332.76 1085.95 343.21 892.85 454.71 604.24 287.47 604.24 273.53 1085.95 332.76"/><polygon class="cls-13" points="1085.95 329.84 1085.95 332.76 892.85 444.25 604.24 277.02 604.24 273.53 1085.95 329.84"/><polygon class="cls-14" points="1085.95 329.84 795.82 162.32 604.24 273.53 892.85 441.33 1085.95 329.84"/><polygon class="cls-9" points="796.31 203.85 699.76 259.6 735.96 280.5 832.51 224.75 796.31 203.85"/><polygon class="cls-13" points="1085.95 329.84 1085.95 346.7 1081.95 349.01 1081.95 332.25 1085.95 329.84"/><polygon class="cls-15" points="612.86 295.95 604.25 290.95 604.25 287.47 604.25 277.02 604.25 273.53 795.82 162.32 1085.95 329.84 1085.95 332.76 1085.95 341.47 1085.95 343.21 1085.95 346.7 1081.95 349.01 1081.95 349.01 1065.77 358.35 1098.53 377.26 1098.53 380.19 1098.53 388.9 1098.53 390.64 1098.53 394.12 1094.54 396.43 1094.54 396.43 905.44 505.62 881.92 491.99 873.33 496.94 584.72 329.7 584.72 326.22 584.72 315.77 584.72 312.28 612.86 295.95"/><g class="cls-2"><polygon class="cls-16" points="1179.39 -165.29 1179.27 157.56 990.46 48.56 990.59 -274.29 1179.39 -165.29"/><polygon class="cls-17" points="1174.42 96.83 1174.53 -152.44 992.02 -257.81 991.89 50.44 1128.47 129.29 1174.42 96.83"/><polygon class="cls-18" points="1171.45 99.11 1171.56 -150.73 989.05 -256.1 988.92 52.16 1125.67 131.11 1171.45 99.11"/><polygon class="cls-18" points="1168.48 101.28 1168.59 -149.01 986.08 -254.38 985.95 53.87 1122.88 132.92 1168.48 101.28"/><polygon class="cls-18" points="1165.51 103.44 1165.62 -147.3 983.11 -252.67 982.98 55.59 1120.08 134.74 1165.51 103.44"/><polygon class="cls-18" points="1162.54 105.61 1162.65 -145.58 980.14 -250.95 980.01 57.3 1117.28 136.55 1162.54 105.61"/><polygon class="cls-18" points="1159.57 107.78 1159.68 -143.87 977.17 -249.24 977.04 59.02 1114.48 138.37 1159.57 107.78"/><polygon class="cls-18" points="1112.08 139.93 1156.6 109.95 1156.71 -142.15 974.21 -247.52 974.07 60.73 1111.68 140.18 1112.08 139.93"/><polygon class="cls-18" points="1112.08 139.93 1153.63 112.13 1153.74 -140.44 971.24 -245.81 971.1 62.44 1108.81 141.95 1112.08 139.93"/><polygon class="cls-18" points="1112.08 139.93 1150.66 114.21 1150.77 -138.72 968.26 -244.09 968.13 64.16 1105.93 143.72 1112.08 139.93"/><polygon class="cls-18" points="1112.08 139.93 1147.69 116.25 1147.8 -137.01 965.29 -242.38 965.16 65.87 1103.06 145.49 1112.08 139.93"/><polygon class="cls-18" points="1112.08 139.93 1144.72 118.29 1144.83 -135.29 962.33 -240.66 962.19 67.59 1100.19 147.26 1112.08 139.93"/><polygon class="cls-18" points="1112.08 139.93 1141.75 120.33 1141.86 -133.58 959.36 -238.95 959.23 69.3 1097.32 149.03 1112.08 139.93"/><polygon class="cls-17" points="1112.08 139.93 1138.78 122.37 1138.89 -131.86 956.39 -237.24 956.25 71.02 1094.45 150.81 1112.08 139.93"/><polygon class="cls-17" points="1112.08 139.93 1135.81 124.41 1135.92 -130.15 953.42 -235.52 953.28 72.73 1091.56 152.56 1112.08 139.93"/><polygon class="cls-16" points="938.96 -244.29 938.83 78.56 1130.24 189.07 1130.37 -133.78 938.96 -244.29"/><path class="cls-19" d="M1130.37-133.78l-.13,322.85,54.24-31.52.13-322.85Zm30.07,241.4c-6.72,3.88-12.16.78-12.19-7s5.39-17.12,12.11-21,12.19-.76,12.21,7S1167.15,103.74,1160.44,107.62Z"/><polygon class="cls-18" points="1175.9 45.75 1140.06 66.45 1140.06 -113.08 1175.9 -133.78 1175.9 45.75"/><path class="cls-20" d="M1160.44,107.62c-6.72,3.88-12.16.78-12.19-7s5.39-17.11,12.11-21,12.19-.76,12.21,7S1167.15,103.74,1160.44,107.62Z"/><g class="cls-2"><path class="cls-21" d="M1169.48,81l-2-1.14c1.9,1.1,3.08,3.46,3.09,6.8,0,6.69-4.72,14.89-10.57,18.27-2.93,1.69-5.59,1.84-7.52.73l2,1.14c1.93,1.12,4.59,1,7.52-.72,5.86-3.39,10.59-11.59,10.57-18.27C1172.56,84.42,1171.38,82.07,1169.48,81Z"/><path class="cls-18" d="M1169.25,76.82c-2.38-1.38-5.67-1.19-9.3.91-7.21,4.16-13,14.25-13,22.54,0,4.12,1.46,7,3.8,8.37l2,1.14c-2.34-1.35-3.79-4.25-3.8-8.37,0-8.28,5.78-18.37,13-22.54,3.63-2.1,6.92-2.29,9.3-.91Z"/><path class="cls-18" d="M1161.92,78.87c-7.21,4.17-13,14.26-13,22.54s5.86,11.62,13.08,7.46,13-14.24,13-22.53S1169.14,74.71,1161.92,78.87ZM1162,106c-5.82,3.36-10.59.64-10.61-6.05s4.72-14.93,10.54-18.29,10.62-.66,10.64,6.07S1167.86,102.65,1162,106Z"/></g></g><g class="cls-2"><polygon class="cls-22" points="1114.47 -127.24 1114.34 195.61 925.54 86.6 925.67 -236.25 1114.47 -127.24"/><polygon class="cls-17" points="1109.5 134.88 1109.6 -114.4 927.1 -219.77 926.97 88.48 1063.55 167.34 1109.5 134.88"/><polygon class="cls-18" points="1106.53 137.15 1106.63 -112.68 924.13 -218.05 924 90.2 1060.75 169.15 1106.53 137.15"/><polygon class="cls-18" points="1103.56 139.32 1103.66 -110.97 921.16 -216.34 921.03 91.92 1057.95 170.97 1103.56 139.32"/><polygon class="cls-18" points="1100.59 141.49 1100.69 -109.25 918.19 -214.62 918.06 93.63 1055.15 172.78 1100.59 141.49"/><polygon class="cls-18" points="1097.62 143.66 1097.72 -107.54 915.22 -212.91 915.09 95.34 1052.36 174.6 1097.62 143.66"/><polygon class="cls-18" points="1094.65 145.83 1094.76 -105.82 912.25 -211.19 912.12 97.06 1049.56 176.41 1094.65 145.83"/><polygon class="cls-18" points="1047.16 177.97 1091.68 148 1091.79 -104.11 909.28 -209.48 909.15 98.77 1046.75 178.22 1047.16 177.97"/><polygon class="cls-18" points="1047.16 177.97 1088.71 150.17 1088.82 -102.39 906.31 -207.76 906.18 100.49 1043.88 179.99 1047.16 177.97"/><polygon class="cls-18" points="1047.16 177.97 1085.74 152.25 1085.85 -100.68 903.34 -206.05 903.21 102.2 1041.01 181.76 1047.16 177.97"/><polygon class="cls-18" points="1047.16 177.97 1082.77 154.29 1082.88 -98.97 900.37 -204.33 900.24 103.92 1038.14 183.53 1047.16 177.97"/><polygon class="cls-18" points="1047.16 177.97 1079.8 156.33 1079.9 -97.25 897.4 -202.62 897.27 105.63 1035.27 185.31 1047.16 177.97"/><polygon class="cls-18" points="1047.16 177.97 1076.83 158.37 1076.94 -95.54 894.43 -200.91 894.3 107.35 1032.4 187.08 1047.16 177.97"/><polygon class="cls-17" points="1047.16 177.97 1073.86 160.41 1073.97 -93.82 891.46 -199.19 891.33 109.06 1029.53 188.85 1047.16 177.97"/><polygon class="cls-17" points="1047.16 177.97 1070.89 162.45 1071 -92.11 888.49 -197.48 888.36 110.78 1026.63 190.61 1047.16 177.97"/><polygon class="cls-22" points="874.03 -206.24 873.9 116.61 1065.31 227.12 1065.44 -95.73 874.03 -206.24"/><path class="cls-23" d="M1065.44-95.73l-.13,322.85,54.24-31.53.13-322.85Zm30.07,241.39c-6.72,3.88-12.16.78-12.18-6.94s5.38-17.12,12.1-21,12.19-.76,12.21,7S1102.23,141.78,1095.51,145.66Z"/><polygon class="cls-18" points="1110.98 83.8 1075.14 104.49 1075.14 -75.04 1110.98 -95.73 1110.98 83.8"/><path class="cls-20" d="M1095.51,145.66c-6.72,3.88-12.16.78-12.18-6.94s5.38-17.12,12.1-21,12.19-.76,12.21,7S1102.23,141.78,1095.51,145.66Z"/><g class="cls-2"><path class="cls-21" d="M1104.55,119l-2-1.15c1.9,1.11,3.08,3.46,3.09,6.8,0,6.69-4.71,14.89-10.57,18.27-2.93,1.69-5.59,1.85-7.51.73l2,1.14c1.92,1.12,4.58,1,7.51-.72,5.86-3.38,10.59-11.58,10.57-18.27C1107.64,122.47,1106.45,120.11,1104.55,119Z"/><path class="cls-18" d="M1104.32,114.86c-2.37-1.38-5.67-1.19-9.29.91-7.22,4.16-13,14.25-13,22.54,0,4.12,1.46,7,3.8,8.37l2,1.15c-2.34-1.36-3.78-4.25-3.8-8.37,0-8.29,5.78-18.38,13-22.55,3.63-2.09,6.92-2.28,9.29-.9Z"/><path class="cls-18" d="M1097,116.91c-7.22,4.17-13,14.26-13,22.55s5.87,11.62,13.08,7.45,13.05-14.23,13-22.52S1104.21,112.75,1097,116.91Zm.07,27.17c-5.82,3.36-10.58.64-10.6-6s4.71-14.93,10.53-18.29,10.63-.67,10.64,6.06S1102.93,140.7,1097.07,144.08Z"/></g></g><g class="cls-2"><polygon class="cls-24" points="1049.44 -90.38 1049.31 232.47 860.5 123.46 860.63 -199.39 1049.44 -90.38"/><polygon class="cls-17" points="1044.46 171.74 1044.57 -77.54 862.07 -182.91 861.93 125.34 998.51 204.2 1044.46 171.74"/><polygon class="cls-18" points="1041.49 174.01 1041.6 -75.82 859.1 -181.19 858.97 127.06 995.72 206.01 1041.49 174.01"/><polygon class="cls-18" points="1038.53 176.18 1038.63 -74.11 856.13 -179.48 856 128.77 992.92 207.83 1038.53 176.18"/><polygon class="cls-18" points="1035.55 178.35 1035.66 -72.39 853.16 -177.76 853.02 130.49 990.12 209.64 1035.55 178.35"/><polygon class="cls-18" points="1032.59 180.52 1032.69 -70.68 850.19 -176.05 850.05 132.2 987.32 211.46 1032.59 180.52"/><polygon class="cls-18" points="1029.61 182.69 1029.72 -68.96 847.22 -174.33 847.09 133.92 984.53 213.27 1029.61 182.69"/><polygon class="cls-18" points="982.12 214.83 1026.64 184.86 1026.75 -67.25 844.25 -172.62 844.12 135.63 981.72 215.08 982.12 214.83"/><polygon class="cls-18" points="982.12 214.83 1023.67 187.03 1023.78 -65.53 841.28 -170.91 841.15 137.35 978.85 216.85 982.12 214.83"/><polygon class="cls-18" points="982.12 214.83 1020.7 189.11 1020.81 -63.82 838.31 -169.19 838.18 139.06 975.98 218.62 982.12 214.83"/><polygon class="cls-18" points="982.12 214.83 1017.73 191.15 1017.84 -62.1 835.34 -167.47 835.21 140.78 973.11 220.39 982.12 214.83"/><polygon class="cls-18" points="982.12 214.83 1014.76 193.19 1014.87 -60.39 832.37 -165.76 832.24 142.49 970.24 222.16 982.12 214.83"/><polygon class="cls-18" points="982.12 214.83 1011.79 195.23 1011.9 -58.68 829.4 -164.05 829.27 144.21 967.36 223.94 982.12 214.83"/><polygon class="cls-17" points="982.12 214.83 1008.82 197.27 1008.93 -56.96 826.43 -162.33 826.3 145.92 964.49 225.71 982.12 214.83"/><polygon class="cls-17" points="982.12 214.83 1005.86 199.31 1005.96 -55.25 823.46 -160.62 823.33 147.63 961.6 227.47 982.12 214.83"/><polygon class="cls-24" points="809 -169.38 808.87 153.47 1000.28 263.98 1000.41 -58.87 809 -169.38"/><path class="cls-25" d="M1000.41-58.87,1000.28,264l54.24-31.53.13-322.85Zm30.07,241.39c-6.72,3.88-12.16.78-12.18-6.94s5.38-17.12,12.1-21,12.19-.76,12.21,7S1037.2,178.64,1030.48,182.52Z"/><polygon class="cls-18" points="1045.95 120.66 1010.1 141.35 1010.1 -38.18 1045.95 -58.87 1045.95 120.66"/><path class="cls-20" d="M1030.48,182.52c-6.72,3.88-12.16.78-12.18-6.94s5.38-17.12,12.1-21,12.19-.76,12.21,7S1037.2,178.64,1030.48,182.52Z"/><g class="cls-2"><path class="cls-21" d="M1039.52,155.87l-2-1.15c1.9,1.11,3.08,3.46,3.09,6.8,0,6.69-4.71,14.89-10.57,18.27-2.93,1.69-5.59,1.85-7.52.73l2,1.14c1.92,1.12,4.58,1,7.51-.72,5.86-3.38,10.59-11.58,10.57-18.27C1042.6,159.33,1041.42,157,1039.52,155.87Z"/><path class="cls-18" d="M1039.29,151.72c-2.38-1.38-5.67-1.19-9.3.91-7.21,4.16-13,14.25-13,22.54,0,4.12,1.46,7,3.8,8.37l2,1.15c-2.34-1.36-3.79-4.25-3.8-8.37,0-8.29,5.78-18.38,13-22.55,3.63-2.09,6.92-2.28,9.3-.9Z"/><path class="cls-18" d="M1032,153.77c-7.21,4.17-13,14.26-13,22.55s5.86,11.61,13.08,7.45,13-14.23,13-22.52S1039.18,149.61,1032,153.77Zm.08,27.17c-5.82,3.36-10.59.64-10.6-6s4.71-14.93,10.53-18.29,10.62-.67,10.64,6.06S1037.9,177.56,1032,180.94Z"/></g></g><g class="cls-2"><polygon class="cls-10" points="498.14 555.83 336.64 649.58 404.19 688.58 565.69 594.83 498.14 555.83"/><path class="cls-26" d="M566.6,596a3.15,3.15,0,0,0-.5-.83,1.54,1.54,0,0,0-.41-.36l-161.5,93.75a1.34,1.34,0,0,1,.41.35,3.22,3.22,0,0,1,.5.84c1.11,2.53,1,7.82-.23,8.55l161.5-93.75C567.63,603.84,567.71,598.55,566.6,596Z"/><path class="cls-26" d="M485.05,540.29c-3-6.8-3.58-13.36-1.46-17.85l43.92-97.15L366,519l-43.92,97.15c-2.12,4.49-1.54,11,1.44,17.79a38.18,38.18,0,0,0,6.16,9.78,28.19,28.19,0,0,0,6.95,5.82l161.5-93.75a28.19,28.19,0,0,1-6.95-5.82A38.53,38.53,0,0,1,485.05,540.29Z"/><path class="cls-7" d="M404.19,688.58l-67.55-39c-5.42-3.13-10.09-8.78-13.09-15.54s-3.59-13.35-1.46-17.85L366,519l.31-1.73.26-94.59a9,9,0,0,0-4.2-7.29c-2.26-1.3-4.08-.27-4.09,2.5L358,511.66,314.26,608c-3,6.92-2.16,17.14,2.34,27.38,4.35,10.14,11.88,19.17,20,23.87l67.55,39C406.43,699.59,406.45,689.89,404.19,688.58Z"/><path class="cls-27" d="M527.36,325.74a9.57,9.57,0,0,0-1.56-2.44,7.66,7.66,0,0,0-1.92-1.61,2.83,2.83,0,0,0-2.87-.29l-161.5,93.74a2.88,2.88,0,0,1,2.87.29A7.87,7.87,0,0,1,364.3,417a9.75,9.75,0,0,1,1.56,2.44,8.09,8.09,0,0,1,.72,3.24l-.26,94.59L366,519l161.5-93.74.31-1.74.26-94.58A8,8,0,0,0,527.36,325.74Z"/></g><g id="_1" data-name="1"><polygon class="cls-7" points="106.64 717.67 93.72 710.16 93.52 205.19 106.45 212.7 106.64 717.67"/><polygon class="cls-16" points="106.45 212.7 93.52 205.19 765.66 -182.87 778.59 -175.36 106.45 212.7"/><polygon class="cls-10" points="778.59 -175.36 778.78 329.61 106.64 717.67 106.45 212.7 778.59 -175.36"/><polygon class="cls-7" points="109.39 215.04 775.53 -169.56 775.44 267.87 109.3 652.48 109.39 215.04"/></g><path class="cls-7" d="M351.74,748.82v6.82c0,1.31.86,2.62,2.59,3.62l128.31,74.08a13.85,13.85,0,0,0,12.51,0l400.2-231.06c1.73-1,2.59-2.3,2.59-3.61v-6.62Z"/><path class="cls-10" d="M895.35,595.63,495.15,826.69a13.85,13.85,0,0,1-12.51,0L354.33,752.6c-3.46-2-3.46-5.22,0-7.22l400.2-231.06a13.85,13.85,0,0,1,12.51,0l128.31,74.09C898.8,590.4,898.8,593.63,895.35,595.63Z"/><path class="cls-7" d="M697.72,561.34a1.32,1.32,0,0,1,0-.56,1.32,1.32,0,0,1,0-.56,1.84,1.84,0,0,1,1.11-2l16.43-9.49a6.4,6.4,0,0,1,5.78,0l13.83,8a1.84,1.84,0,0,1,1.1,2,1.32,1.32,0,0,1,0,.56,1.32,1.32,0,0,1,0,.56,1.83,1.83,0,0,1-1.1,1.95l-16.44,9.49a6.34,6.34,0,0,1-5.78,0l-13.82-8A1.82,1.82,0,0,1,697.72,561.34ZM725.36,548l13.82,8a6.34,6.34,0,0,0,5.78,0l16.44-9.48a1.83,1.83,0,0,0,1.1-2,1.37,1.37,0,0,0,0-.57,1.32,1.32,0,0,0,0-.56,1.83,1.83,0,0,0-1.1-1.95l-13.82-8a6.4,6.4,0,0,0-5.78,0L725.36,543a1.83,1.83,0,0,0-1.1,1.95,1.32,1.32,0,0,0,0,.56,1.32,1.32,0,0,0,0,.56A1.81,1.81,0,0,0,725.36,548Zm-53.07,30.64,13.82,8a6.36,6.36,0,0,0,5.79,0l16.43-9.49a1.8,1.8,0,0,0,1.1-2,1.32,1.32,0,0,0,0-.56,1.32,1.32,0,0,0,0-.56,1.81,1.81,0,0,0-1.1-1.95l-13.82-8a6.4,6.4,0,0,0-5.78,0l-16.44,9.49a1.83,1.83,0,0,0-1.1,1.95,1.32,1.32,0,0,0,0,.56,1.32,1.32,0,0,0,0,.56A1.81,1.81,0,0,0,672.29,578.61Zm-213.9,179,13.83,8a6.4,6.4,0,0,0,5.78,0l16.43-9.49a1.84,1.84,0,0,0,1.11-2,1.32,1.32,0,0,0,0-.56,1.37,1.37,0,0,0,0-.57,1.84,1.84,0,0,0-1.11-1.95l-13.82-8a6.4,6.4,0,0,0-5.78,0l-16.44,9.49a1.84,1.84,0,0,0-1.1,1.95,1.32,1.32,0,0,0,0,.56,1.37,1.37,0,0,0,0,.57A1.84,1.84,0,0,0,458.39,757.63Zm57.92-89.12,13.83,8a6.4,6.4,0,0,0,5.78,0L552.35,667a1.82,1.82,0,0,0,1.11-2,1.32,1.32,0,0,0,0-.56,1.32,1.32,0,0,0,0-.56,1.82,1.82,0,0,0-1.11-1.95l-13.82-8a6.34,6.34,0,0,0-5.78,0l-16.44,9.49a1.83,1.83,0,0,0-1.1,2,1.32,1.32,0,0,0,0,.56,1.32,1.32,0,0,0,0,.56A1.83,1.83,0,0,0,516.31,668.51Zm53.07-30.64,13.83,8a6.4,6.4,0,0,0,5.78,0l16.43-9.49a1.8,1.8,0,0,0,1.1-2,1.32,1.32,0,0,0,0-.56,1.32,1.32,0,0,0,0-.56,1.8,1.8,0,0,0-1.1-1.95l-13.82-8a6.4,6.4,0,0,0-5.78,0l-16.44,9.49a1.81,1.81,0,0,0-1.1,1.95,1.32,1.32,0,0,0,0,.56,1.32,1.32,0,0,0,0,.56A1.82,1.82,0,0,0,569.38,637.87Zm53.07-30.64,13.82,8a6.4,6.4,0,0,0,5.78,0l25-14.43a1.82,1.82,0,0,0,1.11-1.95,1.32,1.32,0,0,0,0-.56,1.32,1.32,0,0,0,0-.56,1.82,1.82,0,0,0-1.11-2l-13.82-8a6.4,6.4,0,0,0-5.78,0l-25,14.43a1.81,1.81,0,0,0-1.1,1.95,1.32,1.32,0,0,0,0,.56,1.32,1.32,0,0,0,0,.56A1.82,1.82,0,0,0,622.45,607.23Zm-26.53,15.32,13.82,8a6.4,6.4,0,0,0,5.78,0L632,621a1.81,1.81,0,0,0,1.1-1.95,1.32,1.32,0,0,0,0-.56,1.32,1.32,0,0,0,0-.56,1.81,1.81,0,0,0-1.1-2l-13.83-8a6.4,6.4,0,0,0-5.78,0l-16.43,9.49a1.82,1.82,0,0,0-1.11,2,1.32,1.32,0,0,0,0,.56,1.32,1.32,0,0,0,0,.56A1.83,1.83,0,0,0,595.92,622.55Zm-53.07,30.64,13.82,8a6.4,6.4,0,0,0,5.78,0l16.44-9.49a1.81,1.81,0,0,0,1.1-1.95,1.32,1.32,0,0,0,0-.56,1.32,1.32,0,0,0,0-.56,1.81,1.81,0,0,0-1.1-2l-13.82-8a6.42,6.42,0,0,0-5.79,0l-16.43,9.49a1.8,1.8,0,0,0-1.1,2,1.32,1.32,0,0,0,0,.56,1.32,1.32,0,0,0,0,.56A1.81,1.81,0,0,0,542.85,653.19Zm112.87-37,13.82,8a6.4,6.4,0,0,0,5.78,0l16.44-9.49a1.83,1.83,0,0,0,1.1-1.95,1.32,1.32,0,0,0,0-.56,1.37,1.37,0,0,0,0-.57,1.81,1.81,0,0,0-1.1-1.94l-13.82-8a6.36,6.36,0,0,0-5.79,0l-16.43,9.48a1.84,1.84,0,0,0-1.11,2,1.82,1.82,0,0,0,0,.57,1.75,1.75,0,0,0,0,.56A1.84,1.84,0,0,0,655.72,616.15ZM443.44,738.7l13.83,8a6.34,6.34,0,0,0,5.78,0l16.43-9.48a1.84,1.84,0,0,0,1.11-2,1.37,1.37,0,0,0,0-.57,1.32,1.32,0,0,0,0-.56,1.84,1.84,0,0,0-1.11-2l-13.82-8a6.4,6.4,0,0,0-5.78,0l-16.44,9.49a1.84,1.84,0,0,0-1.1,2,1.32,1.32,0,0,0,0,.56,1.32,1.32,0,0,0,0,.56A1.83,1.83,0,0,0,443.44,738.7ZM629.18,631.47l13.83,8a6.4,6.4,0,0,0,5.78,0L665.22,630a1.84,1.84,0,0,0,1.11-2,1.32,1.32,0,0,0,0-.56,1.32,1.32,0,0,0,0-.56,1.82,1.82,0,0,0-1.11-1.95l-13.82-8a6.4,6.4,0,0,0-5.78,0l-16.44,9.49a1.83,1.83,0,0,0-1.1,1.95,1.37,1.37,0,0,0,0,.57,1.32,1.32,0,0,0,0,.56A1.83,1.83,0,0,0,629.18,631.47Zm-26.53,15.32,13.82,8a6.4,6.4,0,0,0,5.78,0l16.44-9.49a1.83,1.83,0,0,0,1.1-1.95,1.32,1.32,0,0,0,0-.56,1.32,1.32,0,0,0,0-.56,1.81,1.81,0,0,0-1.1-2l-13.82-8a6.34,6.34,0,0,0-5.78,0l-16.44,9.48a1.83,1.83,0,0,0-1.1,2,1.37,1.37,0,0,0,0,.57,1.32,1.32,0,0,0,0,.56A1.83,1.83,0,0,0,602.65,646.79Zm-26.53,15.32,13.82,8a6.4,6.4,0,0,0,5.78,0l16.43-9.49a1.84,1.84,0,0,0,1.11-2,1.32,1.32,0,0,0,0-.56,1.37,1.37,0,0,0,0-.57,1.84,1.84,0,0,0-1.11-1.95l-13.82-8a6.34,6.34,0,0,0-5.78,0l-16.43,9.48A1.84,1.84,0,0,0,575,659a1.32,1.32,0,0,0,0,.56,1.37,1.37,0,0,0,0,.57A1.84,1.84,0,0,0,576.12,662.11ZM470,723.39l13.82,8a6.34,6.34,0,0,0,5.78,0L506,721.88a1.83,1.83,0,0,0,1.1-2,1.32,1.32,0,0,0,0-.56,1.37,1.37,0,0,0,0-.57,1.83,1.83,0,0,0-1.1-1.95l-13.82-8a6.42,6.42,0,0,0-5.79,0L470,718.36a1.81,1.81,0,0,0-1.1,1.95,1.32,1.32,0,0,0,0,.56,1.37,1.37,0,0,0,0,.57A1.81,1.81,0,0,0,470,723.39Zm26.53-15.32,13.82,8a6.42,6.42,0,0,0,5.79,0l16.43-9.49a1.81,1.81,0,0,0,1.1-1.95,1.32,1.32,0,0,0,0-.56,1.37,1.37,0,0,0,0-.57,1.81,1.81,0,0,0-1.1-2c-20.33-11.74-13.46-11.52-36,1.51a1.83,1.83,0,0,0-1.1,2,1.32,1.32,0,0,0,0,.56,1.37,1.37,0,0,0,0,.57A1.83,1.83,0,0,0,496.51,708.07Zm26.54-15.32,13.82,8a6.4,6.4,0,0,0,5.78,0l16.44-9.49a1.84,1.84,0,0,0,1.1-2,1.32,1.32,0,0,0,0-.56,1.37,1.37,0,0,0,0-.57,1.84,1.84,0,0,0-1.1-1.95l-13.83-8a6.4,6.4,0,0,0-5.78,0l-16.43,9.49a1.84,1.84,0,0,0-1.11,1.95,1.32,1.32,0,0,0,0,.56,1.37,1.37,0,0,0,0,.57A1.84,1.84,0,0,0,523.05,692.75Zm26.53-15.32c13.57,7.83,15.92,10.1,19.61,8l16.43-9.49a1.81,1.81,0,0,0,1.1-1.95,1.32,1.32,0,0,0,0-.56,1.37,1.37,0,0,0,0-.57,1.81,1.81,0,0,0-1.1-2l-13.82-8a6.4,6.4,0,0,0-5.78,0l-16.44,9.49a1.83,1.83,0,0,0-1.1,2,1.32,1.32,0,0,0,0,.56,1.37,1.37,0,0,0,0,.57A1.83,1.83,0,0,0,549.58,677.43Zm-47.31,101a1.32,1.32,0,0,0,0-.56,1.32,1.32,0,0,0,0-.56,1.83,1.83,0,0,0-1.1-1.95l-13.82-8a6.42,6.42,0,0,0-5.79,0l-25,14.43a1.81,1.81,0,0,0-1.1,2,1.32,1.32,0,0,0,0,.56,1.32,1.32,0,0,0,0,.56,1.81,1.81,0,0,0,1.1,1.95l13.82,8a6.42,6.42,0,0,0,5.79,0l25-14.43A1.81,1.81,0,0,0,502.27,778.4ZM469,769.49a1.32,1.32,0,0,0,0-.56,1.37,1.37,0,0,0,0-.57,1.83,1.83,0,0,0-1.1-2l-13.82-8a6.4,6.4,0,0,0-5.78,0l-16.44,9.49a1.83,1.83,0,0,0-1.1,2,1.32,1.32,0,0,0,0,.56,1.37,1.37,0,0,0,0,.57,1.83,1.83,0,0,0,1.1,2l13.82,8a6.4,6.4,0,0,0,5.78,0l16.44-9.49A1.83,1.83,0,0,0,469,769.49Zm20.78-85.66c19.92,11.5,13,11.77,36-1.51a1.82,1.82,0,0,0,1.1-2,1.32,1.32,0,0,0,0-.56,1.32,1.32,0,0,0,0-.56,1.81,1.81,0,0,0-1.1-2l-13.82-8a6.4,6.4,0,0,0-5.78,0l-16.44,9.49a1.81,1.81,0,0,0-1.1,2,1.32,1.32,0,0,0,0,.56,1.32,1.32,0,0,0,0,.56A1.83,1.83,0,0,0,489.78,683.83Zm292.29-66.74a1.32,1.32,0,0,0,0-.56,1.32,1.32,0,0,0,0-.56,1.82,1.82,0,0,0-1.11-2l-13.82-8a6.4,6.4,0,0,0-5.78,0l-16.44,9.49a1.83,1.83,0,0,0-1.1,2,1.32,1.32,0,0,0,0,.56,1.32,1.32,0,0,0,0,.56,1.83,1.83,0,0,0,1.1,1.95l13.83,8a6.4,6.4,0,0,0,5.78,0L781,619A1.82,1.82,0,0,0,782.07,617.09Zm-328,133.48a1.37,1.37,0,0,0,0-.57,1.32,1.32,0,0,0,0-.56,1.83,1.83,0,0,0-1.1-2l-13.82-8a6.4,6.4,0,0,0-5.78,0l-25,14.43a1.84,1.84,0,0,0-1.11,1.95,1.32,1.32,0,0,0,0,.56,1.32,1.32,0,0,0,0,.56,1.82,1.82,0,0,0,1.11,2l13.82,8a6.34,6.34,0,0,0,5.78,0l25-14.42A1.83,1.83,0,0,0,454.05,750.57Zm9.2-51.42,13.82,8a6.4,6.4,0,0,0,5.78,0l16.44-9.49a1.84,1.84,0,0,0,1.1-1.95,1.32,1.32,0,0,0,0-.56,1.32,1.32,0,0,0,0-.56,1.83,1.83,0,0,0-1.1-2l-13.83-8a6.4,6.4,0,0,0-5.78,0l-16.43,9.49a1.82,1.82,0,0,0-1.11,2,1.32,1.32,0,0,0,0,.56,1.32,1.32,0,0,0,0,.56A1.84,1.84,0,0,0,463.25,699.15Zm-26.54,15.32,13.82,8a6.42,6.42,0,0,0,5.79,0L472.75,713a1.81,1.81,0,0,0,1.1-2,1.32,1.32,0,0,0,0-.56,1.32,1.32,0,0,0,0-.56,1.8,1.8,0,0,0-1.1-1.95l-13.82-8a6.34,6.34,0,0,0-5.78,0l-16.44,9.49a1.81,1.81,0,0,0-1.1,1.95,1.32,1.32,0,0,0,0,.56,1.32,1.32,0,0,0,0,.56A1.83,1.83,0,0,0,436.71,714.47Zm-15.92,27.18a1.75,1.75,0,0,0,0-.56,1.75,1.75,0,0,0,0-.56,1.82,1.82,0,0,0-1.11-1.95l-13.82-8a6.34,6.34,0,0,0-5.78,0l-16.44,9.48a1.83,1.83,0,0,0-1.1,1.95,1.37,1.37,0,0,0,0,.57,1.32,1.32,0,0,0,0,.56,1.83,1.83,0,0,0,1.1,2l13.83,8a6.4,6.4,0,0,0,5.78,0l16.43-9.49A1.84,1.84,0,0,0,420.79,741.65Zm-10.61-11.86,13.82,8a6.4,6.4,0,0,0,5.78,0l16.44-9.49a1.83,1.83,0,0,0,1.1-1.95,1.32,1.32,0,0,0,0-.56,1.32,1.32,0,0,0,0-.56,1.81,1.81,0,0,0-1.1-2l-13.82-8a6.36,6.36,0,0,0-5.79,0l-16.43,9.49a1.82,1.82,0,0,0-1.11,2,1.32,1.32,0,0,0,0,.56,1.32,1.32,0,0,0,0,.56A1.84,1.84,0,0,0,410.18,729.79ZM859.39,599.33a1.83,1.83,0,0,0-1.1-2l-13.82-8a6.4,6.4,0,0,0-5.78,0l-16.44,9.49a1.83,1.83,0,0,0-1.1,2,1.32,1.32,0,0,0,0,.56,1.32,1.32,0,0,0,0,.56,1.81,1.81,0,0,0,1.1,1.95l13.82,8a6.34,6.34,0,0,0,5.78,0l16.44-9.49a1.81,1.81,0,0,0,1.1-1.94,1.37,1.37,0,0,0,0-.57A1.32,1.32,0,0,0,859.39,599.33ZM763.57,573.7l-18.2-10.51a8,8,0,0,0-7.19,0l-41.64,24a2.28,2.28,0,0,0-1.39,2.35,1.32,1.32,0,0,0,0,.56,1.32,1.32,0,0,0,0,.56,2.29,2.29,0,0,0,1.39,2.36l36.3,21a8,8,0,0,0,7.18,0l69.08-39.89a2.3,2.3,0,0,0,1.4-2.35,1.75,1.75,0,0,0,0-.56,1.82,1.82,0,0,0,0-.57,2.3,2.3,0,0,0-1.4-2.35l-13.51-7.8a5.3,5.3,0,0,0-4.78,0l-23.2,13.21A4.52,4.52,0,0,1,763.57,573.7ZM740,637.45l-13.82-8a6.4,6.4,0,0,0-5.78,0L703.94,639a1.84,1.84,0,0,0-1.11,1.95,1.32,1.32,0,0,0,0,.56,1.37,1.37,0,0,0,0,.57,1.84,1.84,0,0,0,1.11,2l13.82,8a6.4,6.4,0,0,0,5.78,0L740,642.48a1.84,1.84,0,0,0,1.11-2,1.32,1.32,0,0,0,0-.56,1.37,1.37,0,0,0,0-.57A1.84,1.84,0,0,0,740,637.45ZM807.5,598.7l-13.82-8a6.42,6.42,0,0,0-5.79,0l-16.43,9.49a1.8,1.8,0,0,0-1.1,1.95,1.32,1.32,0,0,0,0,.56,1.32,1.32,0,0,0,0,.56,1.81,1.81,0,0,0,1.1,2l13.82,8a6.4,6.4,0,0,0,5.78,0l16.44-9.49a1.81,1.81,0,0,0,1.1-2,1.32,1.32,0,0,0,0-.56,1.32,1.32,0,0,0,0-.56A1.81,1.81,0,0,0,807.5,598.7ZM686.91,668.09l-13.83-8a6.4,6.4,0,0,0-5.78,0l-16.43,9.49a1.84,1.84,0,0,0-1.11,1.95,1.32,1.32,0,0,0,0,.56,1.32,1.32,0,0,0,0,.56,1.82,1.82,0,0,0,1.11,2l13.82,8a6.34,6.34,0,0,0,5.78,0l16.44-9.48a1.84,1.84,0,0,0,1.1-2,1.37,1.37,0,0,0,0-.57,1.32,1.32,0,0,0,0-.56A1.84,1.84,0,0,0,686.91,668.09Zm110-81.25a1.32,1.32,0,0,0,0,.56,1.32,1.32,0,0,0,0,.56,1.82,1.82,0,0,0,1.1,1.95l13.82,8a6.42,6.42,0,0,0,5.79,0L834,588.4a1.82,1.82,0,0,0,1.11-1.95,1.32,1.32,0,0,0,0-.56,1.32,1.32,0,0,0,0-.56,1.82,1.82,0,0,0-1.11-2l-13.82-8a6.4,6.4,0,0,0-5.78,0L798,584.89A1.81,1.81,0,0,0,796.89,586.84ZM580.77,729.37l-13.82-8a6.4,6.4,0,0,0-5.78,0l-16.44,9.49a1.83,1.83,0,0,0-1.1,2,1.32,1.32,0,0,0,0,.56,1.32,1.32,0,0,0,0,.56,1.81,1.81,0,0,0,1.1,1.95l13.82,8a6.34,6.34,0,0,0,5.78,0l16.44-9.49a1.81,1.81,0,0,0,1.1-1.95,1.32,1.32,0,0,0,0-.56,1.32,1.32,0,0,0,0-.56A1.83,1.83,0,0,0,580.77,729.37Zm53.07-30.64-13.82-8a6.42,6.42,0,0,0-5.79,0l-16.43,9.49a1.84,1.84,0,0,0-1.11,2,1.75,1.75,0,0,0,0,.56,1.75,1.75,0,0,0,0,.56,1.82,1.82,0,0,0,1.11,2l13.82,8a6.34,6.34,0,0,0,5.78,0l16.44-9.48a1.83,1.83,0,0,0,1.1-2,1.37,1.37,0,0,0,0-.57,1.32,1.32,0,0,0,0-.56A1.83,1.83,0,0,0,633.84,698.73ZM607.3,714.05l-13.82-8a6.4,6.4,0,0,0-5.78,0l-16.44,9.49a1.83,1.83,0,0,0-1.1,2,1.32,1.32,0,0,0,0,.56,1.32,1.32,0,0,0,0,.56,1.81,1.81,0,0,0,1.1,2l13.83,8a6.34,6.34,0,0,0,5.78,0l16.43-9.48a1.84,1.84,0,0,0,1.11-2,1.37,1.37,0,0,0,0-.57,1.32,1.32,0,0,0,0-.56A1.84,1.84,0,0,0,607.3,714.05Zm-53.07,30.64-13.82-8a6.4,6.4,0,0,0-5.78,0L518.2,746.2a1.83,1.83,0,0,0-1.11,1.95,1.32,1.32,0,0,0,0,.56,1.32,1.32,0,0,0,0,.56,1.82,1.82,0,0,0,1.11,2l13.82,8a6.34,6.34,0,0,0,5.78,0l16.43-9.49a1.82,1.82,0,0,0,1.11-2,1.32,1.32,0,0,0,0-.56,1.32,1.32,0,0,0,0-.56A1.84,1.84,0,0,0,554.23,744.69ZM527.7,760l-13.82-8a6.4,6.4,0,0,0-5.78,0l-16.44,9.49a1.83,1.83,0,0,0-1.1,2,1.32,1.32,0,0,0,0,.56,1.32,1.32,0,0,0,0,.56,1.81,1.81,0,0,0,1.1,1.95l13.82,8a6.36,6.36,0,0,0,5.79,0L527.7,765a1.8,1.8,0,0,0,1.1-1.95,1.32,1.32,0,0,0,0-.56,1.32,1.32,0,0,0,0-.56A1.81,1.81,0,0,0,527.7,760Zm132.67-76.6-13.82-8a6.4,6.4,0,0,0-5.78,0l-16.44,9.49a1.83,1.83,0,0,0-1.1,2,1.32,1.32,0,0,0,0,.56,1.32,1.32,0,0,0,0,.56,1.81,1.81,0,0,0,1.1,2l13.82,8a6.36,6.36,0,0,0,5.79,0l16.43-9.48a1.81,1.81,0,0,0,1.1-2,1.37,1.37,0,0,0,0-.57,1.32,1.32,0,0,0,0-.56A1.81,1.81,0,0,0,660.37,683.41Zm53.07-30.64-13.82-8a6.4,6.4,0,0,0-5.78,0l-16.44,9.49a1.83,1.83,0,0,0-1.1,2,1.32,1.32,0,0,0,0,.56,1.37,1.37,0,0,0,0,.57,1.83,1.83,0,0,0,1.1,1.95l13.82,8a6.4,6.4,0,0,0,5.78,0l16.44-9.49a1.83,1.83,0,0,0,1.1-1.95,1.32,1.32,0,0,0,0-.56,1.37,1.37,0,0,0,0-.57A1.83,1.83,0,0,0,713.44,652.77ZM569.09,763.56l-13.83-8a6.34,6.34,0,0,0-5.78,0l-16.43,9.49a1.82,1.82,0,0,0-1.11,1.95,1.32,1.32,0,0,0,0,.56,1.32,1.32,0,0,0,0,.56,1.84,1.84,0,0,0,1.11,2l13.82,8a6.4,6.4,0,0,0,5.78,0l16.44-9.49a1.83,1.83,0,0,0,1.1-2,1.32,1.32,0,0,0,0-.56,1.32,1.32,0,0,0,0-.56A1.81,1.81,0,0,0,569.09,763.56Zm26.53-15.32-13.82-8a6.34,6.34,0,0,0-5.78,0l-16.44,9.49a1.81,1.81,0,0,0-1.1,1.94,1.37,1.37,0,0,0,0,.57,1.32,1.32,0,0,0,0,.56,1.83,1.83,0,0,0,1.1,1.95l13.82,8a6.4,6.4,0,0,0,5.78,0l16.44-9.49a1.83,1.83,0,0,0,1.1-2,1.32,1.32,0,0,0,0-.56,1.32,1.32,0,0,0,0-.56A1.81,1.81,0,0,0,595.62,748.24Zm-53.07,30.64-13.82-8a6.34,6.34,0,0,0-5.78,0l-16.44,9.49a1.81,1.81,0,0,0-1.1,2,1.32,1.32,0,0,0,0,.56,1.32,1.32,0,0,0,0,.56,1.83,1.83,0,0,0,1.1,1.95l13.82,8a6.42,6.42,0,0,0,5.79,0l16.43-9.49a1.84,1.84,0,0,0,1.11-1.95,1.75,1.75,0,0,0,0-.56,1.75,1.75,0,0,0,0-.56A1.82,1.82,0,0,0,542.55,778.88ZM516,794.2l-13.82-8a6.36,6.36,0,0,0-5.79,0L480,795.7a1.81,1.81,0,0,0-1.1,1.95,1.37,1.37,0,0,0,0,.57,1.32,1.32,0,0,0,0,.56,1.81,1.81,0,0,0,1.1,2l13.82,8a6.4,6.4,0,0,0,5.78,0L516,799.22a1.83,1.83,0,0,0,1.1-2,1.32,1.32,0,0,0,0-.56,1.32,1.32,0,0,0,0-.56A1.81,1.81,0,0,0,516,794.2ZM715.26,623.6l-13.82-8a6.4,6.4,0,0,0-5.78,0l-25,14.43a1.8,1.8,0,0,0-1.1,2,1.32,1.32,0,0,0,0,.56,1.32,1.32,0,0,0,0,.56,1.81,1.81,0,0,0,1.1,2l13.82,8a6.4,6.4,0,0,0,5.78,0l25-14.43a1.82,1.82,0,0,0,1.11-2,1.75,1.75,0,0,0,0-.56,1.75,1.75,0,0,0,0-.56A1.82,1.82,0,0,0,715.26,623.6Zm48,27.87-13.82-8a6.4,6.4,0,0,0-5.78,0l-25,14.43a1.8,1.8,0,0,0-1.1,2,1.32,1.32,0,0,0,0,.56,1.32,1.32,0,0,0,0,.56,1.8,1.8,0,0,0,1.1,2l13.82,8a6.4,6.4,0,0,0,5.78,0l25-14.43a1.8,1.8,0,0,0,1.1-2,1.32,1.32,0,0,0,0-.56,1.32,1.32,0,0,0,0-.56A1.8,1.8,0,0,0,763.22,651.47Zm68.53-38.77-13.82-8a6.4,6.4,0,0,0-5.78,0l-16.43,9.49a1.84,1.84,0,0,0-1.11,1.95,1.32,1.32,0,0,0,0,.56,1.32,1.32,0,0,0,0,.56,1.82,1.82,0,0,0,1.11,2l13.82,8a6.34,6.34,0,0,0,5.78,0l16.43-9.48a1.84,1.84,0,0,0,1.11-2,1.37,1.37,0,0,0,0-.57,1.32,1.32,0,0,0,0-.56A1.84,1.84,0,0,0,831.75,612.7ZM805.22,628l-13.82-8a6.4,6.4,0,0,0-5.78,0l-16.44,9.49a1.82,1.82,0,0,0-1.1,2,1.32,1.32,0,0,0,0,.56,1.32,1.32,0,0,0,0,.56,1.81,1.81,0,0,0,1.1,1.95l13.82,8a6.34,6.34,0,0,0,5.78,0L805.22,633a1.81,1.81,0,0,0,1.1-1.95,1.32,1.32,0,0,0,0-.56,1.32,1.32,0,0,0,0-.56A1.83,1.83,0,0,0,805.22,628Zm-76.49,43.64-13.82-8a6.42,6.42,0,0,0-5.79,0l-122.89,71a1.84,1.84,0,0,0-1.1,2,1.32,1.32,0,0,0,0,.56,1.32,1.32,0,0,0,0,.56,1.83,1.83,0,0,0,1.1,1.95l13.83,8a6.34,6.34,0,0,0,5.78,0l122.89-71a1.81,1.81,0,0,0,1.1-1.95,1.32,1.32,0,0,0,0-.56,1.32,1.32,0,0,0,0-.56A1.81,1.81,0,0,0,728.73,671.66ZM627.11,674.5l-13.83-8a6.34,6.34,0,0,0-5.78,0L591.07,676a1.84,1.84,0,0,0-1.11,2,1.37,1.37,0,0,0,0,.57,1.32,1.32,0,0,0,0,.56,1.84,1.84,0,0,0,1.11,1.95l13.82,8a6.4,6.4,0,0,0,5.78,0l16.44-9.49a1.83,1.83,0,0,0,1.1-1.95,1.32,1.32,0,0,0,0-.56,1.32,1.32,0,0,0,0-.56A1.83,1.83,0,0,0,627.11,674.5Zm-26.54,15.32-13.82-8a6.34,6.34,0,0,0-5.78,0l-16.44,9.48a1.83,1.83,0,0,0-1.1,1.95,1.37,1.37,0,0,0,0,.57,1.32,1.32,0,0,0,0,.56,1.83,1.83,0,0,0,1.1,2l13.82,8a6.42,6.42,0,0,0,5.79,0l16.43-9.49a1.81,1.81,0,0,0,1.1-2,1.32,1.32,0,0,0,0-.56,1.32,1.32,0,0,0,0-.56A1.8,1.8,0,0,0,600.57,689.82Zm53.07-30.64-13.82-8a6.34,6.34,0,0,0-5.78,0l-16.44,9.49a1.81,1.81,0,0,0-1.1,1.95,1.32,1.32,0,0,0,0,.56,1.32,1.32,0,0,0,0,.56,1.83,1.83,0,0,0,1.1,2l13.82,8a6.4,6.4,0,0,0,5.78,0l16.44-9.49a1.83,1.83,0,0,0,1.1-2,1.32,1.32,0,0,0,0-.56,1.32,1.32,0,0,0,0-.56A1.81,1.81,0,0,0,653.64,659.18Zm94.82-100.31a1.32,1.32,0,0,0,0,.56,1.37,1.37,0,0,0,0,.57,1.8,1.8,0,0,0,1.1,1.94l13.82,8a6.4,6.4,0,0,0,5.78,0l16.44-9.49a1.83,1.83,0,0,0,1.1-2,1.37,1.37,0,0,0,0-.57,1.32,1.32,0,0,0,0-.56,1.83,1.83,0,0,0-1.1-2l-13.82-8a6.42,6.42,0,0,0-5.79,0l-16.43,9.49A1.81,1.81,0,0,0,748.46,558.87Zm-68.29,85-13.82-8a6.34,6.34,0,0,0-5.78,0l-16.44,9.49a1.83,1.83,0,0,0-1.1,2,1.32,1.32,0,0,0,0,.56,1.32,1.32,0,0,0,0,.56,1.84,1.84,0,0,0,1.1,1.95l13.83,8a6.4,6.4,0,0,0,5.78,0l16.43-9.49a1.84,1.84,0,0,0,1.11-2,1.32,1.32,0,0,0,0-.56,1.32,1.32,0,0,0,0-.56A1.82,1.82,0,0,0,680.17,643.86ZM574,705.14l-13.83-8a6.34,6.34,0,0,0-5.78,0L538,706.64a1.84,1.84,0,0,0-1.11,2,1.37,1.37,0,0,0,0,.57,1.32,1.32,0,0,0,0,.56,1.84,1.84,0,0,0,1.11,1.95l13.82,8a6.4,6.4,0,0,0,5.78,0L574,710.16a1.83,1.83,0,0,0,1.1-1.95,1.32,1.32,0,0,0,0-.56,1.37,1.37,0,0,0,0-.57A1.81,1.81,0,0,0,574,705.14ZM521,735.77l-13.82-8a6.36,6.36,0,0,0-5.79,0l-16.43,9.48a1.83,1.83,0,0,0-1.1,2,1.37,1.37,0,0,0,0,.57,1.32,1.32,0,0,0,0,.56,1.83,1.83,0,0,0,1.1,1.95l13.82,8a6.4,6.4,0,0,0,5.78,0L521,740.8a1.83,1.83,0,0,0,1.1-1.95,1.32,1.32,0,0,0,0-.56,1.37,1.37,0,0,0,0-.57A1.83,1.83,0,0,0,521,735.77Zm26.53-15.31-13.82-8a6.4,6.4,0,0,0-5.78,0L511.46,722a1.83,1.83,0,0,0-1.1,1.95,1.37,1.37,0,0,0,0,.57,1.32,1.32,0,0,0,0,.56,1.83,1.83,0,0,0,1.1,2l13.83,8a6.4,6.4,0,0,0,5.78,0l16.43-9.49a1.81,1.81,0,0,0,1.1-2,1.32,1.32,0,0,0,0-.56,1.32,1.32,0,0,0,0-.56A1.8,1.8,0,0,0,547.5,720.46Z"/><path class="cls-16" d="M419.68,741.18l-16.43,9.49a6.4,6.4,0,0,1-5.78,0l-13.83-8c-1.59-.92-1.59-2.41,0-3.33l16.44-9.49a6.34,6.34,0,0,1,5.78,0l13.82,8C421.28,738.77,421.28,740.26,419.68,741.18Zm26.54-18.65-13.82-8a6.36,6.36,0,0,0-5.79,0L410.18,724c-1.6.92-1.6,2.41,0,3.33l13.82,8a6.34,6.34,0,0,0,5.78,0l16.44-9.49C447.81,724.94,447.81,723.45,446.22,722.53Zm26.53-15.32-13.82-8a6.34,6.34,0,0,0-5.78,0l-16.44,9.49c-1.59.92-1.59,2.41,0,3.33l13.82,8a6.36,6.36,0,0,0,5.79,0l16.43-9.49C474.35,709.62,474.35,708.13,472.75,707.21Zm26.54-15.32-13.83-8a6.34,6.34,0,0,0-5.78,0l-16.43,9.49c-1.6.92-1.6,2.41,0,3.33l13.82,8a6.34,6.34,0,0,0,5.78,0l16.44-9.48C500.88,694.3,500.88,692.81,499.29,691.89Zm26.53-15.32-13.82-8a6.34,6.34,0,0,0-5.78,0l-16.44,9.49c-1.6.92-1.6,2.41,0,3.33l13.82,8a6.34,6.34,0,0,0,5.78,0l16.44-9.48C527.42,679,527.42,677.49,525.82,676.57Zm26.53-15.32-13.82-8a6.4,6.4,0,0,0-5.78,0l-16.44,9.49c-1.59.92-1.59,2.41,0,3.33l13.83,8a6.4,6.4,0,0,0,5.78,0l16.43-9.49C554,663.66,554,662.17,552.35,661.25Zm26.54-15.32-13.82-8a6.42,6.42,0,0,0-5.79,0l-16.43,9.49c-1.6.92-1.6,2.41,0,3.33l13.82,8a6.4,6.4,0,0,0,5.78,0l16.44-9.49C580.48,648.34,580.48,646.85,578.89,645.93Zm26.53-15.32-13.82-8a6.4,6.4,0,0,0-5.78,0l-16.44,9.49c-1.59.92-1.59,2.41,0,3.34l13.82,8a6.36,6.36,0,0,0,5.79,0L605.42,634C607,633,607,631.53,605.42,630.61ZM632,615.29l-13.83-8a6.4,6.4,0,0,0-5.78,0l-16.43,9.49c-1.6.92-1.6,2.41,0,3.34l13.82,8a6.4,6.4,0,0,0,5.78,0L632,618.63C633.55,617.7,633.55,616.21,632,615.29ZM667,595l-13.82-8a6.4,6.4,0,0,0-5.78,0l-25,14.43c-1.59.92-1.59,2.41,0,3.34l13.82,8a6.42,6.42,0,0,0,5.79,0l25-14.43C668.64,597.45,668.64,596,667,595ZM781,613.29l-13.82-8a6.4,6.4,0,0,0-5.78,0l-16.44,9.49c-1.59.92-1.59,2.41,0,3.33l13.83,8a6.34,6.34,0,0,0,5.78,0L781,616.63C782.56,615.7,782.56,614.21,781,613.29ZM807.5,598l-13.82-8a6.42,6.42,0,0,0-5.79,0l-16.43,9.49c-1.6.92-1.6,2.41,0,3.33l13.82,8a6.34,6.34,0,0,0,5.78,0l16.44-9.48C809.09,600.38,809.09,598.89,807.5,598ZM834,582.65l-13.82-8a6.4,6.4,0,0,0-5.78,0L798,584.16c-1.59.92-1.59,2.41,0,3.34l13.82,8a6.42,6.42,0,0,0,5.79,0L834,586C835.63,585.06,835.63,583.57,834,582.65Zm-28.81,44.64-13.82-8a6.4,6.4,0,0,0-5.78,0l-16.44,9.49c-1.6.92-1.6,2.42,0,3.34l13.82,8a6.4,6.4,0,0,0,5.78,0l16.44-9.49C806.82,629.71,806.82,628.21,805.22,627.29ZM831.75,612l-13.82-8a6.4,6.4,0,0,0-5.78,0l-16.43,9.49c-1.6.92-1.6,2.42,0,3.34l13.82,8a6.4,6.4,0,0,0,5.78,0l16.43-9.49C833.35,614.39,833.35,612.89,831.75,612Zm26.54-15.32-13.82-8a6.4,6.4,0,0,0-5.78,0l-16.44,9.49c-1.6.92-1.6,2.42,0,3.34l13.82,8a6.4,6.4,0,0,0,5.78,0L858.29,600C859.89,599.07,859.89,597.57,858.29,596.65ZM453,746.76l-13.82-8a6.4,6.4,0,0,0-5.78,0l-25,14.43c-1.6.92-1.6,2.42,0,3.34l13.82,8a6.4,6.4,0,0,0,5.78,0l25-14.43C454.55,749.18,454.55,747.68,453,746.76Zm26.53-15.32-13.82-8a6.4,6.4,0,0,0-5.78,0L443.44,733c-1.59.92-1.59,2.42,0,3.34l13.83,8a6.4,6.4,0,0,0,5.78,0l16.43-9.49C481.08,733.86,481.08,732.37,479.48,731.44ZM506,716.12l-13.82-8a6.42,6.42,0,0,0-5.79,0L470,717.63c-1.6.93-1.6,2.42,0,3.34l13.82,8a6.4,6.4,0,0,0,5.78,0L506,719.46C507.61,718.54,507.61,717.05,506,716.12Zm26.53-15.32-13.82-8a6.4,6.4,0,0,0-5.78,0l-16.44,9.49c-1.59.93-1.59,2.42,0,3.34l13.82,8a6.42,6.42,0,0,0,5.79,0l16.43-9.49C534.15,703.22,534.15,701.73,532.55,700.8Zm26.54-15.32-13.83-8a6.4,6.4,0,0,0-5.78,0L523.05,687c-1.6.93-1.6,2.42,0,3.34l13.82,8a6.4,6.4,0,0,0,5.78,0l16.44-9.49C560.68,687.9,560.68,686.41,559.09,685.48Zm26.53-15.31-13.82-8a6.4,6.4,0,0,0-5.78,0l-16.44,9.49c-1.6.93-1.6,2.42,0,3.34l13.82,8a6.42,6.42,0,0,0,5.79,0l16.43-9.49C587.22,672.58,587.22,671.09,585.62,670.17Zm26.53-15.32-13.82-8a6.4,6.4,0,0,0-5.78,0l-16.43,9.49c-1.6.93-1.6,2.42,0,3.34l13.82,8a6.4,6.4,0,0,0,5.78,0l16.43-9.49C613.75,657.26,613.75,655.77,612.15,654.85Zm26.54-15.33-13.82-8a6.34,6.34,0,0,0-5.78,0L602.65,641c-1.6.93-1.6,2.42,0,3.34l13.82,8a6.4,6.4,0,0,0,5.78,0l16.44-9.49C640.29,641.94,640.29,640.45,638.69,639.52Zm26.53-15.31-13.82-8a6.34,6.34,0,0,0-5.78,0l-16.44,9.48c-1.59.93-1.59,2.42,0,3.34L643,637a6.34,6.34,0,0,0,5.78,0l16.43-9.49C666.82,626.62,666.82,625.13,665.22,624.21Zm26.54-15.32-13.82-8a6.36,6.36,0,0,0-5.79,0l-16.43,9.48c-1.6.93-1.6,2.42,0,3.34l13.82,8a6.4,6.4,0,0,0,5.78,0l16.44-9.49C693.35,611.3,693.35,609.81,691.76,608.89ZM467.9,765.68l-13.82-8a6.4,6.4,0,0,0-5.78,0l-16.44,9.49c-1.6.93-1.6,2.42,0,3.34l13.82,8a6.4,6.4,0,0,0,5.78,0L467.9,769C469.5,768.1,469.5,766.61,467.9,765.68Zm26.53-15.31-13.82-8a6.4,6.4,0,0,0-5.78,0l-16.43,9.49c-1.6.93-1.6,2.42,0,3.34l13.82,8a6.4,6.4,0,0,0,5.78,0l16.43-9.49C496,752.78,496,751.29,494.43,750.37ZM521,735l-13.82-8a6.42,6.42,0,0,0-5.79,0l-16.43,9.49c-1.6.93-1.6,2.42,0,3.34l13.82,8a6.4,6.4,0,0,0,5.78,0L521,738.38C522.56,737.46,522.56,736,521,735Zm26.53-15.32-13.82-8a6.34,6.34,0,0,0-5.78,0l-16.44,9.48c-1.59.93-1.59,2.42,0,3.34l13.83,8a6.4,6.4,0,0,0,5.78,0l16.43-9.49C549.1,722.14,549.1,720.65,547.5,719.72ZM516,793.47l-13.82-8a6.36,6.36,0,0,0-5.79,0L480,795c-1.6.92-1.6,2.41,0,3.33l13.82,8a6.34,6.34,0,0,0,5.78,0L516,796.8C517.61,795.88,517.61,794.39,516,793.47Zm26.53-15.32-13.82-8a6.34,6.34,0,0,0-5.78,0l-16.44,9.48c-1.59.93-1.59,2.42,0,3.34l13.82,8a6.36,6.36,0,0,0,5.79,0l16.43-9.49C544.15,780.56,544.15,779.07,542.55,778.15Zm26.54-15.32-13.83-8a6.34,6.34,0,0,0-5.78,0l-16.43,9.49c-1.6.92-1.6,2.41,0,3.33l13.82,8a6.34,6.34,0,0,0,5.78,0l16.44-9.49C570.68,765.24,570.68,763.75,569.09,762.83Zm26.53-15.32-13.82-8a6.34,6.34,0,0,0-5.78,0L559.58,749c-1.6.92-1.6,2.41,0,3.33l13.82,8a6.34,6.34,0,0,0,5.78,0l16.44-9.48C597.22,749.92,597.22,748.43,595.62,747.51Zm167.6-96.77-13.82-8a6.4,6.4,0,0,0-5.78,0l-25,14.43c-1.6.92-1.6,2.41,0,3.34l13.82,8a6.4,6.4,0,0,0,5.78,0l25-14.43C764.82,653.16,764.82,651.66,763.22,650.74ZM574,704.41l-13.82-8a6.36,6.36,0,0,0-5.79,0L538,705.91c-1.6.93-1.6,2.42,0,3.34l13.82,8a6.4,6.4,0,0,0,5.78,0L574,707.74C575.63,706.82,575.63,705.33,574,704.41Zm26.53-15.32-13.82-8a6.34,6.34,0,0,0-5.78,0l-16.44,9.49c-1.59.92-1.59,2.41,0,3.33l13.82,8a6.42,6.42,0,0,0,5.79,0l16.43-9.49C602.17,691.5,602.17,690,600.57,689.09Zm26.54-15.32-13.83-8a6.34,6.34,0,0,0-5.78,0l-16.43,9.49c-1.6.92-1.6,2.41,0,3.33l13.82,8a6.34,6.34,0,0,0,5.78,0l16.44-9.49C628.7,676.18,628.7,674.69,627.11,673.77Zm26.53-15.32-13.82-8a6.34,6.34,0,0,0-5.78,0L617.6,660c-1.6.92-1.6,2.41,0,3.33l13.82,8a6.34,6.34,0,0,0,5.78,0l16.44-9.49C655.24,660.86,655.24,659.37,653.64,658.45Zm26.53-15.32-13.82-8a6.34,6.34,0,0,0-5.78,0l-16.44,9.49c-1.59.92-1.59,2.41,0,3.33L658,656a6.34,6.34,0,0,0,5.78,0l16.43-9.49C681.77,645.54,681.77,644.05,680.17,643.13Zm35.09-20.26-13.82-8a6.4,6.4,0,0,0-5.78,0l-25,14.43c-1.6.92-1.6,2.41,0,3.33l13.82,8a6.34,6.34,0,0,0,5.78,0l25-14.42C716.86,625.28,716.86,623.79,715.26,622.87ZM501.17,774.6l-13.82-8a6.42,6.42,0,0,0-5.79,0l-25,14.43c-1.59.92-1.59,2.42,0,3.34l13.82,8a6.42,6.42,0,0,0,5.79,0l25-14.43C502.76,777,502.76,775.52,501.17,774.6Zm26.53-15.32-13.82-8a6.4,6.4,0,0,0-5.78,0l-16.44,9.49c-1.59.92-1.59,2.42,0,3.34l13.82,8a6.42,6.42,0,0,0,5.79,0l16.43-9.49C529.3,761.7,529.3,760.2,527.7,759.28ZM554.23,744l-13.82-8a6.4,6.4,0,0,0-5.78,0l-16.43,9.49c-1.6.92-1.6,2.42,0,3.34l13.82,8a6.4,6.4,0,0,0,5.78,0l16.43-9.49C555.83,746.38,555.83,744.88,554.23,744Zm26.54-15.32-13.82-8a6.4,6.4,0,0,0-5.78,0l-16.44,9.49c-1.6.92-1.6,2.42,0,3.34l13.82,8a6.4,6.4,0,0,0,5.78,0L580.77,732C582.37,731.06,582.37,729.56,580.77,728.64Zm26.53-15.32-13.82-8a6.4,6.4,0,0,0-5.78,0l-16.44,9.49c-1.59.92-1.59,2.42,0,3.34l13.83,8a6.4,6.4,0,0,0,5.78,0l16.43-9.49C608.9,715.74,608.9,714.25,607.3,713.32Zm121.43-42.39-13.82-8a6.42,6.42,0,0,0-5.79,0L586.23,733.9c-1.59.92-1.59,2.42,0,3.34l13.83,8a6.4,6.4,0,0,0,5.78,0l122.89-71C730.32,673.35,730.32,671.85,728.73,670.93ZM633.84,698,620,690a6.42,6.42,0,0,0-5.79,0l-16.43,9.49c-1.6.92-1.6,2.42,0,3.34l13.82,8a6.4,6.4,0,0,0,5.78,0l16.44-9.49C635.43,700.42,635.43,698.92,633.84,698Zm26.53-15.32-13.82-8a6.4,6.4,0,0,0-5.78,0l-16.44,9.49c-1.59.92-1.59,2.42,0,3.34l13.82,8a6.42,6.42,0,0,0,5.79,0L660.37,686C662,685.1,662,683.61,660.37,682.68Zm26.54-15.32-13.83-8a6.4,6.4,0,0,0-5.78,0l-16.43,9.49c-1.6.92-1.6,2.42,0,3.34l13.82,8a6.4,6.4,0,0,0,5.78,0l16.44-9.49C688.5,669.78,688.5,668.29,686.91,667.36ZM713.44,652l-13.82-8a6.4,6.4,0,0,0-5.78,0l-16.44,9.49c-1.6.93-1.6,2.42,0,3.34l13.82,8a6.4,6.4,0,0,0,5.78,0l16.44-9.49C715,654.46,715,653,713.44,652ZM740,636.72l-13.82-8a6.4,6.4,0,0,0-5.78,0l-16.43,9.49c-1.6.93-1.6,2.42,0,3.34l13.82,8a6.4,6.4,0,0,0,5.78,0L740,640.06C741.57,639.14,741.57,637.65,740,636.72Zm-31.64-65.37-13.82-8a6.4,6.4,0,0,0-5.78,0l-16.44,9.49c-1.59.92-1.59,2.42,0,3.34l13.82,8a6.42,6.42,0,0,0,5.79,0l16.43-9.49C709.93,573.77,709.93,572.27,708.33,571.35ZM734.87,556l-13.83-8a6.4,6.4,0,0,0-5.78,0l-16.43,9.49c-1.6.92-1.6,2.42,0,3.34l13.82,8a6.4,6.4,0,0,0,5.78,0l16.44-9.49C736.46,558.45,736.46,557,734.87,556Zm26.53-15.32-13.82-8a6.4,6.4,0,0,0-5.78,0l-16.44,9.49c-1.6.92-1.6,2.42,0,3.34l13.82,8a6.4,6.4,0,0,0,5.78,0l16.44-9.49C763,543.13,763,541.63,761.4,540.71Zm24.2,14-13.82-8a6.42,6.42,0,0,0-5.79,0l-16.43,9.49c-1.6.92-1.6,2.42,0,3.34l13.82,8a6.4,6.4,0,0,0,5.78,0L785.6,558C787.19,557.1,787.19,555.61,785.6,554.68Zm23.5,12.9-13.51-7.8a5.3,5.3,0,0,0-4.78,0L767.61,573a4.49,4.49,0,0,1-4,0l-18.2-10.51a8,8,0,0,0-7.19,0l-41.64,24c-2,1.14-2,3,0,4.15l36.3,21a7.9,7.9,0,0,0,7.18,0l69.08-39.88C811.09,570.58,811.09,568.73,809.1,567.58Z"/><path class="cls-16" d="M1140.12,536.44c-5.24-13.39-25-39.21-54.95-50.59-24-9.11-54.18-18.46-90.06,2.32a44.29,44.29,0,0,0-3.89,2.54c-13,9.53-12.58,25.54,1.28,35.26,25.46,17.86,56.39,34.61,56.39,34.61a107.57,107.57,0,0,0,24.21,9.63c20.59,5.25,38.87,3.38,54.37-5.63,9.78-5.68,14.64-13.13,14.6-20.59A24.24,24.24,0,0,0,1140.12,536.44Z"/><path class="cls-7" d="M1039.49,491.79l-10.11-5.51a10.21,10.21,0,0,0-11.39,1.77c-2.48,2.14-1.37,3,1.58,4.47l10.16,4.77c2.94,1.43,7.87,1.84,10.58,0S1042.43,493.22,1039.49,491.79Z"/><g class="cls-28"><g class="cls-2"><path class="cls-16" d="M1032.94,483.6a9.82,9.82,0,0,0-10-.32l14.6,23.23C1044.7,501.1,1041.18,488.59,1032.94,483.6Z"/><path class="cls-7" d="M1037.37,495a21.23,21.23,0,0,0-8.45-10.5,8.55,8.55,0,0,0-4.88-1.31,4.94,4.94,0,0,0-2.06.64,9.16,9.16,0,0,0-4.24,5.64c-2.48,8.8,7.71,23.67,18.08,18.15C1038.85,505.9,1039.61,500.81,1037.37,495Z"/><path class="cls-29" d="M1030.15,497.66a13.3,13.3,0,0,0-5.28-6.56,5.3,5.3,0,0,0-3-.81c-2.92.24-3.93,4-2.26,8.28a13.25,13.25,0,0,0,5.28,6.56,5.28,5.28,0,0,0,3,.82C1030.81,505.7,1031.82,502,1030.15,497.66Z"/></g></g><path class="cls-7" d="M1129.31,557.94c-15.49,9-33.77,10.88-54.37,5.63a107.34,107.34,0,0,1-24.2-9.64s-30.93-16.75-56.39-34.6c-7.7-5.4-11.22-12.73-10.64-19.82-4.26,8.85-1.36,19.34,8.79,26.46,25.46,17.86,56.39,34.61,56.39,34.61a108.07,108.07,0,0,0,24.21,9.64c20.59,5.24,38.87,3.37,54.37-5.64,9.12-5.3,13.91-12.15,14.48-19.09C1139.7,550.05,1135.49,554.35,1129.31,557.94Z"/><path class="cls-7" d="M1128.39,561.11c-15.5,9-33.78,10.88-54.37,5.63a107.31,107.31,0,0,1-24.2-9.63s-30.94-16.75-56.39-34.61c-8.23-5.77-11.69-13.75-10.44-21.28-3.14,8.46,0,18.08,9.51,24.75,25.46,17.86,56.39,34.61,56.39,34.61a108.07,108.07,0,0,0,24.21,9.64c20.59,5.24,38.87,3.37,54.37-5.64,8.46-4.92,13.14-11.16,14.24-17.58C1139.73,552.17,1135.32,557.08,1128.39,561.11Z"/><path class="cls-1" d="M73.19,945.35l-.15-.19Z"/><path class="cls-1" d="M72.79,944.77c0,.08.08.16.13.23S72.84,944.85,72.79,944.77Z"/><path class="cls-1" d="M72.32,943.24c0,.12,0,.25.06.37C72.35,943.49,72.34,943.36,72.32,943.24Z"/><path class="cls-1" d="M73.33,945.49l.17.16Z"/><path class="cls-1" d="M72.59,944.33a2.77,2.77,0,0,0,.1.26A2.77,2.77,0,0,1,72.59,944.33Z"/><path class="cls-1" d="M72.27,942.43a6.13,6.13,0,0,0,0,.62A6.13,6.13,0,0,1,72.27,942.43Z"/><path class="cls-1" d="M72.43,943.82c0,.1,0,.21.08.31C72.48,944,72.46,943.92,72.43,943.82Z"/><path class="cls-7" d="M73.33,945.49l-.14-.14-.15-.19-.12-.16c0-.07-.08-.15-.13-.23l-.1-.18a2.77,2.77,0,0,1-.1-.26,1.67,1.67,0,0,1-.08-.2c0-.1-.05-.21-.08-.31a1.6,1.6,0,0,1-.05-.21c0-.12,0-.25-.06-.37a1.37,1.37,0,0,1,0-.19,6.13,6.13,0,0,1,0-.62l-31.07-18a3.75,3.75,0,0,0,1.57,3.45l31.06,18a1.77,1.77,0,0,1-.17-.12l-.16-.11Z"/><path class="cls-7" d="M255.75,822.31l-183.52,106,0,14.16a6.13,6.13,0,0,0,0,.62,1.37,1.37,0,0,0,0,.19c0,.12,0,.25.06.37a1.6,1.6,0,0,0,.05.21c0,.1,0,.21.08.31a1.67,1.67,0,0,0,.08.2,2.77,2.77,0,0,0,.1.26l.1.18c0,.08.08.16.13.23l.12.16.15.19.14.14.17.16.16.11c1,.69,2.41.66,4-.25l172.77-99.75a11.82,11.82,0,0,0,5.36-9.28Z"/><path class="cls-30" d="M72.38,943.61a1.6,1.6,0,0,0,.05.21A1.6,1.6,0,0,1,72.38,943.61Z"/><path class="cls-30" d="M72.3,943.05a1.37,1.37,0,0,0,0,.19A1.37,1.37,0,0,1,72.3,943.05Z"/><path class="cls-30" d="M73.33,945.49l-.14-.14Z"/><path class="cls-30" d="M73.66,945.76l-.16-.11Z"/><path class="cls-30" d="M72.92,945l.12.16Z"/><path class="cls-30" d="M72.51,944.13a1.67,1.67,0,0,0,.08.2A1.67,1.67,0,0,1,72.51,944.13Z"/><path class="cls-30" d="M72.69,944.59l.1.18Z"/><polygon class="cls-7" points="72.23 928.27 41.16 910.21 41.2 924.38 72.27 942.43 72.23 928.27"/><polygon class="cls-31" points="255.75 822.31 224.68 804.25 41.16 910.21 72.23 928.27 255.75 822.31"/><path class="cls-24" d="M239.42,743.09c.13-.06.26-.1.4-.15l-.3.11Z"/><path class="cls-24" d="M238.48,743.49l.37-.16-.34.15Z"/><path class="cls-24" d="M239.52,743.05l.3-.11.5-.19C240.05,742.84,239.79,742.94,239.52,743.05Z"/><path class="cls-24" d="M240.42,742.72l.33-.1.4-.13Z"/><path class="cls-24" d="M240.34,742.74l.41-.12-.33.1Z"/><path class="cls-24" d="M241.25,742.46l.41-.1-.35.09Z"/><path class="cls-24" d="M237.53,744l.17-.09,0,0Z"/><path class="cls-24" d="M245.66,741.94h-.07l.3,0c.12,0,.25,0,.37,0Z"/><path class="cls-24" d="M246.3,742l.37.06-.23,0Z"/><path class="cls-24" d="M245.51,741.93l.38,0-.3,0Z"/><path class="cls-24" d="M244.85,741.92h0Z"/><path class="cls-24" d="M246.8,742.07l-.36-.05.23,0,.28,0Z"/><path class="cls-24" d="M247.18,742.15l.24.06.26.06Z"/><path class="cls-24" d="M247.06,742.13l.36.08-.24-.06Z"/><path class="cls-24" d="M244.7,741.92h0Z"/><path class="cls-24" d="M242.14,742.24l.42-.08-.37.07Z"/><path class="cls-24" d="M242.19,742.23l.37-.07.23,0C242.59,742.15,242.39,742.18,242.19,742.23Z"/><path class="cls-24" d="M244.43,741.93l-.36,0h.19l.32,0Z"/><path class="cls-24" d="M243,742.07h0Z"/><path class="cls-24" d="M241.38,742.42l-.07,0,.35-.09.19-.05Z"/><path class="cls-24" d="M243.87,742l.39,0h-.39Z"/><path class="cls-24" d="M243.07,742.07l.35-.05.38,0C243.56,742,243.31,742,243.07,742.07Z"/><path class="cls-24" d="M243,742.07h0l.4-.05-.35.05Z"/><path class="cls-24" d="M247.8,742.3l.34.12-.3-.11Z"/><path class="cls-24" d="M239.18,743.18l-.67.3.34-.15.49-.21Z"/><path class="cls-1" d="M76.36,844.4l.18-.34-.06.11Z"/><path class="cls-1" d="M75.61,845.9l.18-.37-.12.23Z"/><path class="cls-24" d="M249.84,743.17h0l-.06,0Z"/><path class="cls-1" d="M78.19,841.22c.08-.11.15-.23.22-.34l-.09.13A2.39,2.39,0,0,1,78.19,841.22Z"/><path class="cls-1" d="M77.31,842.67l.16-.26a1.74,1.74,0,0,0-.11.18Z"/><path class="cls-24" d="M247.85,742.32h0l.3.11.29.09C248.24,742.44,248,742.37,247.85,742.32Z"/><path class="cls-1" d="M73.28,851.86c.11-.36.22-.71.34-1.07v0C73.49,851.18,73.38,851.52,73.28,851.86Z"/><path class="cls-1" d="M74.12,849.4c.06-.18.14-.36.21-.55l-.09.22Z"/><path class="cls-1" d="M74.86,847.54l.09-.2,0,0C74.9,847.44,74.89,847.49,74.86,847.54Z"/><path class="cls-1" d="M72.45,855.13c0-.19.08-.39.13-.59,0,.12-.06.23-.08.35S72.47,855.05,72.45,855.13Z"/><path class="cls-1" d="M79.36,839.46l.15-.21-.1.14Z"/><path class="cls-1" d="M72,857.63c0-.17,0-.33.08-.5l-.06.35A.77.77,0,0,1,72,857.63Z"/><path class="cls-24" d="M248.51,742.54l.33.13-.2-.08Z"/><path class="cls-24" d="M248.83,742.67l-.19-.08.2.08.22.1Z"/><path class="cls-1" d="M84.14,833.76c.2-.21.41-.41.62-.6l-.55.52Z"/><path class="cls-24" d="M249.19,742.82l.32.17-.25-.13Z"/><path class="cls-1" d="M80.55,837.84l.16-.21-.06.07A.71.71,0,0,1,80.55,837.84Z"/><path class="cls-24" d="M249.77,743.12l-.51-.26.25.13.3.15Z"/><path class="cls-1" d="M73,852.93c.07-.26.15-.52.22-.78,0,.2-.11.39-.17.59A1.33,1.33,0,0,1,73,852.93Z"/><path class="cls-1" d="M81.84,836.25l.41-.49-.08.1Z"/><path class="cls-24" d="M237.42,744l.11-.06.12-.06.19-.1.55-.26.09,0h0l.67-.3-31.06-18-.68.29-.1.05-.76.37-.23.12c-.28.15-.57.3-.86.47l31.07,18.06C236.85,744.32,237.13,744.17,237.42,744Z"/><path class="cls-24" d="M237.65,743.9l0,0,.14-.07Z"/><path class="cls-24" d="M239.34,743.12l.08,0,.1,0c.27-.11.53-.21.8-.3h0l.08,0,.73-.23.1,0h.06l.07,0-31.06-18-.08,0-.12,0-.77.23-.09,0-.81.3-.17.07-.16.07,31.06,18Z"/><path class="cls-24" d="M241.85,742.31l.29-.07h.05c.2-.05.4-.08.6-.11l.22,0h0L212,724l-.84.15-.27.07-.53.13,31.06,18Z"/><path class="cls-24" d="M243,742.07h0c.24,0,.49-.07.73-.09h.27l.36,0-31.06-18-.37,0-.25,0L212,724h0L243,742.07Z"/><path class="cls-24" d="M244.58,741.93h1.08L214.6,723.89h-1.23l31.06,18Z"/><path class="cls-24" d="M246.26,742h0l.14,0,.36.05-31.06-18-.37-.06-.15,0a6.2,6.2,0,0,0-.62-.06l31.06,18.05Z"/><path class="cls-24" d="M247,742.1l.11,0,.12,0,.5.12.12,0h0l-31.06-18.06h-.05c-.21-.06-.41-.11-.62-.15l-.19,0-.18,0,31.06,18Z"/><path class="cls-24" d="M248.43,742.51l.08,0,.13.05.19.08-31-18-.25-.11-.17-.06a6.45,6.45,0,0,0-.62-.21l31.07,18.06C248,742.37,248.24,742.44,248.43,742.51Z"/><path class="cls-24" d="M249.06,742.77l.13.05.07,0,.51.26-31-18-.6-.32-.13-.06-.24-.1,31,18Z"/><path class="cls-24" d="M249.81,743.14h0l.06,0-31.07-18h0l31,18Z"/><polygon class="cls-24" points="71.81 861.14 40.74 843.09 40.94 911.62 72.01 929.67 71.81 861.14"/><polygon class="cls-24" points="236.56 744.49 205.49 726.43 59.4 810.78 90.47 828.83 236.56 744.49"/><path class="cls-24" d="M236.56,744.49l.86-.48h0C237.13,744.17,236.85,744.32,236.56,744.49Z"/><path class="cls-24" d="M239.82,742.94l.51-.19h0Z"/><path class="cls-24" d="M245.09,741.93h0Z"/><path class="cls-24" d="M244.26,742l.35,0h0Z"/><path class="cls-24" d="M248.84,742.67l.29.13-.07,0Z"/><path class="cls-24" d="M249.81,743.14l-.3-.15.33.18,0,0Z"/><path class="cls-25" d="M255.34,755.19c0-5.92-2.12-10.08-5.5-12l-.33-.18-.32-.17-.06,0-.29-.13-.33-.13,0,0-.33-.1-.34-.12h0l-.38-.09-.36-.08-.07,0-.32-.05-.37-.06h0c-.13,0-.27,0-.4,0l-.38,0h-.9l-.35,0-.39,0h-.05l-.4,0-.4.05-.46.09-.42.08-.23.06-.25.06-.41.1-.07,0-.43.14-.41.12h0l-.51.19c-.14,0-.27.09-.4.15l-.07,0c-.17.06-.34.14-.5.21l-.37.16-.07,0-.46.23-.25.12-.17.09-.11,0-.86.48L90.47,828.83l-.9.55-.29.19-.6.4-.33.23-.55.4-.34.25-.55.43-.31.25-.62.52-.23.2-.82.74-.17.17c-.21.19-.42.39-.62.6s-.64.64-1,1l-.05,0c-.29.32-.59.64-.88,1l-.41.49-.36.42-.43.53-.34.43-.16.21c-.35.46-.7.93-1,1.41l-.15.21c-.32.47-.64.94-1,1.42-.07.11-.14.23-.22.34l-.72,1.19-.16.26c-.26.46-.52.92-.77,1.39l-.18.34c-.2.38-.39.75-.57,1.13l-.18.37q-.35.72-.66,1.44l-.09.2-.53,1.31c-.07.19-.15.37-.21.55s-.09.22-.13.33c-.1.3-.21.59-.31.88l-.06.18c-.12.36-.23.71-.34,1.07l-.09.29c-.07.26-.15.52-.22.78l-.12.48c-.06.22-.11.43-.16.64s-.08.33-.11.49-.09.4-.13.59-.1.49-.14.73l-.09.51c0,.25-.08.51-.11.76s0,.33-.08.5l0,.35c0,.24-.06.48-.08.72l0,.37c0,.24,0,.48,0,.72s0,.22,0,.33c0,.34,0,.68,0,1l.2,68.53L255.53,823.72Z"/><path class="cls-24" d="M237.7,743.87l.25-.12-.11,0Z"/><path class="cls-24" d="M246.67,742.06l.32.05h0Z"/><path class="cls-24" d="M245.89,742c.13,0,.27,0,.4,0h0C246.14,742,246,742,245.89,742Z"/><path class="cls-24" d="M241.66,742.36l.25-.06h-.06Z"/><path class="cls-24" d="M238,743.75l.46-.23,0,0C238.24,743.6,238.09,743.68,238,743.75Z"/><path class="cls-24" d="M237.84,743.8l.11,0c.14-.07.29-.15.44-.21Z"/><path class="cls-24" d="M238.85,743.33c.16-.07.33-.15.5-.21h0Z"/><path class="cls-24" d="M247.42,742.21l.38.09-.12,0Z"/><path class="cls-24" d="M243.42,742l.4,0h0Z"/><path class="cls-24" d="M242.79,742.12l-.23,0,.46-.09h0Z"/><path class="cls-24" d="M248.14,742.42l.33.1h0Z"/><path class="cls-24" d="M240.75,742.62l.43-.14h0Z"/><path class="cls-24" d="M238.41,743.52l.07,0-.09,0Z"/><path class="cls-24" d="M237.42,744l.11,0-.11.06Z"/><path class="cls-24" d="M239.35,743.12l.07,0-.08,0Z"/><path class="cls-24" d="M240.33,742.75h0Z"/><path class="cls-24" d="M241.18,742.48l.07,0-.1,0Z"/><path class="cls-24" d="M241.91,742.3l.23-.06-.29.07Z"/><path class="cls-24" d="M243.82,742h0Z"/><path class="cls-24" d="M245.4,741.93h0Z"/><path class="cls-24" d="M244.61,741.93h0Z"/><path class="cls-24" d="M246.29,742h0Z"/><path class="cls-24" d="M247.8,742.3h0l-.12,0Z"/><path class="cls-24" d="M247,742.11l.07,0-.11,0Z"/><path class="cls-24" d="M248.47,742.52l0,0-.08,0Z"/><path class="cls-24" d="M249.13,742.8l.06,0-.13-.05Z"/><path class="cls-24" d="M59.4,810.78l-2.4,2c-.32.25-1.62,1.35-2.4,2a54,54,0,0,0-6.32,6.68,33.68,33.68,0,0,0-5,9.33,34.73,34.73,0,0,0-2.51,12.32l31.07,18c-.3-.17.17-3,.21-3.38a39.3,39.3,0,0,1,4.52-13.7c.58-1.1,1.22-2.18,1.89-3.22a39.64,39.64,0,0,1,10.85-11.27l.29-.19.9-.55Z"/><path class="cls-32" d="M250.09,760.91c0-5.65-2-9.62-5.24-11.47l-.33-.17-.3-.16-.05,0-.28-.12-.32-.13h0l-.31-.11-.32-.1h0l-.36-.09-.34-.08-.07,0-.31,0-.35,0h0l-.39,0-.36,0h-.86l-.33,0-.37,0h-.05l-.39.05-.38,0-.44.08-.39.07-.22.06-.24.06-.39.09-.07,0-.41.12-.39.12h0l-.49.18-.38.14-.07,0-.48.21-.35.15-.06,0-.45.22-.24.11-.16.08-.1.06c-.27.14-.55.29-.82.45L92.73,831.2l-.86.52-.27.18-.58.38-.31.23-.53.38-.32.24-.53.41-.29.24-.59.49-.22.19-.79.71-.16.16-.59.57c-.31.31-.61.62-.91.94l0,0-.84.93-.4.46-.34.41c-.14.16-.27.33-.4.5l-.33.41-.15.2c-.34.44-.67.89-1,1.35,0,.06-.09.13-.14.2-.31.44-.61.89-.91,1.35L81,843c-.24.37-.47.75-.7,1.13,0,.08-.1.16-.14.25-.26.43-.5.88-.74,1.32l-.18.33-.54,1.08c-.06.12-.12.24-.17.36-.22.45-.43.91-.63,1.37a1.54,1.54,0,0,0-.08.19c-.18.42-.35.83-.52,1.25-.06.18-.13.35-.2.52s-.08.21-.11.32q-.17.42-.3.84l-.06.17c-.11.34-.22.68-.32,1l-.09.28-.21.74-.12.46-.15.62c0,.15-.07.31-.11.46l-.12.56c0,.24-.09.47-.13.7l-.09.49c0,.24-.07.48-.11.72l-.06.48c0,.11,0,.22,0,.33s0,.46-.07.69l0,.35c0,.23,0,.46,0,.69s0,.21,0,.31c0,.33,0,.66,0,1l.18,62.45L250.27,823.36Z"/><polygon class="cls-18" points="119.61 843.41 119.64 856.71 118 859.56 114.68 857.67 114.65 848.17 117.95 842.46 119.61 843.41"/><polygon class="cls-18" points="114.73 874.77 114.7 865.27 118 859.56 119.66 860.51 119.69 873.81 118.04 876.66 114.73 874.77"/><polygon class="cls-18" points="137.54 834 129.28 838.77 125.96 836.88 127.61 834.03 139.18 827.35 140.84 828.29 137.54 834"/><polygon class="cls-18" points="128.45 840.21 128.47 849.71 125.18 855.42 123.52 854.47 123.48 841.17 125.13 838.32 128.45 840.21"/><polygon class="cls-18" points="128.5 857.31 128.52 866.81 125.23 872.52 123.57 871.57 123.53 858.27 125.18 855.42 128.5 857.31"/><polygon class="cls-18" points="129.36 867.28 137.62 862.5 140.94 864.39 139.29 867.25 127.72 873.93 126.06 872.99 129.36 867.28"/><polygon class="cls-18" points="138.44 861.08 138.42 851.58 141.72 845.87 143.37 846.82 143.41 860.12 141.76 862.97 138.44 861.08"/><polygon class="cls-18" points="143.32 829.71 143.36 843.01 141.72 845.87 138.4 843.98 138.37 834.48 141.67 828.77 143.32 829.71"/><polygon class="cls-18" points="156.36 843.13 158.01 842.17 160.5 843.59 158.03 847.87 156.37 848.83 153.88 847.41 156.36 843.13"/><polygon class="cls-18" points="157.98 830.77 156.33 831.72 153.83 830.3 156.31 826.02 157.96 825.07 160.45 826.49 157.98 830.77"/><polygon class="cls-18" points="174.27 827.07 176.75 822.79 185.01 818.01 187.5 819.43 185.03 823.71 176.76 828.49 174.27 827.07"/><polygon class="cls-18" points="184.98 806.61 176.71 811.38 173.4 809.49 175.04 806.64 186.62 799.96 188.28 800.9 184.98 806.61"/><polygon class="cls-18" points="189.11 801.38 190.77 802.32 190.81 815.62 189.16 818.48 185.84 816.59 185.81 807.09 189.11 801.38"/><polygon class="cls-18" points="176.79 839.89 185.06 835.11 188.38 837 186.73 839.86 175.16 846.54 173.5 845.6 176.79 839.89"/><polygon class="cls-18" points="175.94 829.92 175.97 839.42 172.66 845.13 171.01 844.18 170.97 830.88 172.62 828.03 175.94 829.92"/><polygon class="cls-18" points="214.49 788.63 214.53 801.93 212.88 804.78 209.56 802.89 209.53 793.39 212.83 787.68 214.49 788.63"/><polygon class="cls-18" points="209.61 819.99 209.58 810.49 212.88 804.78 214.54 805.73 214.57 819.03 212.93 821.88 209.61 819.99"/><path class="cls-33" d="M1222.64,373.69s23.63,77.07,65.72,100c37.09,20.16,40.59,51.64,63,58.53a32.34,32.34,0,0,0,10.22,1.38c.74,0,1.49,0,2.21-.07a74.82,74.82,0,0,0,37-10.89,49.75,49.75,0,0,0,9.46-7.39l0,0s42.35,50.24,54.74,121.15l175-118.55-89.16-110-116-157.33-61.13-82.89-66.39,47.55-68.85,49.32L1190.25,299S1198.6,345.61,1222.64,373.69Z"/><path class="cls-34" d="M1245,349c17.5,20.81,100,55.66,110.62,108.07,9,44.4,12.52,65.87-4.26,75.09a32.34,32.34,0,0,0,10.22,1.38c.74,0,1.49,0,2.21-.07a74.82,74.82,0,0,0,37-10.89,49.75,49.75,0,0,0,9.46-7.39l0,0s42.35,50.24,54.74,121.15l175-118.55-89.16-110-116-157.33-127.52-35.34-29.92-8.29-38.93,57.61-20.73,30.67S1227.53,328.22,1245,349Z"/><path class="cls-35" d="M1189,291.8c23,23.05,55.46,39.18,86.68,44,0,0,13.13,36.26,40.79,39.45,0,0-26.24-59.27,11.3-62.71,25.93-2.37,24,30.6,36.13,64.46,1.48,4.6,21.43,63.85,73.48,96.46,34.13,21.38,84.45-2.72,116.18-23.29A53,53,0,0,0,1576.86,396c-7.93-42.77-22-114.75-25.95-135-.69-3.47-1.07-5.43-1.07-5.43S1526.41,69.42,1356.27,72.74c0,0-64.26-17.14-158.41,71.77a166.35,166.35,0,0,0-18.23,20.09C1143.08,212.62,1156.45,259.16,1189,291.8Z"/><path class="cls-36" d="M1189,291.8c23,23.05,55.46,39.18,86.68,44,0,0,13.13,36.26,40.79,39.45,0,0-26.24-59.27,11.3-62.71,25.93-2.37,24,30.6,36.13,64.46,1.48,4.6,21.43,63.85,73.48,96.46,34.13,21.38,84.45-2.72,116.18-23.29A53,53,0,0,0,1576.86,396c-7.93-42.77-22-114.75-25.95-135a294.06,294.06,0,0,0-35.77-33.52c-18.58-14.86-38.1-29.15-52.83-48.09-8.86-11.39-16-24.44-27.24-33.45-12.11-9.71-28-13.74-43.48-14.2-47.73-1.37-90.16,28-135.48,43.07-19,6.3-40.1,10-58.72,2.72a45.19,45.19,0,0,1-17.76-13C1143.08,212.62,1156.45,259.16,1189,291.8Z"/><path class="cls-37" d="M1363.8,533.5a74.7,74.7,0,0,0,37-10.9l9.46-7.38,0,0-17.1-23.1S1374.64,506.6,1363.8,533.5Z"/><path class="cls-38" d="M725.33,788.23,1071,987.82a15.42,15.42,0,0,0,13.94,0l247.61-143c3.85-2.22,3.85-5.82,0-8.05L986.88,637.22a15.42,15.42,0,0,0-13.94,0l-247.61,143C721.48,782.41,721.48,786,725.33,788.23Z"/><path class="cls-39" d="M732,777.06V760L975,636.8a17.37,17.37,0,0,1,15.73,0l326.85,174.33v17c0,1.64-1.08,3.28-3.25,4.54L1071.36,973Z"/><path class="cls-40" d="M1317.55,828.17v-17l-58.91-31.42H1071.36V973L1314.3,832.71C1316.47,831.45,1317.55,829.81,1317.55,828.17Z"/><path class="cls-41" d="M1317.75,809.13c4.34-2.51,4.34-6.57,0-9.08l-10.34-6L1056.6,938.9l18.21,10.49Z"/><path class="cls-39" d="M732,751.5v-17L975,611.24a17.37,17.37,0,0,1,15.73,0l326.85,174.34v17c0,1.64-1.08,3.28-3.25,4.54L1071.36,947.41Z"/><path class="cls-40" d="M1317.55,802.61v-17l-58.91-31.42H1071.36V947.41L1314.3,807.15C1316.47,805.89,1317.55,804.25,1317.55,802.61Z"/><path class="cls-42" d="M732,734.47,975,594.21a17.37,17.37,0,0,1,15.73,0L1314.3,781c4.34,2.5,4.34,6.57,0,9.08L1071.36,930.38Z"/><path class="cls-41" d="M762.74,734.4a16.31,16.31,0,0,1,14.75,0c4.08,2.35,4.08,6.17,0,8.52a16.31,16.31,0,0,1-14.75,0C758.67,740.57,758.67,736.75,762.74,734.4Z"/><path class="cls-41" d="M799.62,755.7a16.27,16.27,0,0,1,14.76,0c4.07,2.35,4.07,6.16,0,8.51a16.27,16.27,0,0,1-14.76,0C795.55,761.86,795.55,758.05,799.62,755.7Z"/><path class="cls-41" d="M836.51,777a16.31,16.31,0,0,1,14.75,0c4.07,2.35,4.07,6.17,0,8.52a16.31,16.31,0,0,1-14.75,0C832.43,783.16,832.43,779.34,836.51,777Z"/><path class="cls-41" d="M873.39,798.29a16.25,16.25,0,0,1,14.75,0c4.08,2.35,4.08,6.16,0,8.51a16.25,16.25,0,0,1-14.75,0C869.32,804.45,869.32,800.64,873.39,798.29Z"/><path class="cls-41" d="M910.27,819.58a16.33,16.33,0,0,1,14.76,0c4.07,2.35,4.07,6.17,0,8.52a16.33,16.33,0,0,1-14.76,0C906.2,825.75,906.2,821.93,910.27,819.58Z"/><path class="cls-41" d="M947.16,840.88a16.25,16.25,0,0,1,14.75,0c4.07,2.35,4.07,6.16,0,8.51a16.31,16.31,0,0,1-14.75,0C943.08,847,943.08,843.23,947.16,840.88Z"/><path class="cls-41" d="M984,862.17a16.31,16.31,0,0,1,14.75,0c4.08,2.35,4.08,6.16,0,8.52a16.31,16.31,0,0,1-14.75,0C980,868.33,980,864.52,984,862.17Z"/><path class="cls-41" d="M1020.92,883.46a16.33,16.33,0,0,1,14.76,0c4.07,2.36,4.07,6.17,0,8.52a16.33,16.33,0,0,1-14.76,0C1016.85,889.63,1016.85,885.82,1020.92,883.46Z"/><path class="cls-41" d="M1057.81,904.76a16.31,16.31,0,0,1,14.75,0c4.07,2.35,4.07,6.16,0,8.52a16.31,16.31,0,0,1-14.75,0C1053.73,910.92,1053.73,907.11,1057.81,904.76Z"/><polygon class="cls-41" points="728.58 749.53 1074.81 949.39 1074.81 957.91 728.58 758.05 728.58 749.53"/><path class="cls-16" d="M1317.86,817.53a6.94,6.94,0,0,0,3.15-5.45v-7.5c0,1.8-1.25,3.29-3.26,4.55L1074.81,949.39v8.52Z"/><polygon class="cls-41" points="732.03 751.52 732.03 747.54 728.58 749.55 732.03 751.52"/><path class="cls-43" d="M796.14,722.27,975.35,618.81a13.9,13.9,0,0,1,12.59,0l16.92,9.77c3.47,2,3.47,5.26,0,7.26L825.65,739.31a13.94,13.94,0,0,1-12.58,0l-16.93-9.77C792.67,727.53,792.67,724.28,796.14,722.27Z"/><line class="cls-43" x1="804.61" y1="734.42" x2="996.39" y2="623.69"/><path class="cls-43" d="M840.4,755.09l238.38,137.62a13.91,13.91,0,0,0,12.58,0l179.08-103.54c3.48-2,3.48-5.26,0-7.27L1032.19,644.36a13.88,13.88,0,0,0-12.58,0L840.4,747.83C836.93,749.83,836.93,753.08,840.4,755.09Z"/><line class="cls-43" x1="848.84" y1="759.99" x2="1040.66" y2="649.25"/><line class="cls-43" x1="863.62" y1="768.51" x2="1055.44" y2="657.76"/><line class="cls-43" x1="878.4" y1="777.02" x2="1070.22" y2="666.28"/><line class="cls-43" x1="893.17" y1="785.54" x2="1084.99" y2="674.79"/><line class="cls-43" x1="907.95" y1="794.05" x2="1099.77" y2="683.31"/><line class="cls-43" x1="922.73" y1="802.57" x2="1114.55" y2="691.82"/><line class="cls-43" x1="937.51" y1="811.09" x2="1129.33" y2="700.34"/><line class="cls-43" x1="952.29" y1="819.6" x2="1144.11" y2="708.86"/><line class="cls-43" x1="967.07" y1="828.12" x2="1158.89" y2="717.37"/><line class="cls-43" x1="981.85" y1="836.63" x2="1173.67" y2="725.89"/><line class="cls-43" x1="996.63" y1="845.15" x2="1188.45" y2="734.4"/><line class="cls-43" x1="1026.18" y1="862.18" x2="1218" y2="751.44"/><line class="cls-43" x1="1040.96" y1="870.7" x2="1232.78" y2="759.95"/><line class="cls-43" x1="1055.74" y1="879.21" x2="1247.56" y2="768.47"/><line class="cls-43" x1="1070.52" y1="887.73" x2="1262.34" y2="776.98"/><line class="cls-43" x1="1011.4" y1="853.66" x2="1203.22" y2="742.92"/><path class="cls-1" d="M1034.13,955.9c2.06,1.19,4.77,1.2,7.83.09l-11.83-6.82C1030.71,952.37,1032.07,954.71,1034.13,955.9Z"/><path class="cls-10" d="M1034.13,955.9c-2.06-1.19-3.42-3.53-4-6.73a21.05,21.05,0,0,1-.31-3.68,34.57,34.57,0,0,1,2.48-12.12,47.33,47.33,0,0,1,3.19-6.67l-6.35-3.66a52.8,52.8,0,0,0-3.23,6.64,43.07,43.07,0,0,0-3.33,15.13c0,.23,0,.46,0,.68,0,7.81,2.82,13.74,8,16.7a14.38,14.38,0,0,0,7.26,1.89,22.65,22.65,0,0,0,11.17-3.36c.19-.11.38-.25.58-.37L1042,956C1038.9,957.1,1036.19,957.09,1034.13,955.9Z"/><path class="cls-10" d="M1063.72,904.64a13.8,13.8,0,0,0-2.65-1.15c-4.64-1.51-10.13-.64-15.78,2.61a38.56,38.56,0,0,0-6.94,5.22,50.79,50.79,0,0,0-9.2,11.71l6.34,3.66a43.25,43.25,0,0,1,9.51-11.53,28.93,28.93,0,0,1,3.93-2.77,17.24,17.24,0,0,1,6-2.24,7.14,7.14,0,0,1,8.38,4.79,17.1,17.1,0,0,0,7.37-.82A15.4,15.4,0,0,0,1063.72,904.64Z"/><polygon class="cls-10" points="1035.49 926.69 1029.15 923.03 1029.14 923.04 1035.49 926.7 1035.49 926.69"/><path class="cls-1" d="M997.26,934.55c2.06,1.2,4.77,1.2,7.83.1l-11.82-6.82C993.84,931,995.2,933.37,997.26,934.55Z"/><path class="cls-10" d="M997.26,934.62c-2-1.19-3.42-3.53-4-6.73a19.9,19.9,0,0,1-.32-3.67,34.28,34.28,0,0,1,2.49-12.12,47.27,47.27,0,0,1,3.18-6.67l-6.35-3.67a55,55,0,0,0-3.22,6.65,43.3,43.3,0,0,0-3.34,15.12c0,.23,0,.46,0,.69,0,7.81,2.82,13.74,7.94,16.69a14.29,14.29,0,0,0,7.26,1.9,22.65,22.65,0,0,0,11.17-3.36l.58-.37-7.55-4.36C1002,935.82,999.32,935.81,997.26,934.62Z"/><path class="cls-10" d="M1026.84,883.34a14.41,14.41,0,0,0-2.65-1.14c-4.65-1.51-10.13-.65-15.78,2.61a38.1,38.1,0,0,0-6.94,5.22,51.1,51.1,0,0,0-9.21,11.71l6.35,3.66a43.09,43.09,0,0,1,9.51-11.53,28.07,28.07,0,0,1,3.93-2.77,17.24,17.24,0,0,1,6-2.24,7.14,7.14,0,0,1,8.38,4.78,16.8,16.8,0,0,0,7.37-.82A15.46,15.46,0,0,0,1026.84,883.34Z"/><polygon class="cls-10" points="998.62 905.35 992.28 901.69 992.27 901.7 998.62 905.36 998.62 905.35"/><path class="cls-1" d="M960.39,913.21c2.07,1.2,4.77,1.2,7.83.1l-11.82-6.82C957,909.68,958.34,912,960.39,913.21Z"/><path class="cls-10" d="M960.4,913.35c-2.06-1.19-3.42-3.53-4-6.73a21,21,0,0,1-.32-3.68,34.59,34.59,0,0,1,2.49-12.12,47.27,47.27,0,0,1,3.18-6.67l-6.34-3.66a52.8,52.8,0,0,0-3.23,6.64,43.07,43.07,0,0,0-3.33,15.13c0,.22,0,.46,0,.68,0,7.81,2.82,13.74,7.95,16.7a14.38,14.38,0,0,0,7.26,1.89,22.65,22.65,0,0,0,11.17-3.36c.19-.11.38-.25.58-.37l-7.56-4.36C965.17,914.55,962.46,914.54,960.4,913.35Z"/><path class="cls-10" d="M990,862.05a13.58,13.58,0,0,0-2.66-1.14c-4.64-1.51-10.12-.65-15.77,2.61a38,38,0,0,0-6.95,5.22,51.06,51.06,0,0,0-9.2,11.7l6.35,3.67a43.09,43.09,0,0,1,9.5-11.53,28.41,28.41,0,0,1,3.93-2.77,17.2,17.2,0,0,1,6-2.25,7.14,7.14,0,0,1,8.38,4.79,17.1,17.1,0,0,0,7.37-.82A15.46,15.46,0,0,0,990,862.05Z"/><polygon class="cls-10" points="961.76 884.01 955.41 880.35 955.4 880.35 961.75 884.02 961.76 884.01"/><path class="cls-1" d="M923.53,891.87c2.06,1.19,4.77,1.2,7.82.1l-11.82-6.83C920.11,888.34,921.47,890.68,923.53,891.87Z"/><path class="cls-10" d="M923.53,892.07c-2-1.19-3.42-3.53-4-6.73a19.9,19.9,0,0,1-.32-3.67,34.28,34.28,0,0,1,2.49-12.12,47.27,47.27,0,0,1,3.18-6.67l-6.35-3.67a56.59,56.59,0,0,0-3.23,6.65A43.06,43.06,0,0,0,912,881c0,.23,0,.46,0,.69,0,7.8,2.82,13.73,7.94,16.69a14.29,14.29,0,0,0,7.26,1.9,22.65,22.65,0,0,0,11.17-3.36l.58-.37-7.55-4.36C928.3,893.27,925.59,893.26,923.53,892.07Z"/><path class="cls-10" d="M953.08,840.76a13.62,13.62,0,0,0-2.66-1.15c-4.64-1.51-10.12-.64-15.77,2.61a39,39,0,0,0-6.95,5.22,51.34,51.34,0,0,0-9.2,11.71l6.35,3.66a43.4,43.4,0,0,1,9.5-11.53,30.23,30.23,0,0,1,3.93-2.77,17.29,17.29,0,0,1,6-2.24,7.14,7.14,0,0,1,8.38,4.79,17.1,17.1,0,0,0,7.37-.82A15.46,15.46,0,0,0,953.08,840.76Z"/><polygon class="cls-10" points="924.89 862.67 918.54 859 918.54 859.01 924.88 862.68 924.89 862.67"/><path class="cls-1" d="M886.66,870.53c2.06,1.19,4.77,1.2,7.83.1l-11.83-6.83C883.24,867,884.6,869.34,886.66,870.53Z"/><path class="cls-10" d="M886.67,870.8c-2.06-1.19-3.42-3.53-4-6.73a21,21,0,0,1-.32-3.68,34.59,34.59,0,0,1,2.49-12.12A47.27,47.27,0,0,1,888,841.6l-6.34-3.66a52.8,52.8,0,0,0-3.23,6.64,43.07,43.07,0,0,0-3.33,15.13c0,.22,0,.46,0,.68,0,7.81,2.82,13.74,7.94,16.7A14.44,14.44,0,0,0,890.3,879a22.58,22.58,0,0,0,11.16-3.36c.2-.11.39-.25.59-.37l-7.56-4.36C891.44,872,888.73,872,886.67,870.8Z"/><path class="cls-10" d="M916.2,819.46a14.5,14.5,0,0,0-2.66-1.14c-4.64-1.51-10.12-.65-15.77,2.61a38.16,38.16,0,0,0-6.95,5.22,51.34,51.34,0,0,0-9.2,11.71l6.35,3.66a43.4,43.4,0,0,1,9.5-11.53,28.67,28.67,0,0,1,3.93-2.77,17.31,17.31,0,0,1,6-2.24,7.15,7.15,0,0,1,8.39,4.78,16.8,16.8,0,0,0,7.37-.82A15.46,15.46,0,0,0,916.2,819.46Z"/><polygon class="cls-10" points="888.02 841.33 881.68 837.66 881.67 837.67 888.02 841.34 888.02 841.33"/><path class="cls-1" d="M849.79,849.19c2.06,1.19,4.77,1.2,7.83.1l-11.82-6.83C846.37,845.66,847.74,848,849.79,849.19Z"/><path class="cls-10" d="M849.8,849.52c-2.06-1.19-3.42-3.53-4-6.73a19.9,19.9,0,0,1-.32-3.67A34.28,34.28,0,0,1,848,827a46.75,46.75,0,0,1,3.18-6.67l-6.35-3.67a53.6,53.6,0,0,0-3.23,6.65,43.06,43.06,0,0,0-3.33,15.12c0,.23,0,.46,0,.69,0,7.8,2.83,13.73,7.95,16.69a14.29,14.29,0,0,0,7.26,1.9,22.65,22.65,0,0,0,11.17-3.36l.58-.37-7.55-4.36C854.57,850.72,851.86,850.71,849.8,849.52Z"/><path class="cls-10" d="M879.32,798.17a13.84,13.84,0,0,0-2.66-1.14c-4.64-1.51-10.12-.65-15.77,2.61a37.38,37.38,0,0,0-6.95,5.22,51.28,51.28,0,0,0-9.2,11.7l6.35,3.67a42.72,42.72,0,0,1,9.5-11.53,27.83,27.83,0,0,1,3.93-2.77,17.35,17.35,0,0,1,6-2.25,7.14,7.14,0,0,1,8.39,4.79,17,17,0,0,0,7.37-.82A15.46,15.46,0,0,0,879.32,798.17Z"/><polygon class="cls-10" points="851.15 819.98 844.81 816.32 844.8 816.33 851.15 819.99 851.15 819.98"/><path class="cls-1" d="M812.92,827.85c2.07,1.19,4.78,1.2,7.83.09l-11.82-6.82C809.51,824.32,810.87,826.66,812.92,827.85Z"/><path class="cls-10" d="M812.94,828.25c-2.06-1.19-3.42-3.53-4-6.73a21,21,0,0,1-.32-3.68,34.55,34.55,0,0,1,2.49-12.12,47.27,47.27,0,0,1,3.18-6.67L808,795.39a52.8,52.8,0,0,0-3.23,6.64,43.07,43.07,0,0,0-3.33,15.13c0,.22,0,.46,0,.68,0,7.81,2.82,13.74,7.94,16.7a14.43,14.43,0,0,0,7.26,1.89,22.62,22.62,0,0,0,11.17-3.36c.2-.11.39-.25.58-.37l-7.55-4.36C817.71,829.45,815,829.44,812.94,828.25Z"/><path class="cls-10" d="M842.44,776.88a13.25,13.25,0,0,0-2.66-1.14c-4.64-1.52-10.12-.65-15.77,2.6a38.28,38.28,0,0,0-7,5.22,51.34,51.34,0,0,0-9.2,11.71l6.34,3.66a43.25,43.25,0,0,1,9.51-11.53,28.58,28.58,0,0,1,3.93-2.76,17.15,17.15,0,0,1,6-2.25,7.16,7.16,0,0,1,8.39,4.79,17.12,17.12,0,0,0,7.37-.82A15.49,15.49,0,0,0,842.44,776.88Z"/><polygon class="cls-10" points="814.29 798.64 807.94 794.98 807.94 794.99 814.28 798.65 814.29 798.64"/><path class="cls-1" d="M776.06,806.5c2.06,1.2,4.77,1.2,7.82.1l-11.82-6.82C772.64,803,774,805.31,776.06,806.5Z"/><path class="cls-10" d="M776.07,807c-2.06-1.19-3.42-3.53-4-6.73a20.85,20.85,0,0,1-.31-3.67,34.48,34.48,0,0,1,2.48-12.12,46.81,46.81,0,0,1,3.19-6.67l-6.35-3.67a53.6,53.6,0,0,0-3.23,6.65,43.06,43.06,0,0,0-3.33,15.12c0,.23,0,.46,0,.69,0,7.8,2.82,13.73,8,16.69a14.29,14.29,0,0,0,7.26,1.9,22.65,22.65,0,0,0,11.17-3.36l.58-.37-7.55-4.36C780.84,808.17,778.13,808.16,776.07,807Z"/><path class="cls-10" d="M805.55,755.58a14.41,14.41,0,0,0-2.65-1.14c-4.64-1.51-10.13-.65-15.77,2.61a38.28,38.28,0,0,0-7,5.22A51.34,51.34,0,0,0,771,774l6.34,3.66a43.25,43.25,0,0,1,9.51-11.53,28.07,28.07,0,0,1,3.93-2.77,17.24,17.24,0,0,1,6-2.24,7.16,7.16,0,0,1,8.39,4.79,17,17,0,0,0,7.37-.83A15.47,15.47,0,0,0,805.55,755.58Z"/><polygon class="cls-10" points="777.42 777.3 771.07 773.64 771.07 773.64 777.41 777.31 777.42 777.3"/><path class="cls-1" d="M739.19,785.16c2.06,1.2,4.77,1.2,7.83.1l-11.83-6.83C735.77,781.63,737.13,784,739.19,785.16Z"/><path class="cls-10" d="M739.2,785.7c-2.05-1.19-3.42-3.53-4-6.73a21,21,0,0,1-.32-3.68,34.55,34.55,0,0,1,2.49-12.12,47.27,47.27,0,0,1,3.18-6.67l-6.34-3.66a52.8,52.8,0,0,0-3.23,6.64,43.07,43.07,0,0,0-3.33,15.13c0,.22,0,.46,0,.68,0,7.81,2.82,13.74,7.94,16.7a14.4,14.4,0,0,0,7.26,1.89A22.65,22.65,0,0,0,754,790.52c.2-.11.39-.25.58-.37L747,785.79C744,786.9,741.27,786.89,739.2,785.7Z"/><path class="cls-10" d="M768.67,734.29a13.76,13.76,0,0,0-2.65-1.14c-4.65-1.51-10.13-.65-15.78,2.61A37.65,37.65,0,0,0,743.3,741a50.74,50.74,0,0,0-9.2,11.7l6.34,3.67A42.93,42.93,0,0,1,750,744.82a27.26,27.26,0,0,1,3.93-2.77,17.28,17.28,0,0,1,6-2.25,7.14,7.14,0,0,1,8.38,4.79,17,17,0,0,0,7.37-.82A15.46,15.46,0,0,0,768.67,734.29Z"/><polygon class="cls-10" points="740.55 755.96 734.21 752.29 734.2 752.3 740.55 755.97 740.55 755.96"/><polygon class="cls-38" points="463.95 906.91 347.33 839.9 254.1 893.4 361.19 965.4 463.95 906.91"/><polygon class="cls-44" points="452.14 873.27 452.14 900.13 358.91 953.92 254.1 893.4 254.1 866.51 452.14 873.27"/><polygon class="cls-41" points="452.14 873.27 347.26 812.26 254.1 866.51 358.91 927.02 452.14 873.27"/><path class="cls-45" d="M347.26,812.26,254.1,866.51S310,904.27,373.84,912.75l94.44-61.24S389.64,839.52,347.26,812.26Z"/><g class="cls-46"><path d="M397,983.73c-1.38.8-1.38,2.09,0,2.89l45.37,26.19a5.57,5.57,0,0,0,5,0l25.51-14.74c1.36-.79,1.36-2.1,0-2.89L427.54,969a5.66,5.66,0,0,0-5,0Z"/></g><path class="cls-47" d="M395.66,978.6a15.88,15.88,0,0,1,7.17-12.43l21-12.13c1.95-1.11,3.74-1.24,5-.53h0l46,26.54-.17.39a6.22,6.22,0,0,1,.88,3.48,15.91,15.91,0,0,1-7.16,12.43l-21,12.12a5.9,5.9,0,0,1-3.79.92l-.05.27L397.7,983.21C396.44,982.44,395.66,980.84,395.66,978.6Z"/><path class="cls-48" d="M448.66,992.63l21-12.12c4-2.31,7.17-.43,7.17,4.15a15.83,15.83,0,0,1-7.17,12.41l-21,12.14c-4,2.28-7.17.42-7.17-4.15A15.86,15.86,0,0,1,448.66,992.63Z"/><polygon class="cls-38" points="402.83 966.17 441.99 988.78 462.99 976.65 423.83 954.04 402.83 966.17"/><polygon class="cls-48" points="465.21 972.99 465.21 977.94 444.22 990.06 444.22 985.12 465.21 972.99"/><polygon class="cls-49" points="395.98 957.28 444.22 985.12 444.22 990.06 441.99 988.78 441.99 985.36 441.99 985.36 395.98 958.8 395.98 957.28"/><polygon class="cls-47" points="395.98 957.28 444.22 985.12 465.21 972.99 416.98 945.15 395.98 957.28"/><path class="cls-50" d="M232,946.47l140.25,79.66c-5,12.68,18.32,25.06,18.32,25.06l-.5.29,9.29,8-1.5.84-14.31-5.11-.47.26s-21.46-13.46-43.42-10.56L200.55,964.63Z"/><path class="cls-47" d="M202,957a15.91,15.91,0,0,1,7.18-12.42l21-12.13c2-1.12,3.72-1.23,5-.52h0l2.94,1.7-.15.39a6.37,6.37,0,0,1,.87,3.48A15.8,15.8,0,0,1,231.67,950l-21,12.12a5.94,5.94,0,0,1-3.79.94l0,.27L204,961.64C202.77,960.89,202,959.29,202,957Z"/><path class="cls-51" d="M212,946.23l21-12.12c4-2.28,7.18-.42,7.18,4.14A15.91,15.91,0,0,1,233,950.69l-21,12.12c-3.95,2.29-7.15.44-7.15-4.14A15.89,15.89,0,0,1,212,946.23Z"/><path class="cls-10" d="M212,945.68l21-12.13a7.39,7.39,0,0,1,3.69-1.1,4.6,4.6,0,0,1,2.58.74h0l132,76.27-32.76,30.94-131.69-76h0a5.06,5.06,0,0,1-1.18-1.05,7,7,0,0,1-1.3-4.37A16.71,16.71,0,0,1,212,945.68Z"/><path class="cls-7" d="M286.33,972.22l49.41,28.52c1.6.94,1.6,2.42,0,3.34a6.32,6.32,0,0,1-5.8,0l-49.4-28.5c-1.61-.93-1.61-2.42,0-3.36A6.42,6.42,0,0,1,286.33,972.22Z"/><path class="cls-7" d="M266.67,960.87l8.69,5c1.61.93,1.61,2.43,0,3.36a6.42,6.42,0,0,1-5.79,0l-8.69-5c-1.61-.92-1.61-2.43,0-3.34A6.36,6.36,0,0,1,266.67,960.87Z"/><path class="cls-52" d="M337.32,1039.34A6.89,6.89,0,0,1,336,1035a16.67,16.67,0,0,1,7.67-13.25l21-12.12a7.3,7.3,0,0,1,3.68-1.12c3,0,4.94,2.4,4.94,6.1a16.71,16.71,0,0,1-7.66,13.26l-21,12.11a7.58,7.58,0,0,1-3.71,1.11h0A4.54,4.54,0,0,1,337.32,1039.34Z"/><path class="cls-47" d="M337,1035a15.83,15.83,0,0,1,7.17-12.41l21-12.13c1.95-1.13,3.73-1.25,5-.54h0l1.43.81-.16.4a6.2,6.2,0,0,1,.87,3.48,15.8,15.8,0,0,1-7.16,12.41l-21,12.14a6,6,0,0,1-3.79.92l-.05.25-1.28-.72C337.73,1038.81,337,1037.21,337,1035Z"/><path class="cls-48" d="M345.44,1023.28l21-12.12c3.95-2.31,7.17-.45,7.17,4.13a15.89,15.89,0,0,1-7.17,12.43l-21,12.12c-4,2.29-7.16.44-7.16-4.14A15.8,15.8,0,0,1,345.44,1023.28Z"/><path class="cls-48" d="M339.69,1039.83,372.25,1021c1,4.12,18.32,25,18.32,25l-7.49,4.33S361.65,1036.94,339.69,1039.83Z"/><path class="cls-48" d="M339.69,1039.83c.49-.18,12.11-5,24.87-2.27.33.46,10.07-6.77,11.07-8.48-2.3-8-.87-15.07-3.38-17.86-3.81,4.47-31.57,18.43-32.59,18.82C336.87,1036.11,339,1039.21,339.69,1039.83Z"/><path class="cls-47" d="M339.66,1030l32.59-18.82c-5,12.68,18.32,25.06,18.32,25.06l-7.49,4.33S361.62,1027.13,339.66,1030Z"/><polygon class="cls-49" points="383.08 1050.42 390.57 1046.09 390.57 1036.28 383.08 1040.61 383.08 1050.42"/><path class="cls-53" d="M383.59,1045.21a7.15,7.15,0,0,1,3.22-5.59,2.06,2.06,0,0,1,2.56,0h0l10.07,9.87-1.05,1.69-13.38-3.7-.11,0-.12,0h0A2.12,2.12,0,0,1,383.59,1045.21Z"/><path class="cls-54" d="M398.16,1050.72c0,.45.32.63.72.42a1.64,1.64,0,0,0,.7-1.24c0-.45-.32-.63-.7-.41A1.55,1.55,0,0,0,398.16,1050.72Z"/><path class="cls-50" d="M826.52,352.67l16.63-9.58a10,10,0,0,1,9.16,0l83,47.9c2.51,1.44,2.51,3.83,0,5.27l-16.63,9.6a10,10,0,0,1-9.15,0l-83-47.89C824,356.51,824,354.14,826.52,352.67Z"/><path class="cls-54" d="M825,342.11l23.68-8.27,24.2,20.27L912.5,377l-25.76,14.86L837.9,363.64a4,4,0,0,1-1.64-1.6Z"/><path class="cls-10" d="M878.86,370.75,902,383.7l23.28-12.2,11.33,20h0c.66,1.29.11,2.74-1.62,3.74l-16.64,9.59a10.13,10.13,0,0,1-9.13,0L889,393.12l-1.59-1.51L876.75,373Z"/><polygon class="cls-55" points="888.98 393.12 877.64 373.03 877.96 371.1 875.35 371.72 886.74 391.82 888.98 393.12"/><path class="cls-56" d="M903.37,358.14l20.27,11.7c2.55,1.47,2.55,3.82,0,5.28L907,384.72a10.06,10.06,0,0,1-9.13,0L877.64,373Z"/><path class="cls-24" d="M875.35,371.72l-48.83-28.18c-2.49-1.47-2.49-3.83,0-5.3l16.63-9.57a10,10,0,0,1,9.16,0l48.84,28.18Z"/><polygon class="cls-56" points="854.5 340.33 887.39 359.33 884.94 360.76 852.02 341.78 854.5 340.33"/><polygon class="cls-56" points="881.59 362.69 879.11 364.13 858.61 352.3 861.07 350.88 881.59 362.69"/><polygon class="cls-18" points="877.64 373.03 903.38 358.14 901.15 356.85 875.35 371.72 877.64 373.03"/><path class="cls-57" d="M901.89,760.78c0-3.89,0-8,2-11.33s6.76-5.32,9.91-3a8.85,8.85,0,0,1,2.9,4.76c2.76,9.17.08,19-3.11,28A194.24,194.24,0,0,0,937,760.58"/><path class="cls-57" d="M924,714.82a16.12,16.12,0,0,1,4.94-11.39c2.24-2.13,6.21-3.4,8.16-1a6.21,6.21,0,0,1,1,4.18,29.11,29.11,0,0,1-2.63,11c-.42-4.14,4.05-7.78,8.15-7s7,5,6.72,9.2-3.23,7.84-7,9.63"/><path class="cls-57" d="M946.37,750.07a122,122,0,0,1,30.52-25.46"/><path class="cls-57" d="M967.32,749.87a46.66,46.66,0,0,1,7,14.87c.45,1.68,1.25,3.77,3,3.81,1.12,0,2-.89,2.76-1.72q6.64-7.49,13.31-15"/><path class="cls-57" d="M981.92,739.05q16,17.63,33.24,34.13"/><path class="cls-57" d="M990.84,711a52.43,52.43,0,0,1,10.54-10.18"/><path class="cls-57" d="M999.36,718.81a134.31,134.31,0,0,1,11.25-10.22"/><path class="cls-57" d="M1009.14,657.4a82.47,82.47,0,0,0,22.94,23.07"/><path class="cls-57" d="M1019.54,650q13.31,11.09,26.14,22.69l-1.27-1.51"/><path class="cls-57" d="M1028.23,704l35.11-30.78"/><path class="cls-57" d="M1048,697.75l10.35,21c.3.63.81,1.36,1.5,1.23a1.72,1.72,0,0,0,.8-.57l14.15-15.28-2,0"/><path class="cls-57" d="M1062.6,689.7a171.14,171.14,0,0,0,28.21,29.35"/><path class="cls-58" d="M500.94,97V362.76c0,12.06-8.53,26.75-19.05,32.82L149,587.75c-10.52,6.08-19,1.23-19-10.83V311.16c0-12.06,8.52-26.76,19-32.83L481.89,86.16C492.41,80.09,500.94,84.94,500.94,97Z"/><text class="cls-59" transform="matrix(0.87, -0.5, 0, 1, 173.36, 310.89)">Mixed Number</text><path class="cls-18" d="M442.91,317,188,464.16c-8.26,4.78-15-.29-15-11.31V343.75c0-11,6.71-23.83,15-28.6L442.91,168c8.27-4.78,15,.29,15,11.32V288.4C457.88,299.43,451.18,312.23,442.91,317Z"/><text class="cls-60" transform="matrix(0.87, -0.5, 0, 1, 256.27, 361.17)">2</text><text class="cls-60" transform="matrix(0.87, -0.5, 0, 1, 313.81, 294.25)">3</text><text class="cls-60" transform="matrix(0.87, -0.5, 0, 1, 313.81, 370.66)">4</text><line class="cls-61" x1="284.83" y1="332.34" x2="374.67" y2="280.47"/><path class="cls-62" d="M500.94,309.37v53.39c0,12.06-8.53,26.75-19.05,32.82L149,587.75c-10.52,6.08-19,1.23-19-10.83V523.53Z"/><path class="cls-58" d="M471.65,388.56,324.8,473.35c-4.8,2.77-8.69-.17-8.69-6.57V442.2c0-6.4,3.89-13.83,8.69-16.6l146.85-84.78c4.8-2.78,8.69.17,8.69,6.56V372C480.34,378.36,476.45,385.79,471.65,388.56Z"/><text class="cls-63" transform="matrix(0.87, -0.5, 0, 1, 344.37, 448.07)">Calculate</text><path class="cls-62" d="M716.17,260.22,541.77,360.91c-12,6.93-21.73-.43-21.73-16.42V88.81c0-16,9.73-34.59,21.73-41.51L716.17-53.39c12-6.93,21.72.42,21.72,16.42V218.71C737.89,234.71,728.17,253.29,716.17,260.22Z"/><path class="cls-45" d="M661.65,348.1,552.72,410.74s6.79,95.47,53.12,109.21l100.9-61.72S668,430.15,661.65,348.1Z"/><path class="cls-45" d="M484,452.27,375,514.91s6.79,95.47,53.12,109.21L529,562.4S490.32,534.32,484,452.27Z"/><path class="cls-34" d="M1386.19,677l-125.08-92.92a18.07,18.07,0,0,0-27.46,7.56l-30,46.8a21,21,0,0,0,4,27.26c16.73,14.31,47.3,35.27,80.54,32.75l78.64,36.77Z"/><polygon class="cls-64" points="1099.31 715.46 1093.09 720.92 1101.06 718.71 1099.31 715.46"/><path class="cls-65" d="M1126.34,711.68l-7.26-13.51-19.77,17.29h0a1,1,0,0,0-.29.76,2.78,2.78,0,0,0,1.23,2.29,1,1,0,0,0,.81.2h0Z"/><path class="cls-53" d="M1304.05,616l-7.33-13.61L1119.5,697.86c-1,.55-1.6,1.75-1.68,3.49A12.18,12.18,0,0,0,1123,711a3.93,3.93,0,0,0,3.88.49Z"/><polygon class="cls-10" points="1201.3 655.24 1201.24 657.76 1262.77 624.54 1262.84 622.05 1201.3 655.24"/><polygon class="cls-10" points="1265.52 620.6 1265.42 623.12 1280.49 614.97 1280.55 612.46 1265.52 620.6"/><path class="cls-66" d="M1300.2,615.52a12.06,12.06,0,0,1-5.16-9.61c.07-3.48,2.55-4.82,5.53-3a12,12,0,0,1,5.17,9.62C1305.65,616,1303.17,617.36,1300.2,615.52Z"/><path class="cls-64" d="M1300.33,611.17a3.83,3.83,0,0,1-1.62-3c0-1.09.81-1.47,1.73-.93a3.85,3.85,0,0,1,1.6,3C1302,611.32,1301.27,611.73,1300.33,611.17Z"/><path class="cls-67" d="M1324.3,606.71l-8.72-16.13-20.14,10.9c-1.2.62-2,2.08-2,4.13a14.1,14.1,0,0,0,6.16,11.39c1.75,1.11,3.36,1.24,4.55.6Z"/><path class="cls-55" d="M1319.75,606.15a14.27,14.27,0,0,1-6.16-11.4c.11-4.14,3.06-5.76,6.58-3.58a14.38,14.38,0,0,1,6.16,11.43C1326.21,606.72,1323.26,608.32,1319.75,606.15Z"/><path class="cls-68" d="M1317.67,607.27a14.41,14.41,0,0,1-6.18-11.41c0-2.08.83-3.5,2-4.13l-2.1,1.13c-1.18.64-2,2.07-2,4.12a14.26,14.26,0,0,0,6.16,11.43c1.74,1.08,3.35,1.2,4.55.58l2.13-1.13C1321,608.5,1319.42,608.35,1317.67,607.27Z"/><path class="cls-68" d="M1313,609.77a14.39,14.39,0,0,1-6.17-11.42c.05-2.07.84-3.49,2-4.14l-2.13,1.14c-1.19.66-2,2.08-2,4.15a14.33,14.33,0,0,0,6.17,11.43c1.75,1.06,3.37,1.21,4.55.56l2.14-1.14C1316.4,611,1314.8,610.86,1313,609.77Z"/><path class="cls-68" d="M1308.4,612.26a14.26,14.26,0,0,1-6.16-11.41c.07-2.07.84-3.48,2-4.14l-2.1,1.14c-1.23.64-2,2.07-2,4.12a14.36,14.36,0,0,0,6.15,11.44c1.76,1.08,3.4,1.22,4.58.58l2.13-1.15C1311.79,613.47,1310.16,613.34,1308.4,612.26Z"/><path class="cls-68" d="M1303.81,614.74a14.12,14.12,0,0,1-6.19-11.39c0-2.07.83-3.5,2-4.15l-2.1,1.15c-1.2.65-2,2.07-2,4.14a14.3,14.3,0,0,0,6.15,11.4c1.77,1.1,3.38,1.23,4.58.58l2.09-1.13C1307.15,616,1305.55,615.84,1303.81,614.74Z"/><path class="cls-54" d="M1340.77,596.22l-7.34-13.62-17,9.17a3.82,3.82,0,0,0-1.71,3.5,12.05,12.05,0,0,0,5.18,9.61,3.86,3.86,0,0,0,3.88.5Z"/><path class="cls-69" d="M1336.91,595.71a12.11,12.11,0,0,1-5.17-9.61c.09-3.49,2.58-4.82,5.56-3a12.11,12.11,0,0,1,5.18,9.62C1342.37,596.21,1339.9,597.52,1336.91,595.71Z"/><path class="cls-33" d="M1318.36,637l-61-24.82a16.47,16.47,0,0,0-16.13,2.1l-34.34,25.85a5.29,5.29,0,0,0-.78,7.76c2.69,3,7.72,5.76,16.8,3.66a97.3,97.3,0,0,0,29.87-13s15.32,39.06,43.41,39.06Z"/><polygon class="cls-33" points="1318.36 636.96 1368.83 675.34 1325.94 716.19 1296.15 677.55 1318.36 636.96"/><path class="cls-33" d="M565.81,892.76c16.46-4.49,63.08-14.25,63.08-14.25l41.72,7-52.94,5.43-54.5,16.17s2,10.17,16,8.06,38.71-5.76,38.71-5.76l4.94.68,40.86,5.66s47.58,67,88.62,66.89,58.89-1.84,58.89-1.84l7,2.22,66.92,57.61,12.25-85.79-53.11-30.64-84.59-83.28s-18.41-23-42.72-24.74S635,817,635,817l-46.43,14.23s-2.87,10.07,8.6,8.72l-37.74,12.65s2.87,16.42,17.85,12.36,61-15.39,61-15.39l47.37,6.31-55.73-2.72-77,27.4S549.35,897.27,565.81,892.76Z"/><path class="cls-24" d="M772.72,993.82l224.75,209.27s74.74,84.36,149.41,51.68c35.12-15.39,103.07-84.39,165.2-153.2,70-77.5,132.63-154.76,132.63-154.76l52.17-325.19,6.13-38.23h0c-2.57.65-167.79,43.73-309.91,343.78L1120.28,1047,856,917.28s-8.62-.94-21,3.7c-10.91,4.07-24.75,12.46-38.23,29.59C788.33,961.23,780.05,975.29,772.72,993.82Z"/><path class="cls-24" d="M1371.32,824c-19.59-67-2.91-139.68,44.74-190.7q1.23-1.32,2.49-2.64c67.41-70.47,202.22-162.38,269.62-183.83s186.89,15.32,209.36,94S1920,689.87,1920,689.87V1080H1446.13Z"/><path class="cls-35" d="M1567.93,630.82c31.58,98.67,127.49,69.54,187.08,117.33s49,151,49,151c46.22-11.55,40.9-66.24,40.9-66.24,13.25,27.49,5,58.26,4.8,59.07,34.1-37.87,50.77-74.26,55.55-108.62C1921.46,667.12,1801.79,574,1759.75,525c-54.48-63.61,32.89-150-53.85-213.43-59.79-43.73-105.7-47.84-128.47-46.16-10.27.76-15.84,2.68-15.84,2.68l-28.8-2.76-17.62,29.39,15.59,26.43s50.42,35.79,57.72,113.76S1536.36,532.16,1567.93,630.82Z"/><path class="cls-36" d="M1567.93,630.82c31.57,98.67,127.49,69.54,187.07,117.33s49,150.94,49,150.94c46.21-11.54,40.9-66.23,40.9-66.23,13.25,27.49,5,58.26,4.8,59.07,34.1-37.88,50.77-74.26,55.55-108.63-6.27-66.3-53.73-153-134.26-191.08-102.56-48.45-67.33-143.21-81.12-204.13s-67.35-48.24-98.93-77.19c-18.51-17-17.51-34.19-13.52-45.54-10.26.76-15.83,2.68-15.83,2.68l-28.8-2.76-17.63,29.39,15.59,26.42s50.42,35.8,57.73,113.76S1536.36,532.16,1567.93,630.82Z"/><path class="cls-25" d="M1561.59,268.05l-28.86-10.4s-34,14.79-25.84,58l23.26,8.5S1529,281.88,1561.59,268.05Z"/></g></g></g></svg>