<svg id="Layer_1" data-name="Layer 1" xmlns="http://www.w3.org/2000/svg" xmlns:xlink="http://www.w3.org/1999/xlink" viewBox="0 0 4500 2500"><defs><style>.cls-1{fill:none;}.cls-2{fill:#edf5fc;}.cls-3{clip-path:url(#clip-path);}.cls-4{fill:#aed3f0;}.cls-10,.cls-11,.cls-12,.cls-13,.cls-14,.cls-15,.cls-16,.cls-17,.cls-18,.cls-19,.cls-20,.cls-21,.cls-22,.cls-23,.cls-24,.cls-25,.cls-35,.cls-36,.cls-37,.cls-38,.cls-39,.cls-4,.cls-40,.cls-41,.cls-42,.cls-44,.cls-45,.cls-46,.cls-47,.cls-48,.cls-49,.cls-5,.cls-50,.cls-52,.cls-53,.cls-54,.cls-57,.cls-58,.cls-59,.cls-6,.cls-60,.cls-61,.cls-62,.cls-63,.cls-64,.cls-65,.cls-66,.cls-67,.cls-68,.cls-69,.cls-7,.cls-70,.cls-71,.cls-72,.cls-73,.cls-74,.cls-75,.cls-76,.cls-77,.cls-78,.cls-79,.cls-8,.cls-80,.cls-81,.cls-9{fill-rule:evenodd;}.cls-29,.cls-42,.cls-5,.cls-6{fill:#fff;}.cls-5{fill-opacity:0.45;}.cls-6{fill-opacity:0.55;}.cls-7{fill:#8ec2ea;}.cls-8{fill:url(#linear-gradient);}.cls-9{fill-opacity:0.23;}.cls-10{fill:#326185;}.cls-11{fill:#498abb;}.cls-12{fill:#54a3df;}.cls-13{fill:url(#linear-gradient-2);}.cls-14{fill:#d4e8f7;}.cls-15{fill:url(#linear-gradient-3);}.cls-16{fill-opacity:0.25;}.cls-17{fill:#c0175a;}.cls-18{fill:#ec6198;}.cls-19{fill:#ffd3e5;}.cls-20{fill-opacity:0.36;}.cls-21{fill:#245b53;}.cls-22{fill:#3fa092;}.cls-23{fill:#378c80;}.cls-24{fill:#4bb8a8;}.cls-25{fill:#afe7df;}.cls-26{fill:#44ae9e;}.cls-27{fill:#337b70;}.cls-28{fill:#2b6e65;}.cls-29{fill-opacity:0.42;}.cls-30{fill:url(#linear-gradient-4);}.cls-31{fill:url(#linear-gradient-5);}.cls-32{fill:url(#linear-gradient-6);}.cls-33{fill:url(#linear-gradient-7);}.cls-34{fill:#34867a;}.cls-35{fill:#edd573;}.cls-36{fill:url(#linear-gradient-8);}.cls-37{fill:url(#linear-gradient-9);}.cls-38{fill:#dabf52;}.cls-39{fill:#b69e3c;}.cls-40{fill:url(#linear-gradient-10);}.cls-41{fill:url(#linear-gradient-11);}.cls-43,.cls-44{fill:#224e77;}.cls-45{fill-opacity:0.18;}.cls-46{fill:#76b5e6;fill-opacity:0.44;}.cls-47{fill:url(#linear-gradient-12);}.cls-48{fill:url(#linear-gradient-13);}.cls-49{fill:#c2175b;}.cls-50{fill:url(#linear-gradient-14);}.cls-51{fill:url(#linear-gradient-15);}.cls-52,.cls-55{fill:#f291b7;}.cls-53{fill:#f6b8d1;}.cls-54{fill:#f18cb4;}.cls-56{fill:#633246;}.cls-57{fill:#ffc787;}.cls-58{fill:url(#linear-gradient-16);}.cls-59{fill:url(#linear-gradient-17);}.cls-60{fill:url(#linear-gradient-18);}.cls-61{fill:url(#linear-gradient-19);}.cls-62{fill:url(#linear-gradient-20);}.cls-63{fill:url(#linear-gradient-21);}.cls-64{fill:#80274b;}.cls-65{fill:#54433a;}.cls-66{fill:#3c302a;}.cls-67{fill:url(#linear-gradient-22);}.cls-68{fill:url(#linear-gradient-23);}.cls-69{fill:url(#linear-gradient-24);}.cls-70{fill:url(#linear-gradient-25);}.cls-71{fill:url(#linear-gradient-26);}.cls-72{fill:url(#linear-gradient-27);}.cls-73{fill:url(#linear-gradient-28);}.cls-74{fill:url(#linear-gradient-29);}.cls-75{fill:url(#linear-gradient-30);}.cls-76{fill:#2c211b;}.cls-77{fill:url(#linear-gradient-31);}.cls-78{fill:url(#linear-gradient-32);}.cls-79{fill:url(#linear-gradient-33);}.cls-80{fill:url(#linear-gradient-34);}.cls-81{fill:url(#linear-gradient-35);}</style><clipPath id="clip-path"><rect class="cls-1" width="4500" height="2502.18"/></clipPath><linearGradient id="linear-gradient" x1="1290.24" y1="1790.16" x2="1291.42" y2="1790.08" gradientTransform="matrix(-1336.2, -3449.07, -3304.57, 1049.7, 7642734.57, 2572852.06)" gradientUnits="userSpaceOnUse"><stop offset="0" stop-opacity="0"/><stop offset="0.44" stop-opacity="0.3"/><stop offset="1"/></linearGradient><linearGradient id="linear-gradient-2" x1="1290.49" y1="1790.54" x2="1291.67" y2="1790.54" gradientTransform="matrix(-499.06, -1565.19, -1565.19, 499.06, 3448303.43, 1129117.01)" gradientUnits="userSpaceOnUse"><stop offset="0" stop-opacity="0"/><stop offset="1"/></linearGradient><linearGradient id="linear-gradient-3" x1="1290.68" y1="1791.09" x2="1291.87" y2="1791.09" gradientTransform="matrix(-139.88, -1146.23, -1146.23, 139.88, 2235910, 1230567.38)" gradientUnits="userSpaceOnUse"><stop offset="0" stop-color="#fff" stop-opacity="0"/><stop offset="1" stop-color="#fff"/></linearGradient><linearGradient id="linear-gradient-4" x1="1279.4" y1="1803.95" x2="1280.58" y2="1803.97" gradientTransform="matrix(3.25, 57.78, -57.76, 2.37, 102739.59, -75955.49)" gradientUnits="userSpaceOnUse"><stop offset="0" stop-color="#44ae9e"/><stop offset="1" stop-color="#16786a"/></linearGradient><linearGradient id="linear-gradient-5" x1="1279.33" y1="1808.72" x2="1280.51" y2="1808.74" gradientTransform="matrix(3.25, 57.78, -57.76, 2.37, 102740.15, -75955.92)" xlink:href="#linear-gradient-4"/><linearGradient id="linear-gradient-6" x1="1275.3" y1="1814.1" x2="1276.49" y2="1814.12" gradientTransform="matrix(1.43, 40.34, -40.33, 0.81, 73940, -50652.33)" gradientUnits="userSpaceOnUse"><stop offset="0" stop-color="#337b70"/><stop offset="1" stop-color="#0f4940"/></linearGradient><linearGradient id="linear-gradient-7" x1="1276.71" y1="1810.61" x2="1277.89" y2="1810.63" gradientTransform="matrix(3.67, 47.8, -47.76, 2.94, 84080.88, -64091.85)" xlink:href="#linear-gradient-6"/><linearGradient id="linear-gradient-8" x1="1292.26" y1="1792.11" x2="1293.44" y2="1792.11" gradientTransform="matrix(-117.14, -356.32, -356.32, 117.14, 792373.47, 252922.62)" xlink:href="#linear-gradient-3"/><linearGradient id="linear-gradient-9" x1="1294.02" y1="1794.28" x2="1295.2" y2="1794.39" gradientTransform="matrix(-60.02, -208.48, -175.89, 66.34, 395812.31, 153184.12)" xlink:href="#linear-gradient-3"/><linearGradient id="linear-gradient-10" x1="1290.04" y1="1791.08" x2="1291.23" y2="1791.08" gradientTransform="matrix(500.47, -1026.39, -1026.39, -500.47, 1194981.91, 2222758.58)" xlink:href="#linear-gradient-2"/><linearGradient id="linear-gradient-11" x1="1293.41" y1="1792.42" x2="1294.59" y2="1792.42" gradientTransform="matrix(-93.93, -253.22, -253.22, 93.93, 577920.85, 161197.97)" xlink:href="#linear-gradient-2"/><linearGradient id="linear-gradient-12" x1="1290.59" y1="1791.22" x2="1291.78" y2="1791.22" gradientTransform="matrix(-80.58, -1079.38, -1079.38, 80.58, 2038688.13, 1251081.78)" xlink:href="#linear-gradient-2"/><linearGradient id="linear-gradient-13" x1="1290.88" y1="1791.22" x2="1292.06" y2="1791.22" gradientTransform="matrix(-196.11, -890.62, -890.62, 196.11, 1849880.88, 800752.34)" xlink:href="#linear-gradient-2"/><linearGradient id="linear-gradient-14" x1="1291.54" y1="1792.61" x2="1292.73" y2="1792.8" gradientTransform="matrix(34.19, -475.31, -452.72, 35.6, 768842.58, 551971.97)" xlink:href="#linear-gradient-3"/><linearGradient id="linear-gradient-15" x1="1291.07" y1="1800.63" x2="1292.26" y2="1800.73" gradientTransform="matrix(131.42, -73.71, -72.34, -109.21, -38314, 293771.18)" xlink:href="#linear-gradient-3"/><linearGradient id="linear-gradient-16" x1="1289.19" y1="1787.7" x2="1290.38" y2="1787.7" gradientTransform="matrix(-111.18, 459.08, 459.08, 111.18, -674232.31, -788611.04)" gradientUnits="userSpaceOnUse"><stop offset="0" stop-color="#d7954a" stop-opacity="0"/><stop offset="1" stop-color="#aa5f0a"/></linearGradient><linearGradient id="linear-gradient-17" x1="1293.07" y1="1794.34" x2="1294.26" y2="1794.34" gradientTransform="matrix(-12.12, -213.53, -213.53, 12.12, 401902.37, 256421.68)" xlink:href="#linear-gradient-3"/><linearGradient id="linear-gradient-18" x1="1284.45" y1="1790" x2="1285.63" y2="1790" gradientTransform="matrix(171.96, 116.18, 116.18, -171.96, -425820.09, 160266.08)" gradientUnits="userSpaceOnUse"><stop offset="0" stop-color="#391f00" stop-opacity="0"/><stop offset="1" stop-color="#391f00"/></linearGradient><linearGradient id="linear-gradient-19" x1="1286.94" y1="1786.79" x2="1288.13" y2="1786.79" gradientTransform="matrix(38.84, 252.91, 252.91, -38.84, -498623.04, -254334.08)" xlink:href="#linear-gradient-16"/><linearGradient id="linear-gradient-20" x1="1280.24" y1="1776.73" x2="1281.43" y2="1776.88" gradientTransform="matrix(9.63, 85.2, 62.69, -13.08, -120513.64, -84144.63)" xlink:href="#linear-gradient-18"/><linearGradient id="linear-gradient-21" x1="1289.93" y1="1798.34" x2="1291.12" y2="1798.34" gradientTransform="matrix(77.23, -112.07, -112.07, -77.23, 104942.62, 285310.12)" xlink:href="#linear-gradient-18"/><linearGradient id="linear-gradient-22" x1="1289.56" y1="1790.09" x2="1290.75" y2="1790.09" gradientTransform="matrix(2212.12, 1232.82, 1232.82, -2212.12, -5056224.18, 2371732.18)" gradientUnits="userSpaceOnUse"><stop offset="0" stop-color="#470922" stop-opacity="0"/><stop offset="1" stop-color="#470922"/></linearGradient><linearGradient id="linear-gradient-23" x1="1289.52" y1="1790.08" x2="1290.71" y2="1790.01" gradientTransform="matrix(1974.63, 1030.26, 1100.47, -1848.64, -4512702.85, 1982523.54)" xlink:href="#linear-gradient-22"/><linearGradient id="linear-gradient-24" x1="1286.3" y1="1789.53" x2="1287.48" y2="1790.03" gradientTransform="matrix(196.48, 249.74, 109.5, -448.11, -444607.34, 481879.4)" xlink:href="#linear-gradient-22"/><linearGradient id="linear-gradient-25" x1="1289.45" y1="1790.29" x2="1290.64" y2="1790.29" gradientTransform="matrix(1624.01, 161.93, 161.93, -1624.01, -2380273.65, 2700408.87)" xlink:href="#linear-gradient-22"/><linearGradient id="linear-gradient-26" x1="1287.36" y1="1793.19" x2="1288.54" y2="1792.77" gradientTransform="matrix(352.02, 16.16, 35.1, -162.11, -512380.3, 272295.43)" xlink:href="#linear-gradient-22"/><linearGradient id="linear-gradient-27" x1="1290.9" y1="1789.89" x2="1292.08" y2="1789.89" gradientTransform="matrix(-928.75, -655.14, -655.14, 928.75, 2375564.2, -814900.15)" xlink:href="#linear-gradient-3"/><linearGradient id="linear-gradient-28" x1="1291.67" y1="1788.91" x2="1292.86" y2="1787.35" gradientTransform="matrix(-1500.99, -170.34, -1058.81, 241.48, 3836386.1, -209558.78)" xlink:href="#linear-gradient-3"/><linearGradient id="linear-gradient-29" x1="1292.6" y1="1788.87" x2="1293.79" y2="1787.66" gradientTransform="matrix(-536.31, -128.96, -378.31, 182.81, 1373880.23, -157946.61)" xlink:href="#linear-gradient-3"/><linearGradient id="linear-gradient-30" x1="1295.38" y1="1787.94" x2="1296.57" y2="1786.87" gradientTransform="matrix(-222.09, -63.03, -156.66, 89.35, 571608.12, -75567.23)" xlink:href="#linear-gradient-3"/><linearGradient id="linear-gradient-31" x1="1291.1" y1="1792.27" x2="1292.28" y2="1792.27" gradientTransform="matrix(102.42, -458.55, -458.55, -102.42, 692744.32, 776845.21)" xlink:href="#linear-gradient-16"/><linearGradient id="linear-gradient-32" x1="1292.21" y1="1790.66" x2="1293.39" y2="1790.66" gradientTransform="matrix(-348.65, -410.32, -410.32, 348.65, 1188278.89, -93027.51)" xlink:href="#linear-gradient-16"/><linearGradient id="linear-gradient-33" x1="1293.47" y1="1792.25" x2="1294.66" y2="1793.28" gradientTransform="matrix(-149.17, -491.79, -175.55, 417.88, 510762.15, -111942.81)" xlink:href="#linear-gradient-18"/><linearGradient id="linear-gradient-34" x1="1291.07" y1="1789.92" x2="1292.25" y2="1789.92" gradientTransform="matrix(-769.55, -871.43, -871.43, 769.55, 2556373.38, -251699.68)" xlink:href="#linear-gradient-3"/><linearGradient id="linear-gradient-35" x1="1291.27" y1="1786.44" x2="1292.45" y2="1786.85" gradientTransform="matrix(-608.01, 24.44, 54.65, 271.89, 690626.52, -517036.99)" xlink:href="#linear-gradient-3"/></defs><rect id="c89" class="cls-2" width="4500" height="2502.18"/><g class="cls-3"><polygon class="cls-4" points="-219.21 566.23 5586.24 1069.81 5592.51 2993.11 -212.94 2489.54 -219.21 566.23"/><polygon class="cls-5" points="4959.16 2714.64 -144.75 2271.92 -144.85 2240.69 4959.06 2683.42 4959.16 2714.64"/><polygon class="cls-5" points="4958.22 2424.93 -145.69 1982.2 -145.79 1950.98 4958.12 2393.7 4958.22 2424.93"/><polygon class="cls-5" points="4957.27 2135.21 -146.63 1692.48 -146.74 1661.26 4957.17 2103.98 4957.27 2135.21"/><polygon class="cls-5" points="4956.33 1845.49 -147.58 1402.77 -147.68 1371.54 4956.23 1814.26 4956.33 1845.49"/><polygon class="cls-5" points="4955.39 1555.77 -148.52 1113.05 -148.62 1081.82 4955.28 1524.54 4955.39 1555.77"/><polygon class="cls-5" points="4954.44 1266.05 -149.47 823.33 -149.57 792.1 4954.34 1234.83 4954.44 1266.05"/><polygon class="cls-6" points="4289.94 3263.75 4261.61 3261.29 4253.72 840.21 4282.05 842.67 4289.94 3263.75"/><polygon class="cls-6" points="3956.74 3234.84 3928.41 3232.39 3920.52 811.31 3948.85 813.76 3956.74 3234.84"/><polygon class="cls-6" points="3623.54 3205.94 3595.21 3203.48 3587.32 782.4 3615.65 784.86 3623.54 3205.94"/><polygon class="cls-6" points="3290.34 3177.04 3262.01 3174.58 3254.12 753.5 3282.45 755.96 3290.34 3177.04"/><polygon class="cls-6" points="2957.14 3148.14 2928.81 3145.68 2920.92 724.6 2949.25 727.06 2957.14 3148.14"/><polygon class="cls-6" points="2623.94 3119.23 2595.61 3116.78 2587.72 695.7 2616.05 698.15 2623.94 3119.23"/><polygon class="cls-6" points="2290.74 3090.33 2262.41 3087.87 2254.51 666.79 2282.85 669.25 2290.74 3090.33"/><polygon class="cls-6" points="1957.54 3061.43 1929.2 3058.97 1921.32 637.89 1949.65 640.35 1957.54 3061.43"/><polygon class="cls-6" points="1624.34 3032.53 1596.01 3030.07 1588.12 608.99 1616.45 611.45 1624.34 3032.53"/><polygon class="cls-6" points="1291.14 3003.63 1262.81 3001.17 1254.92 580.09 1283.25 582.55 1291.14 3003.63"/><polygon class="cls-6" points="957.95 2974.72 929.62 2972.26 921.73 551.19 950.06 553.64 957.95 2974.72"/><polygon class="cls-6" points="624.73 2945.82 596.39 2943.36 588.5 522.28 616.84 524.74 624.73 2945.82"/><polygon class="cls-6" points="291.53 2916.92 263.2 2914.46 255.31 493.38 283.64 495.84 291.53 2916.92"/><polygon class="cls-7" points="-219.21 566.24 5586.24 1069.82 5585.73 912.13 -219.72 408.55 -219.21 566.24"/><path class="cls-8" d="M5586.25,1069.81-219.21,566.24-241,593.05l4422.31,774.79L5586.54,1159Z"/><path class="cls-4" d="M-116.73,428.9,4916.44,878.23l138.49-105.81L-113.89,363.87Z"/><path class="cls-9" d="M4394.65-198.46-49.27-520.27-67.67,371.2,4159.26,677.29c119.84,8.68,219-82.19,221.5-203Z"/><path class="cls-10" d="M4286.53-252.23-157.39-574-175.8,317.44,4051.14,623.53c119.84,8.67,219-82.2,221.5-203Z"/><path class="cls-11" d="M4170.35-388.59-273.57-710.39-292,181.08,3935,487.17c119.83,8.67,219-82.2,221.49-203Z"/><path class="cls-12" d="M480.25,2168.55,470.65,2548l2446.2,657.76-458.19-777.31Z"/><path class="cls-10" d="M3051.24,2682.8l883.87-756.94,27.9,815.22Z"/><path class="cls-13" d="M480.25,2168.55l-3.32,131.2,2439.92,906-458.19-777.31Z"/><path class="cls-14" d="M416.44,2135a49,49,0,0,1-6.46-90.23c399.8-199.86,1804.73-902.14,2029.73-1014.6a115.34,115.34,0,0,1,64.35-11.49l1532.3,169.59,342.24,297.85L2727.56,2900Z"/><path class="cls-15" d="M416.44,2135a49,49,0,0,1-6.46-90.23c399.8-199.86,1804.73-902.14,2029.73-1014.6a115.34,115.34,0,0,1,64.35-11.49l1532.3,169.59,342.24,297.85L2727.56,2900Z"/><path class="cls-16" d="M2574.24,2087.35l-593.09,96.29,30.88,17.1,666.3,180.86Zm-64.13,61.39-285.17,48.85,333.65,88.19Z"/><path class="cls-17" d="M2593.45,2078.13l-614.63,96.34,2.32,8.53,716.4,189.38Zm-64.13,61.39-285.17,48.85,333.65,88.19Z"/><path class="cls-18" d="M2590.51,2069.23,1978.2,2174.1l716.41,189.38Zm-64.12,61.39-285.18,48.84,333.66,88.2Z"/><path class="cls-19" d="M2594.32,2080l-3.81-10.76L1978.2,2174.1l26.21,6.93Z"/><path class="cls-18" d="M2043.65,2165.41l-1.31.22,2.23,6.31,1.31-.23Zm228.44-39.13-1.3.22,2.23,6.31,1.3-.22Zm293-50.18-1.31.22,2.23,6.31,1.31-.22Zm-96.73,16.57-1.32.22,2.24,6.31,1.31-.22Zm-228.83,39.19-1.32.22,2.23,6.31,1.32-.22Zm293-50.18-1.31.22,2.23,6.31,1.32-.22Zm-96.73,16.57-1.31.22,2.23,6.31,1.31-.22Zm-228.83,39.19-1.31.22,2.23,6.31,1.31-.22Zm196.25-33.61-1.31.22,2.23,6.31,1.31-.22ZM2174.36,2143l-1.31.22,2.23,6.31,1.32-.22Zm196.25-33.61-1.3.22,2.23,6.31,1.3-.22Zm-228.82,39.19-1.32.22,2.24,6.31,1.31-.22ZM2338,2115l-1.32.22,2.23,6.31,1.32-.23Zm-228.83,39.19-1.31.22,2.23,6.31,1.31-.22Zm196.25-33.62-1.31.23,2.23,6.31,1.31-.23Zm-228.83,39.2-1.31.22,2.23,6.31,1.31-.22Zm424.29-72.67-1.31.22,2.23,6.31,1.32-.22Zm70.35-12.05-1.31.22,1.34,3.8,1.31-.22Zm-514.42,88.11-1.32.22,1.34,3.8,1.32-.23Zm228.82-39.2-1.31.23,1.34,3.79,1.31-.22Zm-196.25,33.62-1.31.22,1.34,3.8,1.31-.23Zm228.82-39.19-1.3.22,1.34,3.79,1.31-.22ZM2122,2152l-1.32.22,1.35,3.8,1.31-.23Zm228.83-39.2-1.32.23,1.35,3.8,1.31-.23Zm-196.26,33.62-1.31.22,1.34,3.8,1.32-.23Zm228.83-39.19-1.31.22,1.34,3.8,1.32-.23Zm-196.25,33.61-1.31.22,1.34,3.8,1.31-.23ZM2416,2101.64l-1.31.22,1.34,3.8,1.31-.23Zm96.73-16.57-1.31.22,1.34,3.8,1.31-.23Zm-293,50.18-1.31.22,1.34,3.8,1.31-.23Zm228.83-39.19-1.32.22,1.34,3.8,1.32-.23Zm96.73-16.57-1.32.22,1.35,3.8,1.31-.23Zm-293,50.18-1.32.22,1.35,3.8,1.31-.23Zm228.82-39.19-1.31.22,1.34,3.8,1.31-.23Zm96.73-16.57-1.3.22,1.34,3.8,1.31-.22ZM2063.44,2162l-1.31.22,1.34,3.8,1.31-.23Zm228.83-39.2-1.31.23,1.34,3.79,1.31-.22ZM2096,2156.44l-1.32.22,1.35,3.8,1.31-.23Zm228.82-39.19-1.31.22,1.35,3.79,1.3-.22Zm-196.25,33.61-1.31.22,1.34,3.8,1.32-.23Zm228.83-39.19-1.31.22,1.34,3.8,1.31-.23Zm117.11-20.06-1.3.22,1.34,3.8,1.31-.23ZM2390,2106.09l-1.31.22,1.34,3.8,1.31-.23Zm-196.25,33.61-1.32.22,1.35,3.8,1.31-.23Zm228.83-39.19-1.32.22,1.35,3.8,1.31-.23Zm96.73-16.57-1.31.22,1.34,3.8,1.31-.23Zm-293,50.18-1.31.22,1.34,3.8,1.32-.23Zm228.83-39.19-1.31.22,1.34,3.8,1.32-.23Zm96.73-16.57-1.31.22,1.34,3.8,1.32-.23Zm-293,50.18-1.31.22,1.34,3.8,1.31-.22Zm228.83-39.19-1.31.22,1.34,3.8,1.31-.23ZM2070,2160.89l-1.3.22,1.34,3.8,1.31-.23Zm228.83-39.2-1.31.23,1.34,3.8,1.32-.23Zm-196.25,33.62-1.31.22,1.34,3.8,1.31-.23Zm228.83-39.19-1.31.22,1.34,3.79,1.31-.22Zm-196.25,33.61-1.31.22,1.34,3.8,1.31-.23ZM2364,2110.54l-1.3.22,1.34,3.8,1.31-.23Zm-196.24,33.61-1.32.22,1.35,3.8,1.31-.23ZM2396.59,2105l-1.31.22,1.35,3.8,1.3-.23Zm-196.25,33.61-1.31.22,1.34,3.8,1.32-.23Zm228.83-39.19-1.31.22,1.34,3.8,1.32-.23Zm96.74-16.57-1.32.22,1.35,3.8,1.31-.23Zm-293,50.18-1.31.22,1.34,3.8,1.31-.23Zm228.83-39.19-1.31.22,1.34,3.8,1.31-.23Zm96.73-16.57-1.31.22,1.34,3.8,1.31-.23Zm-293,50.18-1.31.22,1.34,3.8,1.31-.22Zm228.83-39.19-1.32.22,1.34,3.8,1.32-.23Zm-248.62,42.58-1.31.22,1.34,3.8,1.31-.23Zm293-50.18-1.31.22,1.35,3.8,1.3-.23ZM2442,2097.19l-1.32.22,1.35,3.8,1.31-.23Zm-228.83,39.19-1.31.22,1.34,3.8,1.31-.23Zm293-50.18-1.31.22,1.34,3.8,1.32-.23Zm-96.73,16.57-1.31.22,1.34,3.8,1.32-.23ZM2180.55,2142l-1.3.22,1.34,3.8,1.3-.23Zm196.26-33.61-1.32.22,1.35,3.8,1.31-.23ZM2148,2147.54l-1.32.22,1.35,3.8,1.31-.23Zm196.25-33.62-1.31.23,1.34,3.8,1.31-.23Zm-228.83,39.2-1.31.22,1.34,3.8,1.31-.23Zm196.25-33.62-1.31.23,1.34,3.79,1.32-.22Zm-228.83,39.2-1.31.22,1.34,3.8,1.32-.23Zm196.25-33.62-1.31.23,1.35,3.79,1.3-.22Zm-228.82,39.2-1.32.22,1.35,3.8,1.31-.23Zm110.92-19-1.31.22,1.34,3.8,1.31-.23Z"/><path class="cls-20" d="M2393.17,2292c-7.24-1.81,3.89-3.18,6.66-3.43,6.2-.6,12.36-.71,18.62-.7q28.2,0,56.46-1.72c39.3-2.47,78.13,1,117.42.89,33.21-.13,79.23-10.83,85.47,31,.72,4.86-17.52,1.5-20.25,1.31-20.84-1.59-41.12-4.66-62.21-3.32-29.93,1.87-60,3.18-90,5.09-23.69,1.5-41.62,7.62-55.58-12.95"/><path class="cls-20" d="M1933.42,1989.17l-10.69,2.4,234.9,248.21-10-99.36Z"/><path class="cls-20" d="M1949.42,2374.37c-7.08-10.93-42.27,17.85-47.89,20.48-45.49,21.4-90.38,40.69-132.47,68.28-9.62,6.3-37.33,28.29-22.07,41.82,50.09,44.44,128.33,34.68,187.27,58.44,27.69,11.16,44.68,38.57,74.2,47.71,50.88,15.74,105.7,12.08,157.82,20.84,123.6,20.71,246.59,45.16,369.76,67.85,27.42,5,109.25,16.3,135.08,4.82,21.14-9.37,34.26-34.29,47.68-51.59,35.09-45.27,67.85-91,101.42-137.06,8.41-11.54,22.42-23,25.78-37.49,1.44-6.24-5.28-11.73-5.19-18.62.17-14.67,7.44-32.77,15.05-45.07s13.2-26.18,19.6-39.25c2.35-4.79,4.25-10.07,6.61-14.74.89-1.8,3.74-6.64,1.95-5.7-6.9,3.61-12.92,13.6-19.61,18.36-27.62,19.74-57.36,38.93-87.58,54.4-45,23.09-92.85,48.2-142.2,60.87-38.87,10-76.83,5.48-116.2,7.81-31.69,1.9-63,7.17-94.74,3.36-54.31-6.51-108-31.82-159.8-48.42-63.23-20.31-163.85-43.9-229.32-41.4"/><path class="cls-20" d="M1939.37,2380.68c1.05-2.36,11.26-11.29,4.23-11.93-10.6-.93-57.5,52.72-56.19,65.88s49.24,35.18,58.08,36.73c24.27,4.24,49.65,3.93,73.68,9.68,48.19,11.55,93.44,32.65,140.71,47,51.92,15.7,105.3,25.16,157.2,40.77,92.1,27.64,181.22,63.78,273.48,91.12,72.89,21.61,132.53-78.75,172-125.92,14.43-17.2,31.77-31.63,46.31-48.68,16.61-19.5,39-37.14,45.84-63.61,1.35-5.13,6.24-19.57,1.2-24.14-10-9.05-64.05,12.51-76.06,16.18"/><path class="cls-21" d="M1997.32,1977l340.4,283.73-94.51,39.84L1928,1989.92l-.31-6.6Z"/><path class="cls-22" d="M1996.92,1970l340.39,283.74-94.5,39.84-315.18-310.64Z"/><polygon class="cls-23" points="2261.11 2290.14 1945.94 1979.5 1927.63 1982.92 2242.81 2293.56 2261.11 2290.14"/><polygon class="cls-24" points="2258.06 2290.71 1942.89 1980.07 1927.63 1982.92 2242.81 2293.56 2258.06 2290.71"/><path class="cls-25" d="M2251,2286.24l.75.75-9,1.68-.76-.75ZM2119.88,2157l.75.74-9,1.68-.75-.74ZM1951.7,1991.24l.76.75-9,1.68-.75-.75Zm55.53,54.73.75.74-9,1.68-.76-.74Zm131.35,129.46.75.75-9,1.67-.76-.74ZM1970.4,2009.67l.76.75-9,1.68-.75-.75Zm55.53,54.73.75.74-9,1.68-.76-.74Zm131.35,129.46.75.75-9,1.67-.76-.74Zm-112.65-111,.75.74-9,1.68-.75-.74ZM2176,2212.29l.75.75-9,1.67-.76-.74Zm-112.65-111,.75.74-9,1.68-.75-.74Zm131.35,129.46.75.75-9,1.67-.76-.74Zm-112.65-111,.75.75-9,1.68-.76-.75Zm131.35,129.47.75.74-9,1.67-.75-.74Zm-112.65-111,.75.75-9,1.68-.76-.75Zm131.35,129.47.75.74-9,1.67-.75-.74Zm-243.55-240.05.75.74-9,1.68-.76-.74Zm-40.38-39.8.75.74-5.4,1-.75-.74Zm295.29,291,.75.74-5.41,1-.75-.74Zm-131.35-129.46.75.74-5.41,1-.75-.74Zm112.65,111,.75.74-5.41,1-.75-.74Zm-131.35-129.46.75.74-5.41,1-.75-.74Zm112.65,111,.75.74-5.4,1-.76-.74Zm-131.35-129.46.75.74-5.41,1-.75-.74Zm112.65,111,.75.74-5.4,1-.76-.74ZM2056,2094l.75.74-5.4,1-.76-.74Zm112.65,111,.75.74-5.4,1-.76-.74ZM2037.29,2075.6l.75.74-5.4,1-.76-.74Zm-55.53-54.73.76.74-5.41,1-.75-.74Zm168.18,165.76.75.74-5.41,1-.75-.74Zm-131.35-129.46.75.74-5.4,1-.76-.74Zm-55.53-54.73.76.74-5.41,1-.75-.74Zm168.18,165.76.75.74-5.4,1-.76-.75Zm-131.35-129.46.75.74-5.4,1-.76-.74ZM1944.37,1984l.75.74-5.41,1-.75-.74Zm295.28,291,.75.74-5.4,1-.75-.74ZM2108.3,2145.59l.75.74-5.4,1-.75-.74Zm112.65,111,.75.74-5.4,1-.76-.74ZM2089.6,2127.16l.75.74-5.4,1-.75-.74Zm112.65,111,.76.74-5.41,1-.76-.74ZM2070.9,2108.73l.75.74-5.4,1-.75-.74Zm-67.22-66.26.75.74-5.41,1-.75-.74Zm48.52,47.83.76.74-5.41,1-.76-.75Zm112.65,111,.76.74-5.41,1-.75-.74ZM2033.5,2071.87l.76.74-5.41,1-.75-.75ZM1978,2017.14l.75.74-5.41,1-.75-.74Zm168.17,165.76.76.74-5.41,1-.75-.74ZM2014.8,2053.44l.76.74-5.41,1-.75-.75Zm-55.52-54.73.75.74-5.4,1-.76-.74Zm168.18,165.76.75.74-5.41,1-.75-.74ZM1996.1,2035l.76.74-5.41,1-.75-.75Zm239.77,236.31.75.74-5.41,1-.75-.74Zm-131.35-129.46.75.74-5.41,1-.75-.74Zm112.65,111,.75.74-5.41,1-.75-.74Zm-131.35-129.46.75.74-5.41,1-.75-.74Zm112.64,111,.76.75-5.41,1-.75-.75ZM2067.12,2105l.75.74-5.41,1-.75-.74Zm112.65,111,.75.75-5.41,1-.75-.75Zm-131.35-129.45.75.74-5.41,1-.75-.74Zm112.65,111,.75.75-5.41,1-.75-.75Zm-131.35-129.46.75.75-5.41,1-.75-.75Zm-55.53-54.72.75.74-5.4,1-.76-.74Zm168.18,165.75.75.75-5.41,1-.75-.75ZM2011,2049.7l.75.75-5.41,1-.75-.75ZM1955.49,1995l.75.74-5.4,1-.76-.74Zm168.18,165.75.75.74-5.41,1-.75-.74Zm-131.35-129.46.75.75-5.41,1-.75-.75ZM2135,2171.93l.76.74-5.41,1-.75-.74Zm-168.17-165.76.75.74-5.41,1-.75-.74Zm55.53,54.73.75.74-5.41,1-.75-.74Zm131.35,129.46.75.74-5.41,1-.75-.74ZM1985.55,2024.6l.75.75-5.4,1-.76-.75Zm55.53,54.73.75.74-5.41,1-.75-.74Zm131.35,129.46.75.74-5.41,1-.75-.74Zm-112.66-111,.76.74-5.41,1-.75-.74Zm131.36,129.46.75.75-5.41,1-.75-.74Zm-112.66-111,.76.74-5.41,1-.75-.74Zm131.35,129.46.76.75-5.41,1-.75-.74Zm-112.65-111,.76.74-5.41,1-.75-.74Zm131.35,129.46.76.75-5.41,1-.75-.74Zm-112.64-111,.75.74-5.41,1-.75-.74Zm131.34,129.46.76.75-5.41,1-.75-.74Zm-63.67-62.75.76.74-5.41,1-.75-.74Z"/><g id="g450"><path id="path452" class="cls-26" d="M2266.26,2293l551.95,1.56-.61-48.67-551.94-1.56.6,48.67"/></g><g id="path454"><path class="cls-27" d="M2828.63,2289.19l-.47-37.88-10.48,0,.47,37.88,10.48,0"/></g><g id="g456"><path id="path458" class="cls-27" d="M2266.19,2286.7l-.44-36.08-14.83,0,.44,36.07,14.83,0"/></g><g id="path462"><path class="cls-28" d="M2615.19,2309.22l203.21.58-.19-15.25-56.53-.16.07,5.62-146.68-.41.12,9.62"/></g><g id="g464"><path id="path466" class="cls-29" d="M2265.74,2250.62l551.94,1.56-.08-6.29-551.94-1.56.08,6.29"/></g><g id="path468"><path class="cls-30" d="M2606.25,2294l212,.6-.3-24.33-212-.6.3,24.33"/></g><g id="g470"><path id="path472" class="cls-31" d="M2266.26,2293l340,1-.3-24.33-340-1,.3,24.33"/></g><g id="path474"><path class="cls-32" d="M2576.37,2293.87l29.88.08-.6-48.67-29.88-.08.6,48.67"/></g><g id="g476"><path id="path478" class="cls-33" d="M2287.76,2293.06l10.17,0-.61-48.67-10.16,0,.6,48.67"/></g><g id="path492"><path class="cls-34" d="M2810.94,2300.25l-.07-5.72-49.19-.14.07,5.72,49.19.14"/></g><path class="cls-35" d="M1915.54,2377.22c-.41-29-18.07-57.76-6.83-87.12,6.83-17.83,24.92-27.69,32-44.59,6.09-14.54-.19-38.5,7.58-50.17,6-9,23.34-9.83,32.55-13.05,32.75-11.39,63.9-20.44,98.13-25.66,38.25-5.85,67.33,2.84,104.88,8.23,37.12,5.35,79.37,9.41,114.77,22.33,17.89,6.52,33.39,18.91,50.46,27.1,65.19,31.28,134.5,63.44,203.85,84,51.75,15.34,102.11,35.66,154.18,49.9a594.84,594.84,0,0,0,63.79,14.19c6.92,1.09,20.86,1.49,26,7.54,9.18,10.8,12.31,26.11,17.69,38.93,3.22,7.67,13.51,17.59,13.62,26.16.07,7.38-17.66,20-22.79,25.63-20.42,22.19-38.93,46-57.75,69.48-20.2,25.18-44.26,42.65-69.58,62.52-25,19.59-46.45,47.13-70.27,53.83s-53.87-9.43-72.72-13.55c-37.28-8.14-504.27-163.32-541.8-187.07-14.42-9.13-31.35-13.26-45.53-23.26-10.85-7.64-42.41-23.74-34.44-40.78"/><path class="cls-36" d="M2105.55,2164c-13.58,1.51-26.65-1.29-40.86,1.38-8.83,1.66-17.19,3.25-25.85,5.63a92.05,92.05,0,0,0-31.19,15.11c-2,1.52-10.13,7.86-6,11.54,10.22,9,30.37,6.5,42.9,8.64,31.44,5.41,62.35,9.41,91.76,23.12,42.76,20,82.2,47.2,125.29,66.76,63.6,28.91,132.81,46.79,200.09,64.65,34.53,9.14,69.26,17.6,103.57,27.29,6.82,1.9,29.84,11.64,36.54,5.18,4.2-4-3.68-12.36-6.13-14.61-10.69-9.81-25.36-13.51-38.74-18.37-41.64-15.19-82.73-31.64-124.06-47.6-20.39-7.86-41.35-14.16-60.92-24.12-14.39-7.29-29.18-13.83-43.27-21.77-4.95-2.76-9.89-5.73-14.61-8.89-.07,0-7.26-5-7-5.11,4.17-3.11,17.2,3.84,21.32,4.8,18.88,4.46,37.82,8.84,56.68,13.42,85.55,20.81,169.27,47.15,252.16,76.26,36.4,12.78,70.45,22.59,108.77,27.78,8.45,1.13,18.23,1.84,26.77.27,2.53-.46,8.34-1,7.06-3.2-1.07-1.81-8.54-2.49-9.81-2.75-10.69-2.12-21.29-4.66-31.9-7.27-38.31-9.36-78-16.12-114.88-30.58-48.65-19.09-101.61-34.72-150.24-54.07-31.89-12.7-60.08-26.54-91.92-39.82-85.48-35.65-172.11-79.41-267.66-74.63"/><path class="cls-37" d="M2337.86,2311c-16.49-10.1-6.46,11.76,1.63,17.49,20.87,14.73,46.59,21.54,68.91,33.8,35.54,19.51,71.12,38.13,107.64,55.74,28.48,13.72,59.2,27.3,91.55,23.37,28.44-3.46,60.65-14.38,86.3-27.13,6.65-3.32,11.34-8.66,16.2-14.2.55-.63,4.81-4.46,4.52-5.36-.64-2.2-6.86-2.36-8.31-2.57-10-1.47-20.79-.33-30.76,1.06-36.23,5-73.76,15.38-110.56,9.59-25.78-4.07-47.55-15.7-71.53-24.89-28.63-11-57.26-25.52-84.58-39.57-22.92-11.8-47-31.08-73.54-33.73"/><path class="cls-38" d="M1995.5,2177.33c-7.78,7.51-15.48,15.11-22.83,23.11-.6.63-6.84,5.73-5.17,8.38,14.19,22.54,99.45,71.36,124.89,81.67,103.41,41.93,206.5,83.31,307.07,132.67,28.22,13.83,107.29,65.7,140.12,59.62,67-12.44,146.77-42.74,206.45-76.14,11.58-6.5,31.7-23.35,50.4-37.25.18.18.32.35.47.53,9.18,10.77,12.31,26.08,17.69,38.93,3.22,7.64,13.54,17.58,13.62,26.15.08,7.39-17.66,20-22.79,25.61-20.42,22.21-38.93,46-57.74,69.5-20.19,25.16-44.27,42.63-69.59,62.5-25,19.61-46.42,47.13-70.26,53.85s-53.87-9.45-72.71-13.55c-37.29-8.17-504.28-163.32-541.8-187.07-14.42-9.13-31.35-13.26-45.55-23.28-10.85-7.64-42.4-23.74-34.44-40.78l2.22-4.57c-.41-29-18.08-57.76-6.84-87.13,6.82-17.79,24.92-27.68,32-44.58,6.08-14.52-.2-38.48,7.58-50.17,6-9,23.34-9.81,32.55-13C1985.76,2180.59,1990.64,2178.92,1995.5,2177.33Z"/><path class="cls-39" d="M1968.58,2185.35a74.46,74.46,0,0,0-1.17,21.43,2.3,2.3,0,0,0,.09,2l.2.3c3.56,23.86,22.07,37.6,47.94,57.91,32,25.15,78.57,36.63,115.23,53.75,2.87,1.33,38.05,16,37,20.13-1.33,5.38-22.14-.52-23.28-.81-9.82-2.48-20.37-2-30.37-3.7-44.29-7.62-70.17-30-108.14-50.89-9.74-5.37-34-11.73-43.32-1.91-8.3,8.69-10.29,32.33-15.34,43.62-1.4,3.11-6,8.75-3.37,12.21,25,33.38,77,33.21,111.16,49.12,13.2,6.16,11.23,24.82,25.94,32.74,42.86,23,90.62,35.68,134.94,55.57,28.51,12.81,59.6,22.56,89.35,32.39,35.76,11.81,344.29,67.15,344.29,67.15,65.11-24.39,156.88-189.14,156.88-189.14,2.85,7.18,5.09,14.75,7.94,21.59,3.22,7.64,13.54,17.58,13.62,26.15.08,7.39-17.66,20-22.79,25.61-20.42,22.21-38.93,46-57.74,69.5-20.19,25.16-44.27,42.63-69.59,62.5-25,19.61-46.42,47.13-70.26,53.85s-53.87-9.45-72.71-13.55c-37.29-8.17-504.28-163.32-541.8-187.07-14.42-9.13-31.35-13.26-45.55-23.28-10.85-7.64-42.4-23.74-34.44-40.78l2.22-4.57c-.41-29-18.08-57.76-6.84-87.13,6.82-17.79,24.92-27.68,32-44.58,6.08-14.52-.2-38.48,7.58-50.17C1952.11,2189.58,1960.57,2187.19,1968.58,2185.35Z"/><path class="cls-39" d="M2803.16,2405.39c-40,7.4-162.38,63.25-193.87,87.41-11.73,9-29.81,16.39-37.93,29.64-.11.16,18.93,1.3,35.64-6.81,21-10.16,41.62-20.1,61.61-32.08,2.14-1.26,16.94-11.74,19.18-8.9s-12.18,14.54-14.07,16c-11.37,8.85-50.77,35.5-48.16,53.37,0,.07,25.13-10.18,27.73-11,12.54-4,24.63,4.86,36.62-2.12,15-8.75,20.32-30.35,33.44-41.51,27.3-23.22,70.07-46.45,90.28-77"/><path class="cls-38" d="M2783.54,2385.15c5.5-4,9-13.51,12.73-19.14,11.11-16.92,23.05-31.84,35.85-47.47,3-3.67,6.53-6.93,9.69-10.43,3.78-4.19,8.82-10.84,14.16-13.19,9.24-4.06,21.42-.1,30.88,1,6.72.79,22,5.35,24.13,13.45,1.33,4.92-.26,10.11-1.35,14.91-2.14,9.54-4.44,18.72-7.23,28.1-2.91,9.75-6.14,19.43-8.88,29.19-1.64,5.84-2.06,12.61-5.18,17.9-3.7,6.22-12,10.7-17.64,14.82-7.66,5.64-14.62,11.55-23.09,16-9.18,4.85-16.89,12.56-26.44,16.59-2.27.94-6.15,3.23-8.88,2.74-5.54-1-9.1-11.08-13.86-12.68C2790.79,2434.4,2776.77,2391.68,2783.54,2385.15Z"/><path class="cls-39" d="M2903.69,2301.47c3.58,2.07,6.45,4.71,7.29,7.89,1.33,4.92-.26,10.11-1.35,14.91-2.14,9.54-4.44,18.72-7.23,28.1-2.91,9.75-6.14,19.43-8.88,29.19-1.64,5.84-2.06,12.61-5.18,17.9-3.7,6.22-12,10.7-17.64,14.82-7.66,5.64-14.62,11.55-23.09,16-9.18,4.85-16.89,12.56-26.44,16.59-2.27.94-6.15,3.23-8.88,2.74-5.54-1-9.1-11.08-13.86-12.68-4.27-1.42-10.55-15.48-14.06-28.7,3.61-2.22,7.74-4.07,11.42-5.91,9.8-4.82,19.79-10.15,29.24-15.64,5.27-3,8.86-8.5,13.66-12.11,7.5-5.61,15.56-10.83,23.35-15.93.92-.61-1.23,1.89-1.84,2.85a24.14,24.14,0,0,1-3.52,4.53c-3.4,3.38-7.44,6.44-11,9.58-8.47,7.4-16.92,15.5-24.89,23.44-1.36,1.33-7.53,5-7.37,7.12.11,1.69,1.62,3.55,2.24,5.11.81,1.93.62,4.41,1.9,6.15,3.4,4.62,13.07-2.12,16.71-3.86,8.78-4.21,17.59-8.62,26.51-12.54,5.82-2.55,13.31-6.28,17.94-10.75,3.32-3.19,3.13-12.77,4.46-17,4.72-15.08,10.6-29.44,14.12-45C2899.29,2319.3,2900.87,2310.28,2903.69,2301.47Z"/><path class="cls-35" d="M2869.54,2301.85c-1.73-2.13-5.28.34-7,1.25-5.13,2.71-10.6,4.37-15.27,7.85-6.92,5.14-11.2,12.32-16.59,19-10.64,13-19.55,27.55-27.81,42.23-3.48,6.18-6.51,12.75-9.4,19.2-.15.38-2.5,5.53-1.61,6,1.47.78,4.76-2.07,6-2.67a85.87,85.87,0,0,0,18.45-12.78c13.47-11.89,27.54-22.77,40.53-35.27,5.08-4.91,11.65-10.87,15-17.35,3.74-7.3,5.81-24.18-3.74-28.09"/><path class="cls-39" d="M2043.76,2352.85c21.56,1.3,41,16.79,61.37,22.79,46,13.52,93.39,19.46,139.1,34.61,42.09,13.94,81.89,34,123,50.39,53.15,21.2,111,57.53,169.63,60.48,4.26.22-8.31-2-12.3-3.46-8.72-3.14-20.16-6.93-29.39-7.4-29.89-1.48-58.69-14.1-85.89-25.47-86.67-36.25-178.05-58.5-266.65-89.12-29.79-10.29-64.25-17.7-92.61-30.81-8-3.67-24.54-4.17-27.2-14.51"/><path class="cls-40" d="M2136.67,2066.1s-31.5-394.9-33.69-419.68-44.08-321.74-44.08-321.74.53-16.83,3.88-16.94.81-5.09,2.77-7.54,7.29-4.31,7.29-4.31l11.72,33.8,682.86,102.91,148.51,208.26s51.09-.95,67.21,51.32,63.3,234.68,78.7,275.59,25.27,70.88,25.27,70.88Z"/><path class="cls-41" d="M2107.72,1555l39.53,489.63,807.28-11.76Z"/><path class="cls-42" d="M2151,2019.62s-39.06-387-41.25-411.75-48.17-294.09-51.28-299.55-.36-7.06,3-7.14.8-5.09,2.77-7.57,7.25-4.28,7.25-4.28l19.84,1.8,682.86,102.92,148.52,208.26s51.08-1,67.2,51.32,63.3,234.68,78.71,275.59,25.26,70.88,25.26,70.88Z"/><path class="cls-43" d="M2365.61,1900a23.9,23.9,0,0,1,5.15,2.47,35.17,35.17,0,0,1,5.32,4.09,42.78,42.78,0,0,1,4.84,5.21,33.49,33.49,0,0,1,3.71,5.72,5.51,5.51,0,0,1,.51,2.23,4,4,0,0,1-.53,2.29,5.22,5.22,0,0,1-3.57,2.3,3.26,3.26,0,0,1-3.38-1.4,45.12,45.12,0,0,0-4.1-6.38,39.63,39.63,0,0,0-5-5.43,22.53,22.53,0,0,0-5.23-3.43,6.84,6.84,0,0,0-4.78-.53,7.16,7.16,0,0,0-3.65,2.62,9.61,9.61,0,0,0-1.76,4.28,19.05,19.05,0,0,0,.07,5.42,24.9,24.9,0,0,0,1.49,5.82,5.34,5.34,0,0,1,.17,1.8,2.62,2.62,0,0,1-.79,1.61,11.56,11.56,0,0,1-2.92,1.93,2.4,2.4,0,0,1-2.69-.18c-.9-1.21-1.85-2.55-2.89-4a27.94,27.94,0,0,0-3.41-3.89,12.65,12.65,0,0,0-3.94-2.63,6.21,6.21,0,0,0-4.56-.08,2.66,2.66,0,0,0-1.56,1.44,10.45,10.45,0,0,0-.93,2.67,9,9,0,0,0-.14,3.07,10.54,10.54,0,0,0,.68,2.8,3.7,3.7,0,0,1,.82,1.44,5.18,5.18,0,0,1,.25,1.66,4,4,0,0,1-.31,1.52,2.73,2.73,0,0,1-.78,1,4.75,4.75,0,0,1-1.79.75,2.28,2.28,0,0,1-1.86-.21q-2-1-3.11-4.55a20.89,20.89,0,0,1-.48-8.94,12,12,0,0,1,3.42-6.84,12.16,12.16,0,0,1,6.35-3.23,13.84,13.84,0,0,1,6,.31,16.46,16.46,0,0,1,6.14,3.08,12.06,12.06,0,0,1,.86-6.25,15,15,0,0,1,3.45-5,18,18,0,0,1,7.18-4.36A12.28,12.28,0,0,1,2365.61,1900Z"/><path class="cls-43" d="M2337.81,1835.17a15,15,0,0,1,9.6-1.64,42,42,0,0,1,5.37,1.58c1.91.71,3.9,1.52,5.85,2.47s3.9,1.93,5.72,3,3.46,2,4.89,2.89c-.13-1.45-.34-3.21-.63-5.32s-.59-4.28-.88-6.54-.59-4.49-.89-6.67-.5-4.15-.62-5.92a12.11,12.11,0,0,1,.23-3.15,20.09,20.09,0,0,1,.62-2.49,1.33,1.33,0,0,1,1.3-.79,4.93,4.93,0,0,1,1.87.46,8.6,8.6,0,0,1,1.77,1.07q.78.66.78,1.14c.38,2.53.8,5.32,1.31,8.36s.93,6.11,1.39,9.19.93,6.11,1.35,9.08.8,5.65,1,8.05a3.38,3.38,0,0,1-1.36,3.11,9.07,9.07,0,0,1-3.27,2,4.76,4.76,0,0,1-.86,0,4.3,4.3,0,0,1-2-1.11,113.77,113.77,0,0,0-12.51-7.77,55.18,55.18,0,0,0-13.65-5.25,3.85,3.85,0,0,0-1.91.1,1.87,1.87,0,0,0-1.13.7,3,3,0,0,0-.57,1.63,17.08,17.08,0,0,0,0,2.12,19.11,19.11,0,0,0,.59,3.43c.35,1.16.69,2.29,1.12,3.4a28.63,28.63,0,0,0,1.24,3c.43.9.82,1.68,1.16,2.35a4.27,4.27,0,0,1,.6,2.33,4.46,4.46,0,0,1-.57,1.75,6.25,6.25,0,0,1-.92,1.2,1.85,1.85,0,0,1-.74.5,3.48,3.48,0,0,1-1.56.16,13.06,13.06,0,0,1-1.6-.19,10.62,10.62,0,0,1-2.77-3,20.21,20.21,0,0,1-2.45-5,30.49,30.49,0,0,1-1.49-6.31,23.62,23.62,0,0,1,0-7,12.13,12.13,0,0,1,1.84-4.17A10.25,10.25,0,0,1,2337.81,1835.17Z"/><path class="cls-43" d="M2388.8,1796.83c.95.16,1.91.35,2.9.57a10.56,10.56,0,0,1,2.56.94,4.32,4.32,0,0,1,1.6,1.47,2.35,2.35,0,0,1,.21,2,2.6,2.6,0,0,1-2.14,2,9,9,0,0,1-3.73.26c-1.95-.22-4.51-.58-7.72-1.09s-6.68-1.14-10.5-1.86-7.76-1.51-11.84-2.35-8-1.65-11.7-2.44-7.12-1.5-10.15-2.17-5.38-1.17-7.11-1.5a2.54,2.54,0,0,1-1.21-.88,2.4,2.4,0,0,1-.47-1.43,3.65,3.65,0,0,1,.48-1.68,4.66,4.66,0,0,1,1.61-1.57,7.49,7.49,0,0,1,5-1c1.26.34,3.29.78,6,1.35l9.2,1.92q5.07,1.08,10.79,2.23c3.77.77,7.42,1.49,10.84,2.16s6.55,1.29,9.33,1.84S2387.5,1796.58,2388.8,1796.83Z"/><path class="cls-43" d="M2366.29,1743a23.51,23.51,0,0,1,5.15,2.48,35.75,35.75,0,0,1,5.32,4.08,43.63,43.63,0,0,1,4.84,5.22,33.11,33.11,0,0,1,3.71,5.72,5.46,5.46,0,0,1,.51,2.22,4,4,0,0,1-.53,2.29,5.19,5.19,0,0,1-3.57,2.3,3.25,3.25,0,0,1-3.38-1.39,46,46,0,0,0-4.09-6.39,39,39,0,0,0-5-5.42,22.46,22.46,0,0,0-5.24-3.43,6.76,6.76,0,0,0-4.77-.53,7.19,7.19,0,0,0-3.66,2.61,9.61,9.61,0,0,0-1.76,4.29,19,19,0,0,0,.07,5.41,25,25,0,0,0,1.49,5.83,5.26,5.26,0,0,1,.17,1.79,2.59,2.59,0,0,1-.79,1.61,11.6,11.6,0,0,1-2.92,1.94,2.42,2.42,0,0,1-2.69-.18c-.9-1.22-1.85-2.55-2.89-4a27.85,27.85,0,0,0-3.41-3.88,12.69,12.69,0,0,0-3.94-2.64,6.19,6.19,0,0,0-4.55-.08,2.63,2.63,0,0,0-1.57,1.45,10.91,10.91,0,0,0-.93,2.66,9.1,9.1,0,0,0-.14,3.08,11,11,0,0,0,.68,2.8,3.73,3.73,0,0,1,.82,1.43,5.18,5.18,0,0,1,.25,1.66,3.92,3.92,0,0,1-.31,1.52,2.55,2.55,0,0,1-.78,1,4.61,4.61,0,0,1-1.78.75,2.3,2.3,0,0,1-1.87-.2q-1.95-1-3.1-4.56a20.67,20.67,0,0,1-.49-8.93,11.89,11.89,0,0,1,3.42-6.84,12.25,12.25,0,0,1,6.35-3.24,13.84,13.84,0,0,1,6,.31,16.57,16.57,0,0,1,6.15,3.08,12.16,12.16,0,0,1,.85-6.25,15,15,0,0,1,3.45-5,18.07,18.07,0,0,1,7.18-4.36A12.42,12.42,0,0,1,2366.29,1743Z"/><path class="cls-44" d="M2345.19,1713.07c-.83-6.4.13-13.32.63-19.75.31-3.89.31-7.93,1.31-11.71.72-2.75.69-5.51,1.13-8.26.22-1.34,4-9.65,5.93-4.76,1.14,2.92.08,8-.28,11-.94,7.54-1.41,15.19-2.1,22.73-.28,3.2.3,7.17-2.88,9"/><path class="cls-44" d="M2363.58,1708.53c-.5-5.86.33-12.12,1.11-18,.5-3.56.86-7.12,1.41-10.68a43.76,43.76,0,0,0,.72-6.54c0-1.17-.08-5.09,1-6,1.89-1.67,4.66,0,4.82,2.23.67,10-1.22,19.72-1.3,29.62,0,4,.61,10.76-4.82,10.07"/><path class="cls-44" d="M2879.34,1786.61a47.3,47.3,0,0,0-7.81-3.17c-3.74-.92-5.93.64-6.29,3-1.22,8.71,3.36,16.83,9.15,24.54,5.2,6.87,11.38,13.38,14,19.94,1.19,3,0,6-1.47,9-1.89,3.84-4.38,7.51-5.46,10.71-1.52,4.48-.83,9,1,13.13a43.53,43.53,0,0,0,6.74,10.15,2.74,2.74,0,0,0,3.9.3,2.8,2.8,0,0,0,.31-3.92,37.29,37.29,0,0,1-5.88-8.79c-1.27-2.89-1.91-6-.85-9.09,1.24-3.67,4.51-8,6.28-12.46,1.47-3.7,2-7.46.56-11.07-2.8-6.93-9.23-13.94-14.71-21.23-4.49-5.92-8.42-12-8.23-18.63a13.23,13.23,0,0,1,2.13.69c2.69,1.11,5.65,2.7,7.37,3.56a9.78,9.78,0,0,0,2.52.89,2.83,2.83,0,0,0,3-2.81c0-3.56-1.08-7.17-2.39-10.79-1.1-3.12-2.35-6.23-2.74-9.37-.16-1.48.75-2.48,1.36-3.68a10.55,10.55,0,0,0,1.27-5.14c-.77-21.28-8.5-42.09-8.94-63.53a2.77,2.77,0,0,0-5.54.14c.44,21.44,8.17,42.3,8.94,63.58.06,1.7-.91,2.87-1.55,4.12a9,9,0,0,0-1,5.2c.41,3.51,1.77,7,3,10.54C2878.49,1783.83,2879,1785.22,2879.34,1786.61Z"/><path class="cls-44" d="M2870.81,1680.47c-.69-.89-.47-1.92-.33-3a21.8,21.8,0,0,0,.22-4c-.25-3.17-1.13-7-1.72-10.85-.49-3.34-.83-6.68,0-9.46a2.81,2.81,0,0,0-1.85-3.48,2.76,2.76,0,0,0-3.44,1.87,24.57,24.57,0,0,0-.53,9.54c.5,4.48,1.69,9.12,2,12.82a23.3,23.3,0,0,1-.33,3.92,8.4,8.4,0,0,0,1.58,6,2.77,2.77,0,0,0,4.37-3.42Z"/><path class="cls-44" d="M2928.49,1848.22c-1.11-8.78,0-17.55-1.33-26.36-2.13-13.86-8.26-27.15-9.45-41.51a2.76,2.76,0,0,0-3-2.53,2.8,2.8,0,0,0-2.55,3c1.19,14.46,7.34,27.9,9.47,41.86,1.33,8.79.2,17.5,1.33,26.26a2.75,2.75,0,0,0,3.08,2.39A2.79,2.79,0,0,0,2928.49,1848.22Z"/><path class="cls-44" d="M2916.19,1753.74a7.23,7.23,0,0,1-.86-3.48c-.06-1.7.08-3.45.08-5a2.77,2.77,0,0,0-5.54,0,63.31,63.31,0,0,0,0,6.45,11.18,11.18,0,0,0,1.61,5,2.75,2.75,0,0,0,3.82.86A2.82,2.82,0,0,0,2916.19,1753.74Z"/><path class="cls-44" d="M2950.79,1838.68a73,73,0,0,1-1.08-13.29,2.77,2.77,0,1,0-5.54.11,82.23,82.23,0,0,0,1.19,14.3,2.77,2.77,0,1,0,5.43-1.12Z"/><path class="cls-43" d="M2703.21,1868a29.56,29.56,0,0,1-9.61,8.62c-3.77,2.09-6.31,3.26-7.53,3.48a326.37,326.37,0,0,1-82.89,11.72,83.38,83.38,0,0,1-9.95-1.09c-3-.5-4.5-1.29-4.5-2.34a10.92,10.92,0,0,1,1.05-4.15,20.91,20.91,0,0,1,2.65-4.18,19.39,19.39,0,0,1,3.49-3.14,8.88,8.88,0,0,1,3.39-1.54,275.77,275.77,0,0,0,51.48-3.74c17.11-2.86,34.12-6.36,51.14-10.53,1.79-.32,2.82.28,3.19,1.79a4.21,4.21,0,0,1-.39,2.58A25.52,25.52,0,0,1,2703.21,1868Z"/><path class="cls-43" d="M2703.43,1817.79a29.38,29.38,0,0,1-9.62,8.62c-3.76,2.09-6.3,3.26-7.52,3.49a326.35,326.35,0,0,1-82.89,11.71,85.64,85.64,0,0,1-10-1.08q-4.5-.77-4.5-2.35A11,11,0,0,1,2590,1834a20.91,20.91,0,0,1,2.65-4.18,19.43,19.43,0,0,1,3.49-3.14,9,9,0,0,1,3.39-1.54,275,275,0,0,0,51.48-3.74c17.11-2.86,34.12-6.36,51.14-10.53,1.78-.32,2.81.28,3.18,1.8a4.11,4.11,0,0,1-.38,2.57A25.52,25.52,0,0,1,2703.43,1817.79Z"/><path class="cls-43" d="M2715,1765c2.06.33,4.12.74,6.28,1.23a23.27,23.27,0,0,1,5.54,2,9.33,9.33,0,0,1,3.46,3.19,5.09,5.09,0,0,1,.45,4.4c-.39,2.19-1.9,3.65-4.62,4.41a19.22,19.22,0,0,1-8.08.55c-4.23-.46-9.77-1.25-16.71-2.35s-14.45-2.46-22.71-4-16.8-3.27-25.62-5.08-17.27-3.58-25.33-5.27-15.39-3.26-22-4.69-11.64-2.54-15.39-3.26a5.62,5.62,0,0,1-2.62-1.9,5.29,5.29,0,0,1-1-3.11,8,8,0,0,1,1.05-3.62,10.1,10.1,0,0,1,3.49-3.41,16.23,16.23,0,0,1,10.81-2.24c2.72.74,7.13,1.69,12.95,2.91s12.48,2.61,19.89,4.15,15.11,3.18,23.36,4.84,16.05,3.22,23.46,4.68,14.17,2.77,20.18,4S2712.21,1764.48,2715,1765Z"/><path class="cls-43" d="M2666.32,1648.6a51.44,51.44,0,0,1,11.15,5.35,76.21,76.21,0,0,1,11.51,8.84,93.39,93.39,0,0,1,10.47,11.28,72.22,72.22,0,0,1,8,12.39,11.69,11.69,0,0,1,1.1,4.81,8.54,8.54,0,0,1-1.14,5,11.29,11.29,0,0,1-7.73,5,7,7,0,0,1-7.31-3,98.14,98.14,0,0,0-8.86-13.81,83.94,83.94,0,0,0-10.85-11.74,48.33,48.33,0,0,0-11.33-7.43c-3.75-1.69-7.22-2.06-10.32-1.15a15.61,15.61,0,0,0-7.92,5.67,20.66,20.66,0,0,0-3.79,9.27,40.87,40.87,0,0,0,.13,11.71,54.75,54.75,0,0,0,3.23,12.61,11.1,11.1,0,0,1,.36,3.89,5.57,5.57,0,0,1-1.7,3.48,24.89,24.89,0,0,1-6.31,4.18c-2.36,1-4.23.91-5.82-.39-2-2.62-4-5.51-6.26-8.61a61.46,61.46,0,0,0-7.38-8.42,27.69,27.69,0,0,0-8.52-5.7,13.52,13.52,0,0,0-9.86-.17,5.75,5.75,0,0,0-3.4,3.12,23.74,23.74,0,0,0-2,5.78,19.81,19.81,0,0,0-.31,6.65,22.71,22.71,0,0,0,1.48,6.06,8,8,0,0,1,1.77,3.11,11.8,11.8,0,0,1,.55,3.59,9,9,0,0,1-.67,3.29,5.72,5.72,0,0,1-1.7,2.16,10.37,10.37,0,0,1-3.86,1.63,5,5,0,0,1-4-.45q-4.21-2.13-6.72-9.86t-1-19.33q1.59-9.27,7.39-14.81a26.43,26.43,0,0,1,13.74-7,29.88,29.88,0,0,1,13,.67,35.45,35.45,0,0,1,13.31,6.67,26.2,26.2,0,0,1,1.84-13.53,32.17,32.17,0,0,1,7.47-10.86,39,39,0,0,1,15.54-9.44A26.68,26.68,0,0,1,2666.32,1648.6Z"/><path class="cls-45" d="M2919.82,1973.53c-19.23-7-78.7-55-97.65-68.87-4.46-3.25-31.06-19.52-37.07-13.54-7.81,7.78-2.69,37.66-2.69,48.14,0,36.69,61,104.17,83.36,141.36,71.47,119.11,112,256.16,184.72,374.1,29.56,47.92,69.67,115.65,129.56,131.31,25.82,6.73,50.56-45.84,63.53-61.19,75.43-89.32,98.53-102.11,44.4-217.35-24.85-52.94-37.4-123.73-74.41-169.2-39-48-106.37-53.77-157.62-83.4-47.32-27.34-100.95-58.74-144.69-91.81-21.78-16.47-44.08-46.46-70.59-55.08"/><path class="cls-45" d="M3028.05,1837.71c-20.94,3.78-38,15.49-54.49,28.54-.66.53-8.67,4.7-5.71,7.54,25.27,24.25,131.92,12.12,167.69,22.92,136.9,41.33,274.86,88.06,408.72,137.93,25.43,9.52,144.16,44.59,166.77,33.86,9.89-4.7,13.54-27.23,19.39-36.08,7.84-11.79,30-32.41,30.28-47.12.16-8.82-40.14-25.67-46-29.35-51.64-32.34-117.35-53-174.94-71.59-26.68-8.63-52.94-17.58-80.5-22.73-9-1.67-43.16-16.08-38.26-12.07"/><path class="cls-45" d="M3577.5,1968.75a339.63,339.63,0,0,0-67,22.36c-10.45,4.7-58.26,19.64-57.68,36.11.83,23.31,81.06,47.09,95.52,51,42.66,11.65,120,52.32,161.67,18.89,13.55-10.85,20-27,31.28-39.75,19.14-21.7,47.45-48.21,25.48-78.22"/><path class="cls-46" d="M2063.76,1294.53a458.37,458.37,0,0,1,15.82,48.87c4.37,27.18,7.31,54.32,13.51,81.17,1.83,7.87,2.8,15.85,4.35,23.75,1.31,6.45,1.92,5.81,3,11.29.2,1.64.39,3.29.58,4.93a33.16,33.16,0,0,0-.47-4.26c0-.25-.08-.44-.11-.67-4.68-38.22-10.75-78-20.88-116.21l-.09-.39c-1.55-9.57-3.07-19.28-4.18-28.9-.5-4.51-5.4-14.88-1.08-13.57,2.3.72,10.75,28.34,12.38,39.1.33,2.26,0-4.58-.36-6.84-.22-1.33-1.33-7.15-1.61-8.48-1.77-8.4-5.18-17.94-5.59-26.45-.14-2.81,3.41,4.53,4.51,7.09,2.14,4.87,4,9.6,7.37,13.74a70.93,70.93,0,0,1,8.37,12.66c.17,1.33.36,2.67.55,4,1.55,11.07,2.94,22.14,5.1,33.13,6.59,33.68,9.7,68.15,16.1,101.94,1.69,9,3.24,17.89,4.82,26.85q.66,8.29,1.44,16.55c.22,2.25.3-4.57.14-6.82s-1-6.2-1.36-8.54l-.22-1.19c-3.58-44.29-5.35-90.24-15.85-132.93-3-12.24-5.43-22.81-10.72-33-.25-2.06-.47-4.12-.53-6.18-.05-1.75-.94-6.87-.16-5.28,27.15,55.74,26.7,119.19,34.43,179.49,2.13,16.69,1.44,32.6,1.22,49.26-.06,3.59-2.6,14.3-.78,17.16,3.13,4.87,12.05.34,17,3.31,37.62,22.73,87.1,17.42,129.29,20.31,88.65,6.09,501.75,16.24,539.87,20.11,12.77,1.28,103.08-2.23,96.51-3.28-11.38-1.81-99,13.07-110.09,15.1-25.68,4.67-676.57-30.51-676.57-30.51s29.75,124.31,31.35,132.84c6.82,36.47,12.47,92.88,13.11,130,.44,26.79-.33,54.93,2.35,81.58a278.78,278.78,0,0,1,1.08,28v10.21c0,1.7.75,6.62,0,5.09-11.49-23.75-9.86-62.33-13.46-88.34q-13.87-100.42-22.77-201.39c-.33-3.67-.45,7.4-.14,11.07.58,7.38,1.72,14.72,2.3,22.09,1.69,21.31,3.74,43.23,4.35,64.56,1.11,38.86,4.35,77.86,8.28,116.44,2.66,26.23,11.14,89.56,11.14,89.56s823.84,3.42,879.33-1.22c14.54-1.23,29.28-1,43.88-1.87,2.33,6.82,3.6,10.66,3.6,10.66L2151,2019.62s-39.06-387-41.25-411.75-48.17-294.09-51.28-299.55-.36-7.06,3-7.14C2064.48,1301.09,2062.79,1297.14,2063.76,1294.53Z"/><path class="cls-46" d="M2205.57,1978.6l833.26-3.4s-439.86,11.46-524.69,12.66S2205.57,1978.6,2205.57,1978.6Z"/><path class="cls-46" d="M2092.29,1354.08l28.42,228.62s-5.81-123.56-12.63-165.59S2092.29,1354.08,2092.29,1354.08Z"/><path class="cls-46" d="M2060.68,1312.14l50,269.86s-16.46-135.88-21.36-157.93S2060.68,1312.14,2060.68,1312.14Z"/><path class="cls-46" d="M2140.33,1581.36l773.25,18.89s-91.14,18.5-271.23,10.51S2140.33,1581.36,2140.33,1581.36Z"/><path class="cls-47" d="M677.7,2147.28l-28.54,22.9a19.63,19.63,0,0,0-7.14,16.48c.48,6.18,4.13,11.05,9.38,12.5,74.16,20.52,761.16,162.91,822.41,179.86,11.51,3.18,24.41-.55,34.43-10,51.72-48.6,309.13-306.15,380.42-377.54a16.28,16.28,0,0,0,4.58-13.72c-.77-4.85-3.93-8.48-8.21-9.41l-51.49-11.17L807.46,2033.48Z"/><path class="cls-48" d="M1856.54,1964.06,879.09,2091.32l-28.54,22.91a18.35,18.35,0,0,0-3.16,3.25s533.68,214,617.61,238c17.3,5,36.8-.76,51.77-15.16,62.06-59.72,218.83-215.49,285.32-281.66,19-18.85,30.57-30.43,30.57-30.43l24.46-59.65Z"/><path class="cls-49" d="M736.71,1998.29c-6.5,12.88-14.27,29.57-12,31.52,8.66,7.39,34.76,14.66,57,20.72l67.37,58.75c8.67,7.55,19.59,13,32.13,16,94.17,22.76,474.49,114.63,593.94,143.48,22.38,5.4,51.65.36,73.33-17.46,78.14-64.24,238.57-189.29,313.48-250.52,5.34-4.36,38.56-55.68,38.75-61.06s-39.17-3.15-44.66-4.49c-103.24-25.13-436.13-68.27-552.34-96.55-20.39-5-38.11-13.88-52.13-26.24l-102.17-90c-9.34-8.22-26.73-7-40.73,2.88-71.22,50.22-254.61,153.4-332.77,208.51-7.62,5.37-37,55.75-38.93,63.25C736.88,1997.5,736.79,1997.89,736.71,1998.29Z"/><path class="cls-18" d="M878.76,2061c8.66,7.56,19.58,13,32.13,16,94.17,22.76,474.48,114.63,593.94,143.48,22.37,5.4,51.65.36,73.33-17.46,78.14-64.23,238.57-189.29,313.48-250.51,5.34-4.36,9.29-9.77,9.47-15.15s-3.09-9.53-8.58-10.86l-559.14-136.1c-20.39-5-38.11-13.88-52.13-26.24l-102.18-90c-9.34-8.23-26.72-7-40.73,2.87L781.67,1928.58c-7.62,5.37-13.1,12.76-15,20.25s-.08,14.36,5,18.81Z"/><path class="cls-50" d="M973.82,1793.08a179.14,179.14,0,0,0,18.89-10.38c37.06-23.76,71.6-53.19,110.57-73,26.47-13.48,59.35-18.85,67.13,13.25,8.24,34-35.32,112.11-20.37,122.78a7.37,7.37,0,0,0,8,.2c20.55-12.37,101.36-85.39,123.56-60.4,2.49,2.81,6,5.87,6.1,10.28.33,21.55-98.9,95.58-117.56,108.46a159.81,159.81,0,0,0-23.76,20.21c-.85.87-12.36,9.61-10.81,11.2,6.35,6.54,35.2-18.74,40.25-22.94,25.1-20.89,90.92-77.56,119.45-82.76,22.55-4.12,40.21-4,58,9,6.69,4.87,10.63,12.94,18.06,16.93,15.75,8.47,34.07,13.73,51.77,17.69,23.94,5.36,48.63,6.48,73,10.14,11.22,1.69,21.58,6,33,7.14,18.68,2,37.15,1.75,55.49,5.48,28.76,5.84,54.65,19.44,81.17,30.42s54,19.49,80.51,30.2c31.78,12.86,67,33.38,103.49,29.54,15.76-12.62,30-24.1,42-33.93,4.27-3.49,7.64-7.63,8.93-11.9-.15-1.4-.3-2.75-.42-4q-.27-2.77-.71-5.48a11.21,11.21,0,0,0-6.91-4.59l-559.14-136.1c-20.39-5-38.11-13.88-52.13-26.24l-102.17-90c-9.34-8.22-26.72-7-40.73,2.88Z"/><ellipse class="cls-51" cx="1127.76" cy="1940.01" rx="69.61" ry="10.41" transform="translate(-934.64 1055.71) rotate(-36.62)"/><path class="cls-52" d="M1898.7,1930.15c-1.21,4.38-4.65,8.64-9,12.21-74.91,61.22-235.33,186.28-313.47,250.52-21.69,17.81-51,22.85-73.34,17.45L908.93,2066.86c-12.54-3-23.46-8.49-32.13-16.05l-107.08-93.37a16.4,16.4,0,0,1-3.73-4.68,17.24,17.24,0,0,0,5.69,14.88L878.75,2061c8.67,7.56,19.6,13,32.15,16,94.16,22.76,474.48,114.63,593.93,143.48,22.38,5.41,51.66.36,73.33-17.46,78.14-64.24,238.57-189.29,313.48-250.51,5.34-4.36,9.29-9.77,9.47-15.15A10.4,10.4,0,0,0,1898.7,1930.15Z"/><path class="cls-49" d="M1215,2043.57c8.73-6.51,7.42-13.83-2.92-16.35s-25.81.72-34.54,7.23l-52.24,39c-8.74,6.51-7.42,13.83,2.91,16.35s25.81-.72,34.55-7.23Zm89,21.67c8.73-6.5,7.42-13.83-2.91-16.34s-25.81.72-34.54,7.23l-52.24,38.95c-8.74,6.51-7.42,13.83,2.91,16.34s25.8-.72,34.53-7.23Zm89,21.68c8.73-6.51,7.43-13.83-2.91-16.35s-25.81.73-34.53,7.23l-52.25,38.95c-8.73,6.51-7.43,13.83,2.91,16.35s25.81-.72,34.54-7.23Zm89.06,21.68c8.73-6.51,7.42-13.84-2.91-16.35s-25.82.72-34.55,7.23l-52.24,38.95c-8.73,6.51-7.42,13.83,2.92,16.35s25.81-.73,34.54-7.24Zm-377-76.95c3.11-2.32,2.52-5-1.32-5.89a17.08,17.08,0,0,0-12.58,2.5l-38.4,28.63c-3.1,2.31-2.51,5,1.32,5.89a17.09,17.09,0,0,0,12.58-2.51Zm83.88-62.54c3.11-2.32,2.52-5-1.32-5.89a17.1,17.1,0,0,0-12.58,2.51l-38.39,28.62c-3.11,2.32-2.52,5,1.32,5.89a17.1,17.1,0,0,0,12.58-2.51Zm147.55-16.2c8.73-6.51,7.43-13.83-2.92-16.35s-25.81.73-34.53,7.23l-52.25,39c-8.73,6.51-7.42,13.83,2.91,16.35s25.82-.72,34.55-7.23Zm89,21.67c8.73-6.5,7.42-13.83-2.91-16.34s-25.81.72-34.54,7.23l-52.24,39c-8.73,6.51-7.42,13.83,2.91,16.35s25.81-.73,34.54-7.24Zm89.06,21.68c8.73-6.51,7.42-13.83-2.91-16.35s-25.81.73-34.54,7.24L1425,2026.1c-8.73,6.5-7.43,13.83,2.91,16.34s25.81-.72,34.53-7.23Zm89.06,21.68c8.72-6.51,7.42-13.84-2.91-16.35s-25.82.72-34.55,7.23l-52.25,39c-8.72,6.51-7.42,13.83,2.92,16.35s25.81-.73,34.54-7.23Zm-330.83-111.37c3.1-2.31,2.51-5-1.32-5.89a17.09,17.09,0,0,0-12.58,2.51l-38.4,28.62c-3.11,2.32-2.52,5,1.32,5.89a17.08,17.08,0,0,0,12.58-2.5Zm185.27-44.32c8.73-6.5,7.42-13.83-2.92-16.35s-25.81.73-34.54,7.23l-52.25,38.95c-8.72,6.51-7.42,13.84,2.92,16.35s25.82-.72,34.54-7.23Zm89,21.68c8.72-6.51,7.42-13.84-2.91-16.35s-25.82.72-34.54,7.23l-52.25,39c-8.73,6.51-7.42,13.83,2.91,16.35s25.81-.73,34.54-7.23Zm89,21.67c8.73-6.5,7.42-13.83-2.91-16.34s-25.81.72-34.54,7.23l-52.24,39c-8.73,6.5-7.43,13.83,2.91,16.34s25.81-.72,34.54-7.23Zm89.06,21.68c8.73-6.51,7.42-13.83-2.91-16.35s-25.82.73-34.55,7.23l-52.24,38.95c-8.73,6.51-7.42,13.83,2.92,16.35s25.81-.72,34.54-7.23ZM1356.79,1844c3.11-2.32,2.52-5-1.32-5.89a17,17,0,0,0-12.58,2.5l-38.39,28.62c-3.11,2.32-2.52,5,1.32,5.89a17.05,17.05,0,0,0,12.58-2.5Z"/><path class="cls-52" d="M1213.49,2034.62c8.73-6.5,7.42-13.83-2.92-16.35s-25.81.73-34.54,7.24l-52.24,38.94c-8.73,6.51-7.42,13.84,2.91,16.35s25.82-.72,34.55-7.23Zm89,21.68c8.73-6.51,7.42-13.84-2.91-16.35s-25.81.73-34.54,7.23l-52.24,39c-8.74,6.51-7.42,13.83,2.91,16.35s25.8-.72,34.54-7.23ZM1391.6,2078c8.72-6.5,7.42-13.83-2.91-16.34s-25.81.72-34.54,7.23l-52.25,38.95c-8.73,6.51-7.42,13.83,2.92,16.34s25.8-.72,34.53-7.23Zm89.05,21.68c8.73-6.51,7.43-13.83-2.91-16.35s-25.82.73-34.54,7.23L1391,2129.48c-8.73,6.51-7.42,13.83,2.92,16.35s25.81-.72,34.54-7.23Zm-377-77c3.11-2.31,2.52-5-1.32-5.89a17.1,17.1,0,0,0-12.58,2.51l-38.4,28.62c-3.1,2.32-2.51,5,1.33,5.89a17.14,17.14,0,0,0,12.58-2.5Zm83.89-62.54c3.1-2.31,2.51-5-1.33-5.88a17.05,17.05,0,0,0-12.58,2.5l-38.39,28.62c-3.11,2.32-2.52,5,1.32,5.89a17.09,17.09,0,0,0,12.58-2.5ZM1335.1,1944c8.72-6.5,7.42-13.83-2.92-16.35s-25.81.73-34.54,7.24l-52.25,39c-8.72,6.5-7.42,13.83,2.91,16.34s25.82-.72,34.55-7.23Zm89,21.68c8.73-6.51,7.43-13.83-2.91-16.35s-25.81.73-34.54,7.23l-52.24,39c-8.73,6.51-7.42,13.84,2.91,16.35s25.81-.72,34.54-7.23Zm89.06,21.68c8.73-6.51,7.42-13.84-2.91-16.35s-25.81.72-34.54,7.23l-52.24,39c-8.73,6.51-7.43,13.83,2.91,16.35s25.81-.73,34.54-7.24Zm89.06,21.67c8.73-6.5,7.42-13.83-2.91-16.35s-25.82.73-34.55,7.23l-52.24,39c-8.73,6.51-7.43,13.84,2.92,16.35s25.81-.72,34.53-7.23Zm-330.83-111.36c3.11-2.32,2.52-5-1.32-5.89a17.08,17.08,0,0,0-12.58,2.5l-38.4,28.63c-3.1,2.31-2.51,5,1.32,5.89a17.12,17.12,0,0,0,12.59-2.51Zm185.27-44.32c8.73-6.51,7.42-13.84-2.92-16.35s-25.81.72-34.54,7.23l-52.24,39c-8.73,6.51-7.42,13.83,2.91,16.35s25.82-.73,34.55-7.23Zm89,21.67c8.73-6.51,7.42-13.83-2.91-16.35s-25.81.73-34.54,7.24l-52.25,39c-8.72,6.5-7.42,13.83,2.92,16.34s25.8-.72,34.53-7.23Zm89,21.68c8.73-6.51,7.43-13.84-2.91-16.35s-25.81.73-34.53,7.23l-52.25,39c-8.73,6.51-7.43,13.83,2.91,16.35s25.81-.73,34.54-7.23Zm89.06,21.67c8.73-6.5,7.42-13.83-2.91-16.34s-25.82.72-34.55,7.23l-52.24,39c-8.73,6.5-7.42,13.83,2.92,16.35s25.81-.73,34.54-7.24Zm-368.55-83.24c3.11-2.32,2.52-5-1.32-5.89a17.1,17.1,0,0,0-12.58,2.51L1303,1860.33c-3.11,2.32-2.52,5,1.32,5.89a17.1,17.1,0,0,0,12.58-2.51Z"/><path class="cls-53" d="M1265.17,1778.44l-86.52-78.39L810,1960l86.53,78.4Z"/><path class="cls-54" d="M815.43,1964.93l359-253.14,81.08,73.45,9.65-6.8-86.53-78.39L810,1960Z"/><ellipse class="cls-55" cx="1104.32" cy="1725.92" rx="34.26" ry="11.07" transform="translate(-806.3 985.75) rotate(-36.21)"/><path class="cls-49" d="M934.87,2043.19,1277,1794.43s6-1.13,3.42,3.49-343.54,249.31-343.54,249.31S931.52,2048.79,934.87,2043.19Z"/><path class="cls-56" d="M981.29,1936a16.19,16.19,0,0,0,5.65,3.64,10.12,10.12,0,0,0,10-1.84,7.84,7.84,0,0,0,3.22-5.67c.22-2.27-.86-4.52-3.19-6.7-3.08-2.9-6.52-3.82-10.23-2.72-2.12.62-4.82,2.21-8.11,4.73L972,1921.2c3.18-2.52,5.14-4.51,5.87-6,1.3-2.54.55-5.12-2.22-7.72a9.9,9.9,0,0,0-6.06-2.8,9.06,9.06,0,0,0-6.43,2.06c-2.35,1.8-3.38,3.76-3.1,5.9s1.62,4.3,4,6.43l-9.26,7.1a30.25,30.25,0,0,1-5.36-7.22,16.25,16.25,0,0,1-1.27-7.73,13.33,13.33,0,0,1,2.11-5.91,23.32,23.32,0,0,1,5.7-5.87,25.21,25.21,0,0,1,15.16-5.68,19,19,0,0,1,13.79,5.36c2.77,2.61,4.22,5.46,4.36,8.6a8.82,8.82,0,0,1-1,5q1.37-1,6.08-.94a18.78,18.78,0,0,1,12.74,5.48,17.86,17.86,0,0,1,6.06,13.24q.09,7.65-8.6,14.34-10.71,8.22-21.42,5.3a30.31,30.31,0,0,1-11.53-6.65Z"/><path class="cls-56" d="M1038.85,1900.66q-2.58-6,.05-17,2.3-9.54,2.32-13a11.33,11.33,0,0,0-3.65-8.69,12,12,0,0,0-6.74-3.3,9.27,9.27,0,0,0-7.07,2c-3,2.32-4,4.87-3,7.69.58,1.62,2.14,3.7,4.66,6.26l-9.64,7.4c-3.83-3.86-6.3-7.51-7.38-10.89q-3-9.63,7.06-17.41,8-6.13,16.87-5.9a23.22,23.22,0,0,1,15.67,6.63,17.91,17.91,0,0,1,5.94,11.27c.35,2.81-.06,6.53-1.19,11.16l-1.33,5.51a73.92,73.92,0,0,0-1.51,7.28,11.16,11.16,0,0,0,.25,4.18l22-16.9,8.14,7.63-34.55,26.52A28,28,0,0,1,1038.85,1900.66Z"/><path class="cls-56" d="M1055.48,1820.24l8.25-6.33,29.37,61.54-8.18,6.28Z"/><path class="cls-56" d="M1104.39,1841.42a16.22,16.22,0,0,0,5.66,3.64,10.12,10.12,0,0,0,10-1.85,7.82,7.82,0,0,0,3.22-5.66c.22-2.28-.86-4.52-3.19-6.71-3.09-2.89-6.52-3.81-10.23-2.71-2.13.62-4.82,2.2-8.12,4.73l-6.62-6.21c3.18-2.52,5.14-4.51,5.87-6q2-3.81-2.23-7.72a9.94,9.94,0,0,0-6-2.81,9.16,9.16,0,0,0-6.44,2.07c-2.34,1.8-3.37,3.76-3.1,5.9s1.63,4.3,4,6.42l-9.26,7.11a30.18,30.18,0,0,1-5.36-7.22,16.38,16.38,0,0,1-1.28-7.73,13.58,13.58,0,0,1,2.11-5.91,23.33,23.33,0,0,1,5.7-5.87,25.33,25.33,0,0,1,15.16-5.69,19,19,0,0,1,13.79,5.37c2.78,2.61,4.23,5.46,4.36,8.6a8.74,8.74,0,0,1-1,5c.9-.69,2.94-1,6.08-.94a18.77,18.77,0,0,1,12.74,5.48,17.86,17.86,0,0,1,6.06,13.24q.09,7.65-8.6,14.34-10.71,8.22-21.42,5.3a30.37,30.37,0,0,1-11.53-6.65Z"/><path class="cls-57" d="M3126.74,2318.15c-3.48,1.88-22.94-14.7-25.62-17a657.35,657.35,0,0,1-67.28-66.67c-23.81-27.37-38.94-60.31-58.64-90.4-36.45-55.59-70.93-113.22-110.51-166.78-20-27-36-58.06-45.21-90.32-1.95-6.89-8.62-21-6.14-28.09,3.36-9.68,27.86.74,32.81,4.89,26.13,22,47.61,56,77.09,73.09,5.81,3.37,3.7-5.91,3-9.28-1.49-7.13-5.08-26.51,6.11-26.78,24.59-.65,58.55,10.45,79.68,23.17,11.54,7,16.54,23.93,30.43,28.14,8.4,2.55,19.54-12,28-14.19,12.21-3.15,25.15.65,37.26-2.14,6-1.39,7.86-7.14,12.73-9.88,12.51-7.11,30.59-12,45.07-10.17,30,3.79,48.37,11.83,73,29.9,10.18,7.48,25.64,25.55,38.37,27.89,2.86.51,5.75-8.69,7.29-10.61,7-8.76,24-25.67,35.86-14.25,3.41,3.29,1.92,10.26,2.73,14.52,1.43,7.43,8.16,16.69,12.51,22.66,33.67,46,76.55,87,72.15,148.38-2,28.33-5.65,60.78-12.73,88.07-2.48,9.61-14.18,32.42-7.81,42.6"/><path class="cls-58" d="M2823.45,1899.51c17.59,20.16,40.45,35.62,56.66,57.14,15.81,21,26.27,44.82,41.46,66,30.85,43,77.9,78.65,127.21,96.88,7.08,2.61,13.43,7.44,20.7,9.34,21.75,5.64,34.51-7.33,51.48-19,9-6.16,9.86-15.39,23-13.87,33,3.85,64.17,25.13,93.49,39,17.11,8.06,36.83,10.72,54.94,15.52,24,6.35,47.82,26.65,58.79,48.84,4.54,9.2,7.52,19.34,12.62,28.24,1,1.79,3.49,8.6,6,9,1.87.3-.65-9.74-.7-9.82-3.67-11.75-8.75-23-10.75-35.19-4.17-25.61-5.81-50.38-18.46-73.69-6.21-11.45-16.38-19.26-23-30.25-4-6.68-18.19-26.67-8-33.62,5.57-3.77,11,5,13,8.79,9.08,18,20.13,32.23,37,43.87,22.92,15.74,34.48-3.66,42.62-18.77a118,118,0,0,1,5.86,46.34c-2,28.33-5.65,60.78-12.73,88.07-2.48,9.61-14.18,32.42-7.81,42.6l-260.08,53.28c-3.48,1.88-22.94-14.7-25.62-17a657.35,657.35,0,0,1-67.28-66.67c-23.81-27.37-38.94-60.31-58.64-90.4-36.45-55.59-70.93-113.22-110.51-166.78A290.15,290.15,0,0,1,2823.45,1899.51Z"/><path class="cls-59" d="M2814.26,1857.18c5.62-6.64,27.27,2.69,31.89,6.57,26.13,22,47.61,56,77.09,73.09,5.81,3.37,3.7-5.91,3-9.28-1.49-7.13-5.08-26.51,6.11-26.78,24.59-.65,58.55,10.45,79.68,23.17,11.54,7,16.54,23.93,30.43,28.14,8.4,2.55,19.54-12,28-14.19,12.21-3.15,25.15.65,37.26-2.14,6-1.39,7.86-7.14,12.73-9.88,12.51-7.11,30.59-12,45.07-10.17,30,3.79,48.37,11.83,73,29.9,10.18,7.48,25.64,25.55,38.37,27.89,2.86.51,5.75-8.69,7.29-10.61,5.84-7.27,18.54-20.19,29.46-17.8-.25.43-.52.84-.76,1.25-4.89,8.06-8.51,20-7.62,29.44,1.54,16.28,2.51,34.75,8.81,50,7,16.9,19.46,30.42,25.27,48.16,3.32,10.15,17.4,28.27,6.1,37.82-6.67,5.67-14.72-8.22-16.83-12.23-11-21-17.24-43.74-26.05-65.66-10.19-25.29-22.89-45.61-47.26-58-9.57-4.85-21.05-6.54-30.32-12-11.57-6.76-25.78-15.82-38.45-20.32-10-3.56-19.48,8.3-27.86,11-13.78,4.36-28.24,7.54-42.8,7.54-9.76,0-24.51-2.8-33.56,1.25-6.65,3-7.3,19.23-13.11,19.53-9.78.46-13.37-10.39-20.72-11.66-15-2.66-36.73-2.58-51.18,1.49-4,1.14-9-.36-12.78,1.82-6.44,3.69,4.05,25.64,5.1,31.14.38,2,.73,11-2,11.34-5.06.68-12.16-8.71-15.43-11.31-14-11.29-28.27-23.5-41.29-36-18.78-18.07-35.08-38.69-53.88-56.54-10.52-10-23.24-16.55-34.24-25.51-6.7-5.45-8.51-14.54-14.29-20.78A42.1,42.1,0,0,0,2814.26,1857.18Z"/><path class="cls-57" d="M3194.62,1619.59c-28.48,4.56-56.69-6.43-85.85,1.52-15.05,4.09-27,13.81-39.86,22.08-15.88,10.26-36.1,20.49-46.77,36.71-6.54,10-9.65,23.34-13.59,34.43-7,19.54-14.76,38.75-22.94,57.77-7.81,18.12-20,34.29-27.08,52.52-2,5.11-6.13,13.24-4.08,19,3.35,9.41,23.78,9.52,31.29,10.33,40.72,4.43,71.18-22.62,90.79-55.56,29.89-50.22,56.67-100.34,98.71-141.6"/><path class="cls-60" d="M3180.84,1639.69c-27.4,1.82-52.88,7-78.47,17-3.6,1.41-17.94,4.15-20.32,7.16-1.65,2.09,1.32,9.88.86,12.92-.86,5.77-7.67,20-12.43,24-6.21,5.21-23.78-2.33-28.32,6.24-4,7.62,17.24,5.73,17,11.94-.54,11.94-22.53,28-29.59,36.57-5.72,7-14.16,12.59-19,20.19-4.14,6.54-4.16,14.41-7.65,21.27-4.51,8.79-10.4,15.74-15.91,23.77-2.87,4.18-18.11,16.93-13.81,23.58,8.64,13.43,34.91.67,44.37-4.73,19.7-11.23,29.94-32.31,44-49.29,13.43-16.2,28.05-31.15,40.83-48,14.51-19.1,33.72-34,48.23-53.15,13.11-17.31,22.19-37.49,37.32-53.18"/><path class="cls-44" d="M2961.42,1890.2,3028,1783.38S3358.72,1395.8,3365.31,1389s35.7-18,46,18.86l-273.54,342.35-80.91,87.66Z"/><path class="cls-57" d="M3553.49,1754.46c-.62,13.11,13.38,27.16,17.08,39.37,10.84,36,18.62,79,3.16,115.12-1.89,4.42-13.05,5.37-16.78,6.87-21.59,8.65-45.94,10-68.53,14.81-35.77,7.68-79.09,15.63-115.84,13-30.53-2.2-66.25-12.81-94.11-25.18-31.4-13.92-51.67-47.16-86.72-53-10.07-1.71-20.75.28-30.91-.35-24.4-1.55-47.77-2.5-72.17,0-19.16,1.9-36.83,9.14-56.42,9.17-18.68,0-48.13-5.29-58.18-24.56-2.3-4.42,2.54-9.87,5.21-12.88,8-9,16.68-13.41,26.94-18.78,22-11.42,40.56-31.17,62-44.2,19.83-12,50.18-18.64,69.63-31.15,12.38-8,99.69-117.31,99.69-117.31s11.56,5.42,21.75,10.71c27.24,14.14,50.18,34.19,75.31,51.64C3374.1,1715,3497.37,1748.38,3553.49,1754.46Z"/><path class="cls-61" d="M2976.2,1840.44c5.87,3.75,12.22,6.65,17.84,10.86,9.51,7.1,45.61.59,56.5-2.75,6.32-1.92,6.35-26.12,14.35-30.44,2.4-1.3,1.16,5.35,1.4,8.06.41,4.48-6.16,13.84-4.91,16.61.67,1.54,10.67.54,12.13.46,14.7-1.06,28.45-8,42.85-10.77,44.91-8.63,88.15-13.71,134.25-7.44,19.29,2.63,46.53,7.11,63.28,17.8,8.14,5.21,14.19,14.73,22.24,20.65,13.67,10,35.43,11.83,51.61,10.58,21-1.63,43.7-.6,64.23-5.24,41.91-9.49,82.26-23.93,124.3-33,1.27-.27,2.6-.57,3.89-.9,3.84,25.07,3.43,51-6.43,74-1.89,4.42-13.05,5.37-16.78,6.87-21.59,8.65-45.94,10-68.53,14.81-35.77,7.68-79.09,15.63-115.84,13-30.53-2.2-66.25-12.81-94.11-25.18-31.4-13.92-51.67-47.16-86.72-53-10.07-1.71-20.75.28-30.91-.35-24.4-1.55-47.77-2.5-72.17,0-19.16,1.9-36.83,9.14-56.42,9.17-18.68,0-48.13-5.29-58.18-24.56C2972.53,1846.68,2974.18,1843.29,2976.2,1840.44Z"/><path class="cls-62" d="M3132.28,1742.55c4.16-1,8-5.21,10.27-8.57,3.38-4.94,6.56-9.93,9.48-15.17,2.6-4.69,4.87-10.74,9.33-14,3.67-2.66,14,3.64,17.86,4.7,9.89,2.76,21.42,3.31,30.75,7.92,6.51,3.25,12.08,8.14,18.45,11.53,10.81,5.73,23.89,9.82,35.81,12.24,4.1.84,8.24,1.81,12.29,2.82.41.11,6.76,1.87,6.7,2-.73,1.41-7.48.19-8.75.19-9.22-.06-18.43,0-27.67,0-28.05,0-55.94-1.84-84-1.54-9,.1-18.57-2.07-27.43-.11"/><path class="cls-63" d="M3033.33,1808.21c6.08,1.57,11.08,14.3,11.62,19.59.24,2.44.13,4.94.13,7.38,0,1.71-.48,6.43.57,5.1,8.51-10.88,2-29-11.46-31.42"/><path class="cls-18" d="M3548.41,1729.2c-16.72-1.35-34.26,4.53-51.18,6.08-3,.27-14.53-.44-16.43,3.07-4.24,7.94,7.46,18.36,10.6,25.12,6.51,14.08,9,28.54,10.51,43.93,4.32,43.79-.3,89.26,7.05,132.64,3.35,19.67,13.16,39.72,22.48,57.09,3.92,7.27,5.6,16.25,10.27,23,2.11,3.1,9.57,5,12.81,6,13.32,4.1,26.59,7,40.13,10.26,36.69,8.82,76.14,28.65,111.54,15.9C3767.15,2030.37,3637.53,1681.86,3548.41,1729.2Z"/><path class="cls-64" d="M3550.33,1728.22c0,.55-.08,1-.11,1.42-3.7,32.77.11,65.87,5.7,98.35,3.52,20.35,8.25,41.13,4.9,61.75-2,12.37-20.27,9.12-29,9.88a263.26,263.26,0,0,0-26.67,4A320.8,320.8,0,0,0,3509,1940c3.35,19.67,13.16,39.72,22.48,57.09,3.92,7.27,5.6,16.25,10.27,23,2.11,3.1,9.57,5,12.81,6,13.32,4.1,26.59,7,40.13,10.26,36.69,8.82,76.14,28.65,111.54,15.9C3766.72,2030.5,3639.34,1686.77,3550.33,1728.22Z"/><path class="cls-65" d="M3057.54,152.1c-120.46.63-187.64,84.17-276.95,156.39-103.19,83.46-177.1,224-218.65,356.57-49.51,157.77,3.18,273.71,127,371.06,93,73.06,204.34,62.16,312.24,35.05,25.67-6.43,125.62-41.78,153.8-24.15,35.48,22.2,48,61.73,76.09,89.46,22.14,21.81,45.86,40.32,66.07,64,66.75,78.2,100.66,181.32,222,181.41,25.8,0,54.5-1,78.39-12.43,30.45-14.54,29.61-72.31,34.83-100.25,11.67-62.27,23.86-140.44,65.15-191.69,126.65-157.12,365.49-132.38,395.22-364.08,10.08-78.36-66-176.61-125.52-218.9-42.88-30.5-93-48.65-137.05-77.39-17.67-11.53-32.81-31.88-47.83-46.72-37.34-36.9-77.93-69-119.27-101C3499.37,142.42,3251.45,66.23,3057.54,152.1Z"/><path class="cls-66" d="M3828.87,460.76l-1.27-1.47c-12.08-13.89-27.91-25.75-41.78-37.74C3744,385.36,3710,339.26,3669.2,301.33c-19.65-18.26-40-35.3-57.53-55.81-1.3-1.49-6.65-6.65-3.65-7.52a31.82,31.82,0,0,1,10-.87q23.43,15.47,45.1,32.26c41.34,32.07,81.93,64.14,119.27,101,15,14.84,30.16,35.19,47.83,46.72,44,28.74,94.17,46.89,137.05,77.39,59.5,42.29,135.6,140.54,125.52,218.9-29.73,231.7-268.57,207-395.22,364.08-41.29,51.25-53.48,129.42-65.15,191.69-5.22,27.94-4.38,85.71-34.83,100.25-23.89,11.39-52.59,12.43-78.39,12.43-121.38-.09-155.29-103.21-222-181.41-20.21-23.68-43.93-42.19-66.07-64-28.12-27.73-40.61-67.26-76.09-89.46-4.48-2.79-10.78-4.26-18.29-4.72,6.75-21.38,10.78-43,8.24-65.14-4.16-35.84,6.19-33.59-7.08-66.83C3123.8,875,2910.32,1045,2871,1038.37c-27.24-.54-52.56,3.55-79-6.11-89.55-32.83-245.27-182.89-211.76-287.43,1.54-4.78,118.4-13.92,141-18.13,89.9-16.79,179-39.88,268.54-58.93,64.47-13.73,138.08-17.33,196.15-51.79,21-12.46-78.47-44.25-86.63-46.45-3.73-1-34.37-10.66-28.13-12.78,50.85-17.28,278.54,1.79,330.66,24.31,48,20.78,133.19,86.2,185.53,85.6,2.81,0-4.16-3.74-6-5.83-5.26-6-10.45-12.19-15.51-18.37-13.53-16.58-31.75-31.2-48.58-44.44-1.59-1.25-33.1-19-25.89-19.73,26.57-2.66,66.45,21.49,92.69,26.92,71.14,14.76,150.91,26.42,222.9,13.37,25.4-4.61,50.56-12.21,75.9-17.44.68-.14,1.62-.17,1.89-.82,2.49-6.07-27.37-16.19-30.94-18.39-13.7-8.5-23.26-23.53-34.26-34.84-69.12-71.19-111-96.43-212-113.28-12.32-2.06-113.84-20.13-117.11-25.85-2.33-4.1,8.1-5.1,12.67-6.24,30.8-7.82,67.93-9.26,99.47-9.39,64.88-.33,137.05,31.66,196.17,56.16,6,2.47,18.57,6.76,30.16,12.27,4.84,5.61,10.38,12.18,16.37,16.22,2.6,1.76,9,7.38,8.35,4.29C3852.11,473.56,3841,466.51,3828.87,460.76Z"/><path class="cls-65" d="M3263.85,592.56c81.87-8.49,259.84,105.19,326.8,151.86,33,23,63.28,51.09,91.11,79.9a224.77,224.77,0,0,1,24.4,30.17c3.33,4.89,14.79,16.42,9.06,15.2-16.59-3.56-120.25-102.89-138.16-118.24-64.64-55.51-159.78-71.5-236.47-102.81-33-13.45-69.64-51.17-104.11-55.24"/><path class="cls-65" d="M3655,654.61c41.58,4.29,79.71,10.91,120.92,18.37,22.83,4.15,45.69,10.1,68,16.47,31.88,9.12,72.39,19.92,98.76,41.3.76.62,5.3,3.5,5,4-1.33,2.47-21.65-6-24-7-14.54-6-29.83-7.35-45.13-9.85-77.36-12.64-160.7,11.29-231.52-30.79"/><path class="cls-65" d="M3127.36,670.3c-115.51,14.65-231.92,36.84-344.23,67.58-39.83,10.88-79,20.22-119.32,28.87-13.65,2.9-25.78,6.43-39.35,10.47-7,2.09-26.75,1.5-21.1,6.19,15.48,12.89,143.62-8.28,163.32-12.26,72.66-14.74,146.24-23.42,217.6-43.85,60.21-17.23,127.52-50.87,190.29-56.62"/><path class="cls-65" d="M3223.94,774.54c26.37,29.84,59.85,54,81.22,87.8,50.94,80.63,74.42,173,109.36,260.63,16.48,41.34,38.26,80.09,52.07,122.55,12.27,37.77,34,68.1,34.75,66.93,13.81-20.86-1.78-130.36-4.7-156.87-14.75-134.93-104.63-390.73-272.27-398"/><path class="cls-65" d="M2566.18,796.43c3.08,23.8,44.18,48.27,63.63,54.89,69.31,23.55,139.52,22.79,211.37,27.51,27.18,1.77,49.64-2.6,76.2-5.61,1.51-.19,17.94-2.53,18.13,1.11.35,7.76-23.32,12.75-27.89,13.73-17.62,3.77-92.19,3-102.76,15.68-1.27,1.52,32.94,5.45,35.13,5.45,27.1.08,54,2.28,81,2.42,1.3,0,26.56-1,26.83.16.9,3.61-22.05,8-23.21,8.11-30.42,2-57.23,10.69-87.09,16.69-92.44,18.56-180.8,28.35-235.6-62.89"/><path class="cls-66" d="M3852.78,646.15c-21.69-2.25-48.93-22.52-69.79-30.39-57-21.54-114.14-39.39-172-58.6-99.22-33-201.74-41.43-305.26-48.27-39.83-2.63-79.66-8.68-119.6-9-83.52-.65-166.42-14.35-250.06-14.9-25-.16-50.07,0-75.12,0h-42.5c68.07,0,140.7-20.76,211.52-23.69,105.5-4.34,196.4,27.76,298.51,38.37,79.88,8.27,163.45-9.26,242.17,5.83,65.42,12.53,128.32,52.47,188,80.72,36.73,17.39,117.09,39.58,145.57,66.12"/><path class="cls-66" d="M2979.74,520.74c-59.82-16.49-127.19-12.23-187.42-1.3a508.49,508.49,0,0,0-62,15c-8.24,2.58-16.35,5.67-24.64,8-3,.81-11.6,1.46-8.84,3,5,2.69,15.27.71,20.83.71h54c38.67,0,79.12,4.53,117.65.08,31.34-3.64,60.55-16.85,93-17.61"/><path class="cls-66" d="M3107.77,591.07c-106.87-27.78-223.41-17.23-332.12-2.93-32.48,4.29-65.1,20.49-97.63,21.73-2.49.11,4.95-.13,7.4-.46,6.3-.81,12.54-1.6,18.87-2,19.1-1.31,38.1-3.2,57.23-4.1,56-2.69,111.76-6.4,167.69-9.55,14.19-.81,28.32-1.63,42.43-3.26a157.71,157.71,0,0,1,18.18-.84h6.73c-40.59,0-84.68,13.19-122.65,26.59-7.11,2.53-14.29,4.67-21.51,6.87-3.11.92-6.21,2.11-9.43,2.74-1.32.24-4.43-.57-4,.73.73,2.33,19.57-2,20.27-2.17,18.56-4,37.26-7.16,55.91-10.77a738.26,738.26,0,0,1,156.21-13.19c1.57,0-3.13,0-4.73,0h-6.73c-7.46,0-15.64,2.14-22.91,3.8-26.92,6-53.1,15.19-79.5,22.92-8.75,2.55-17.59,5.27-26.26,8.06-2.3.76-4.52,1.77-6.81,2.55-1.68.6-7.06,1.33-5.27,1.11,52.53-6.15,102.44-13.18,152.94-29.95,16.37-5.43,33-7.89,49.8-11,5.21-1,24.24-3,22.18-3.34"/><path class="cls-66" d="M2750.52,408.8c-16.7,10.42-31.32,22.63-45.94,35.87-8.16,7.38-62.93,58.74-61.47,62.45,3,7.74,25.72-2.74,26.83-3.22,31.08-13.84,60.53-32.51,91.77-46.56,61.55-27.65,139.54-39.75,206.44-44.8,40.59-3.06,81.31-2.28,121.81-5.51,8.08-.62,34.08,2,40.13-4.34,4.41-4.61-25.48-6.86-26.45-6.94-29.65-2.39-59.07-4.86-89-6.92-33.83-2.31-68.25-5.24-101.36-13.13-59.06-14.06-62.31-29.47-116.67,3.47"/><path class="cls-18" d="M4537.38,1129.48c-44.13-1.66-113.5-75.19-152.76-97.19-187.31-105-437.75-338.88-665.16-202.38-529,317.53-287.4,689.89-100.71,1133.39,47.61,113.11,103.28,230.35,132.22,350.21,4.81,19.95-4.49,37.47-1.06,57.36,1.79,10.42,24.05,24.31,20.7,35.08-8.24,26.46-160.64-59.58-180.67-68-53-22.25-128.32-61.86-172.34-99.38-27.59-23.53-54.42-60-89.36-73.15-124.46-46.64-282.54,63-271.08,195.43.81,9.5,28.08,20.89,34,28.81,78.66,104.6,148.05,182.49,265.51,249.18,394.9,224.2,762,254,1205.68,146"/><path class="cls-67" d="M3085.37,2254.1c22.64,30.76,55.64,57.19,82.42,78.79C3299.6,2439.27,3468.91,2538,3640,2563.32c70.74,10.47,212,47.24,278,40.56,9.87-1-2.4-28.13-4.48-31.66-16.92-28.38-54-54.08-75.66-80.8-1.17-1.44-12.38-14.76-11.54-15,22.83-7.46,114.19,82.72,154.26,74.23,17.33-3.66-16.8-77.08,2.79-86.52,16.94-8.2,50.07,3.47,68.79,2.09,60.78-4.48,178.37-19.19,220.31-68.89,52.5-62.24,48.69-180.84,48.72-257.86,0-235.86-128-540.47-258.24-732.48-53.7-79.18-103.77-166.11-176.94-229.49-36.91-32-78.88-58.82-112.87-93.6-2.86-3-8.46-7.49-2.49-9.77,28.73-10.88,188.72,104.51,231.71,112.49,3.76.71-6.21-20.51-6.72-21.41-3.22-5.4-29.21-55.21-20.32-61.78,33.64-24.8,69.17,43.66,78.95,60.75,46.59,81.59,87.23,168.14,124.09,254.63,2.4,5.68,31.1,81.46,38.07,79,16.37-5.67-11.57-130.72-17.86-151.45q-18.24-60-36.59-119.9c-2.38-7.84-7.51-18.17,3.16-20.37,19.57-4.07,88.74,14.11,97.31,34.35,7.62,18,14.91,189,20.88,226,10.54,65.44,49.16,137.86,50.7,202.48,1.08,44.53-41.24,90.46-24.59,137.32,8.83,24.88,34.29-18,41.85-3.69,1.76,3.31-11.32,70.33-8.56,88.56,13,86.33,40.91,172.69,56.26,259.24,4.27,24,21.42,142.91,50.23,145.35,24.62,2.12,56.29-86.52,82.71-72.93,8.24,4.2,15.65,12.53,22.38,23.06l8.13,539.06c-443.64,108-810.78,78.17-1205.68-146-117.46-66.69-186.85-144.58-265.51-249.18-5.94-7.92-33.21-19.31-34-28.81C3053.81,2322.22,3064.89,2285.54,3085.37,2254.1Z"/><path class="cls-68" d="M4373.08,2411c8-108-9.21-213.89-25-319.81-18.89-126.84-38.72-250.37-86.68-370.27-40.24-100.63-87.45-200.48-135.6-297.53-14-28.27-58.15-81.58-57.26-113.41.17-6.94,17.05,14.38,17.65,15.3a140.85,140.85,0,0,1,7.08,12.29c11.86,23.07,26.18,44.8,39.67,66.94,34.12,56,76.66,105.22,106.3,164.66,3.78,7.6,30.61,65.12,38,66.2,1.52.25.52-15.92.46-16.52-1.54-20.94-6.27-41.62-8.64-62.48-4.68-41.24-21.16-114.66-19.54-152.13.08-2.12,1.78,3.82,2.46,5.83,1.86,5.62,4,11.4,5.59,17,5.68,20,14.57,38.69,19.51,59,7.57,31.06,11.14,63.68,20.46,94.23,7.16,23.47,20.21,42.7,20.8,68.07.38,17.09-17.45,42.76-22,60.26-10.46,40.62,2.81,81.34,13.21,120.47,1.76,6.59,4.67,41.48,10.75,44.6,1.95,1,1.9-4,2.19-6.21.84-6.73-1.81-42.38,9.54-43.52,3.57-.38,1,35.6,1,40.15,0,23.83,2.19,53.7,6.54,77.22,17.37,94,40.69,188,60.74,281.66,9.24,43.27,9.62,99.06,30.24,138.64,18.86,36.22,87.47.9,107.17,7.84,4.16,1.5,39,72.07,44,79.74,31.89,49.09,73.31,92.55,111.71,136.45,19.78,22.6,45.37,43.09,33.72,75.65-11.4,31.88-77.9,127.41-116,128.06-3.79.05-7.68-21-8.46-23.74-6.27-22-15.08-43.58-27.81-62.65-3.7-5.51-73.39,75.83-80.25,76.21-48.61,2.72-89.79-66.69-138-60.5-113.39,14.51-226,37.17-339.26,53.5-106.87,15.44-215.71,25.51-316.83-20.29-79.44-36-162.45-65.09-240.87-103.32-8.27-4-73.61-33.64-73.79-44.22-.14-8.12,29.91.1,32.21.76,32.18,9,65.36,14.19,97.33,23.57,76.14,22.36,157.86,28.19,236.25,39,61.15,8.44,124.84,18.51,186.58,18.56,16.56,0,47.23,4.8,60.45-8.76,11.51-11.78-32.94-70.6-39.62-79.36-2.13-2.82-16.45-26.13-9.35-27.92,11.71-3,42.24,18.75,65.45,13.16,32.81-7.92,83.71-47.24,122.27-58.61,40.19-11.85,83.83-12.42,125.36-14.35,20.72-1,106.71-8.46,112.62-36.55"/><path class="cls-69" d="M4166.64,1360c-14.21-18.64-15.89-46.45-26.73-67.4-27.42-53.07-57.06-111.18-76.2-167.81-4.86-14.38-29.37-84.49,5.76-81.58,27.05,2.25,47.94,65.71,55,86,18.61,53.5,46.93,151,57,206.09,4,21.76,0,44.88,3.11,66.77"/><path class="cls-70" d="M4095.19,1351.85C4168.53,1493.15,4259,1628.51,4305,1783c47.37,158.83,67.8,325.94,106.28,487.15,11.81,49.47,30.94,164.12,74.8,194.57,52.15,36.16,182.2,6.83,233.25-17.56,21.5-10.25,43.82-22.3,54.2-45.06,25.19-55.38-8.16-226.64-14.7-289-20.64-196.7-49.1-396.61-92.09-589.65-25.51-114.56-39.91-228.51-143.83-297.26-17.54-11.59-36.48-24.18-55.64-32.89-13.73-6.26-28.46-10.14-43.16-13.15-24.5-5-53-15.23-77.49-6.68-10.84,3.77-12.51,25.23-17.62,33.78-13.27,22.36-33.18,52.31-57.48,63.71-17.8,8.33-30-9.36-41.23-21.11-1.68-1.77-14.51-20.41-16.73-13.87-6.86,20.13,10.95,49.93,15.57,69.27,10,41.78,27,156.74,19.7,199.18-6.27,36.57-51.59-8-58.21-18.26C4182.69,1473.78,4101.92,1364.93,4095.19,1351.85Z"/><path class="cls-71" d="M3912.31,2487.73c-20.21-10.47-36-23.47-53.58-38-10.81-9-21.78-16.69-31.18-27.35-4.79-5.4-27.16-28.63-25.24-37.39,2.43-11,34.64,2.17,38.88,5.73,29.43,24.55,54.8,53.93,84,79,6,5.19,35.46,34.41,23.08,41.87"/><path class="cls-72" d="M3500.48,1057.39c-23.32-.49-35.56,53-40.91,67.88-24.13,67.13-51.32,125.13-52.13,198.2-2.19,200,187.45,488.7,267.06,679.74q31,74.52,68.79,145.67c4.65,8.79,19.84,47.67,36.24,43.79,40.07-9.5,25.64-111.51,18.91-135.25-20.26-71.6-61.58-140.33-91.65-208.54s-47.45-142.77-58.53-216.3c-4.25-28.19-24-153,2-173,26.83-20.7,169.83-20.78,165.29-71.62-7.24-81.1-81.23-242.32-109-329.22-2.68-8.41-37.21-98.55-37.1-100.66.86-16.23,45.12-54.35,23.91-66-13.62-7.49-40.42,17.5-51,24.5-51.4,33.86-106.28,79.77-139.27,131.26"/><path class="cls-73" d="M3250.09,2183.34c-7.67,6.75-15.45,1.22-24.05,5.31-27.42,13.08-51.74,28.57-73.2,50.06-2.51,2.5-9.08,4.7-7.27,7.73,1.49,2.47,5.41,2.23,8.27,2.28,34.83,1,77.56-22.95,112.17-4,24.72,13.53,39.94,53.85,64.77,71.84,77.39,56.11,203.23,108.09,292.54,143.07,45.85,17.93,91.06,34.13,139.73,42.3,6.21,1.05,31.72,14,36.69,8.65,35.59-38.2-120.06-105.84-130.95-111-50-23.58-100.79-48.81-145.13-82.26-36.48-27.51-80.69-41.19-118.41-66.34-38.67-25.8-78.87-77.14-128-77.73"/><path class="cls-74" d="M3767.58,2212.26c10.46,33.78-3.45,109.86,9.43,128.09,25.89,36.57,129.71,72.71,169.08,92.76,11,5.65,40.69,32.26,54.07,29.12,5.65-1.31,4.46-23.69-9.65-82.32-2.19-9.09-24.86-2.66-31.53-3.31-16-1.58-36.29-14.6-49.88-23.09-36.27-22.66-113.3-105.22-126.95-147.36"/><path class="cls-75" d="M3749.94,2458.07c7.78,19.4,24.43,31.26,35.78,48.19,7.78,11.61,14.4,24.23,21.8,36.11,2.25,3.58,36.56,39.78,39.1,31.94,9.16-28.65-66-116.81-96.87-124.19"/><path class="cls-76" d="M2936.09,1089.84c-.5,10.27-8.76,21.11-14.92,28.47-2.54,3.08-5.3,6.11-7.64,9.37-.25.39-3.16,3.35-2.21,3.69,1.68.56,4.09-2.88,5-3.89,4.39-4.83,9.13-11.79,14.17-15.75,1.44-1.11-2.84,5.72-1.09,5.31s6.25-8.57,8.57-7.54c1.12.49-.4,4.94-.7,5.75-.21.5-1.22,1.74-.76,1.46,6.3-4,14-13.67,17.06-20.49.83-1.91,3.23-5.84,1.81-8-.91-1.36-6.39-1.9-8-2.08"/><path class="cls-57" d="M2959.48,1097.65c28.1,33.56,47.42,77.52,62,118.68,5.46,15.41,9.24,31.55,17.26,45.9,3,5.35,4.41,11.13,9.38,15,2.89,2.26,6.32,2.34,9.78,2.75,20.4,2.41,29-15.69,40.4-28.52,2.41-2.74,7.21-2.93,10.16-5.13,5.59-4.18,8-11.86,6.84-18.75-4.08-23.55-33.24-32-49.34-46.15"/><path class="cls-57" d="M2724,995.28c31.67,44,79.18,82.89,133.54,93.66,24.57,4.86,62.18-6.27,84.26,8.17,38.34,25,62.82,66.5,96.33,96.78,21.21,19.21,43.48,34.21,69.82,45.44,21.24,9.07,45.08,11.21,67.18,17.23,38.88,10.58,78.63,16.47,117.14,28.74,24.37,7.76,60.74,29.6,86.95,16.41,2.11-1-3.83-2.71-5.43-4.39-2.67-2.85-4-7-5.86-10.4a203.11,203.11,0,0,1-14.24-32.28c-12.11-36.6-24.92-73-36.51-109.81-23.56-74.85-36.83-154.65-76.9-223.24-12.65-21.68-29.1-41.7-46.75-59.28-9.24-9.2-23.1-12.89-30.86-23.93-30.21-43-62.44-93.47-119.38-98.76a80.12,80.12,0,0,0-21.75,1c-59.56,11-33.4,92-5.78,122.34,9.08,10,18.37,19.78,26.07,30.88,1.76,2.49,7.89,8.11,6.65,11.74-2.3,6.81-9.7,12.48-14.05,17.94-17.78,22.25-44.7,38.25-71.12,47.78-53.8,19.34-106.12,46.23-165.4,43.38C2783.3,1014,2738,999.38,2724,995.28Z"/><path class="cls-77" d="M3041.38,893.19c.13.21.3.43.43.65,1.76,2.49,7.89,8.11,6.65,11.74-2.3,6.81-9.7,12.48-14.05,17.94-17.78,22.25-44.7,38.25-71.12,47.78-8.95,3.2-17.84,6.62-26.73,10.09,5.81,2.47,11.76,4.69,17.78,6.68,30.51,10,69.8,20.1,91.15,45.71,26.37,31.69,21.4,79,52.63,108.83,33,31.47,76.5,45.69,118.2,62.24a553.39,553.39,0,0,1,98.22,50.44c20.51,13.37,35,33.59,52.58,50.11a38.63,38.63,0,0,0,12.08-3.69c2.11-1-3.83-2.71-5.43-4.39-2.67-2.85-4-7-5.86-10.4a203.11,203.11,0,0,1-14.24-32.28c-12.11-36.6-24.92-73-36.51-109.81-23.56-74.85-36.83-154.65-76.9-223.24-12.65-21.68-29.1-41.7-46.75-59.28-9.24-9.2-23.1-12.89-30.86-23.93-9.54-13.57-19.26-27.87-29.91-41.27a4.44,4.44,0,0,1-.6,1.38c-1.72,2.28-6.1,1.58-8.45,1.5-7.89-.22-15.35-3.5-22.11-7.44s-12-9.55-18.15-14c-18.43-13.57-51.72-23.12-67.72-.92-5.65,7.84-6.24,20.29-4.81,29.46,3.78,23.88,15.51,41.08,29.67,59.83,7,9.3,14.73,18.39,19.59,29.08.43.95,5.67,9.28,3.38,10-3,.87-8.3-3.58-10.62-4.88A88.53,88.53,0,0,1,3041.38,893.19Z"/><path class="cls-78" d="M3048.49,903.47a3.68,3.68,0,0,1,0,2.11c-2.3,6.81-9.7,12.48-14.05,17.94-17.78,22.25-44.7,38.25-71.12,47.78-53.8,19.34-106.12,46.23-165.4,43.38-14.59-.7-59.91-15.3-73.91-19.4a278.73,278.73,0,0,0,22.86,27.81c6.65.71,13.33,1.41,19.95,2.36,25.32,3.64,49.85,8,75.58,8a826.83,826.83,0,0,0,125.48-9.09c24.16-3.63,45.05-9.44,67.15-19.94a261,261,0,0,0,36.7-21c7.1-4.94,14.51-10.61,20.45-17,5.3-5.67,18.4-17.12,17.35-26.13-1.89-16.79-16.27-17.12-28.83-22.84C3070.05,912.64,3059.19,908.22,3048.49,903.47Z"/><path class="cls-79" d="M3085.48,885.67c-20.92-8.74-33.72-24.77-47.13-42.49-5.67-7.49-12.1-13.84-16-22.52-5.29-11.86-7.37-32,6-39.34,23.59-13,36.53,9.22,52.82,21.46,16,12.08,36.56,17.88,51.29,31.77S3154,869,3165.25,885.4c7.37,10.77,22.75,31.06,16.61,45.61-3.05,7.19-15.91-5.81-18.18-7.65-8.54-6.9-11.92-19.13-20.73-26.86-5.43-4.75-13.48-5.84-18.18-12-9.14-12-7.27-27.38-13.35-40.68-5.22-11.36-25.62-20.43-27.48-1.38-.68,7.16-.41,17,2.43,23.61,2.68,6.29,8.19,13.15,8.43,20.18"/><path class="cls-80" d="M2873.31,255c-41.13,14.24-84.5,61.1-113.63,91.95-83.15,88-110.57,142.52-157.83,254.58-16.41,38.9-40.27,132-46.75,173.7-1.49,9.46-8.54,36,5.08,42.4,4.24,2,34.72-17.71,42.13-20.83,47.66-20,98.73-26.19,146-47.46,97.93-44.12,238.25-75.48,344.26-97,56.58-11.5,118.24-22,171.66-44.65,82.58-35.11,80.28-47.08,85.64-125.63,1.91-27.89,7.72-55.7,10.16-83.56,3.26-37.85,18.48-91.9-25.84-111.89-41.72-18.83-99.52-7.22-144.45-13.54-11.38-1.6-45,.65-52.13-11.4-13.51-22.63,144.24-90.29,47.07-92-7.7-.13-15.43-.46-23,.92-12.81,2.31-25.94,6.54-38.48,10-18.07,5-36.18,10-53.82,16.52C3038.19,208.62,2903,240.23,2873.31,255Z"/><path class="cls-81" d="M3030.72,200.58c-71.53,20.3-134.89,51.47-194.91,95.83-28.42,21-103.95,82.13-9.75,77.3,12-.62,23.91-1.35,35.85-2.33,22-1.82,47.1-6.32,67.91-10,33.86-6.08,67.72-13.76,101.17-21.73,91.6-21.82,184.69-48.65,270.38-88.13,9.43-4.34,21.48-8.9,30.75-14.13,89.49-50.68-50.53-70.33-86.07-70.55a625.1,625.1,0,0,0-84.52,4.86c-40.07,5.26-78.55,12.54-117.87,21.54"/></g></svg>